<svg xmlns="http://www.w3.org/2000/svg" xmlns:xlink="http://www.w3.org/1999/xlink" width="100%" height="100%" version="1.1" viewBox="0 0 25114 16294" xml:space="preserve" style="fill-rule:evenodd;clip-rule:evenodd;stroke-linecap:square;stroke-linejoin:round;stroke-miterlimit:1.5"><g transform="matrix(4.16667,0,0,4.16667,0,0)"><g id="Infrastructure-Layer"><g id="Core" transform="matrix(2.94796,0,0,1.70682,2.38837,106.634)"><rect width="1920" height="2160" x="0" y="0" style="fill:#fef2f4"/></g><g><text x="2690.77" y="1274.33" transform="matrix(1,2.99676e-17,-1.35018e-17,1,-1347.64,-749.823)" style="font-family:'Lato-Bold','Lato',sans-serif;font-weight:700;font-size:384px;fill:#f87089;fill-opacity:.05">INFRASTR<tspan x="4517.65 4797.2" y="1274.33 1274.33">UC</tspan>TURE</text></g></g><g><g transform="matrix(8.20049e-16,13.3924,-2.87555,1.76077e-16,6488.4,-11802.6) matrix(0.708245,0,0,0.430445,467.078,390.438)"><rect width="315.768" height="3279.21" x="654.082" y="263.503" style="fill:#fdeafb;stroke:#d282d3;stroke-width:.49px;stroke-dasharray:2.46,2.46,0,0"/></g><g><text x="3815.95" y="1092.98" transform="matrix(8.20049e-16,13.3924,-2.87555,1.76077e-16,6488.4,-11802.6) matrix(9.39809e-18,-0.417311,0.089603,-2.21302e-16,845.117,3035.83)" style="font-family:'Lato-Bold','Lato',sans-serif;font-weight:700;font-size:96px;fill:#d5a6d0;fill-opacity:.5">FUNCTIONALITY GR<tspan x="4729.68 4806.43" y="1092.98 1092.98">OU</tspan>P</text></g></g><g><g transform="matrix(6.84328e-16,11.1759,-2.62979,1.61028e-16,3532.75,-9453.17) matrix(0.708245,0,-1.32641e-33,0.430445,467.078,-620.428)"><rect width="315.768" height="3279.21" x="654.082" y="263.503" style="fill:#fbf2fe;stroke:#d282d3;stroke-width:.59px"/></g><g><text x="2158.16" y="743.178" transform="matrix(6.84328e-16,11.1759,-2.62979,1.61028e-16,3532.75,-9453.17) matrix(8.60786e-18,-0.45631,0.107374,-1.96598e-16,864.362,1329.03)" style="font-family:'Lato-Bold','Lato',sans-serif;font-weight:700;font-size:80px;fill:#bb20ee;fill-opacity:.3">FUNCTIONALITY</text></g></g><g><g transform="matrix(1.36132e-16,2.2232,-0.67686,4.14457e-17,2628.73,-123.099) matrix(0.708245,0,0,0.430445,467.078,390.438)"><rect width="315.768" height="3279.21" x="654.082" y="263.503" style="fill:#fcf6ff;stroke:#d282d3;stroke-width:2.94px"/></g><g><text x="1131.05" y="845.303" transform="matrix(1.36132e-16,2.2232,-0.67686,4.14457e-17,2628.73,-123.099) matrix(1.08558e-16,-1.77289,0.539762,3.30509e-17,598.72,3564.75)" style="font-family:'Lato-Bold','Lato',sans-serif;font-weight:700;font-size:64px;fill:#bb20ee;fill-opacity:.3">REPOSIT<tspan x="1390.8 1441.96" y="845.303 845.303">OR</tspan>Y</text></g></g><g><g><g transform="matrix(1.06453e-16,1.73851,-0.629484,3.85448e-17,4471.87,382.023) matrix(0.708245,0,0,0.430445,467.078,390.438)"><rect width="315.768" height="3279.21" x="654.082" y="263.503" style="fill:#fde3e8;stroke:#ec3c56;stroke-width:3.74px"/></g><g><text x="1085.48" y="760.138" transform="matrix(1.06453e-16,1.73851,-0.629484,3.85448e-17,4471.87,382.023) matrix(1.16729e-16,-1.90632,0.690247,4.22655e-17,506.268,3688.89)" style="font-family:'Lato-Bold','Lato',sans-serif;font-weight:700;font-size:64px;fill:#ef81a4">D<tspan x="1131.68 1172.42 1205.8 1251.24" y="760.138 760.138 760.138 760.138">ATA </tspan>SOUR<tspan x="1436.07 1478.98" y="760.138 760.138">CE</tspan></text><text x="1190.95" y="840.138" transform="matrix(1.06453e-16,1.73851,-0.629484,3.85448e-17,4471.87,382.023) matrix(1.16729e-16,-1.90632,0.690247,4.22655e-17,506.268,3688.89)" style="font-family:'Lato-Bold','Lato',sans-serif;font-weight:700;font-size:64px;fill:#ef81a4">CLIENT</text></g></g></g><g><path d="M1384.04,654.509L1384.04,550.086L1758.18,550.086L1758.18,445.662L1785.42,602.298L1758.18,758.933L1758.18,654.509L1384.04,654.509Z" transform="matrix(1.08872e-16,-3.41971,0.297296,-2.78016e-16,3929.07,8584.88)" style="fill:#87f5bc"/></g><g id="Infrastructure-Flow"><g><g><path d="M3000,495.796L4000,495.796" transform="matrix(1,0,0,1,-4924.91,432.743) matrix(-1.28536,-1.79065e-16,8.77727e-17,-1,10075.8,2258.92)" style="fill:none;stroke:#d282d3;stroke-width:11.58px"/></g><g><g transform="matrix(1,0,0,1,-4924.91,432.743) matrix(-2.24102,-2.74446e-16,2.74446e-16,-2.24102,10900.5,4187.07) matrix(0.54002,0,0,0.54002,792.483,804.497)"><circle cx="2369.26" cy="514.885" r="30.987" style="fill:#d282d3"/></g><g transform="matrix(1,0,0,1,-4924.91,432.743) matrix(-2.24102,-2.74446e-16,2.74446e-16,-2.24102,10900.5,4187.07) matrix(0.466128,0,0,0.466128,967.551,842.543)"><circle cx="2369.26" cy="514.885" r="30.987" style="fill:#fbfcfd"/></g><g transform="matrix(1,0,0,1,-4924.91,432.743) matrix(-2.24102,-2.74446e-16,2.74446e-16,-2.24102,10900.5,4187.07) matrix(0.334498,0,0,0.334498,1279.42,910.317)"><circle cx="2369.26" cy="514.885" r="30.987" style="fill:#d282d3"/></g></g></g><g><path d="M1384.04,654.509L1384.04,550.086L1667.6,550.086L1667.6,445.662L1785.42,602.298L1667.6,758.933L1667.6,654.509L1384.04,654.509Z" transform="matrix(0.443183,-4.996e-17,9.15934e-17,0.16668,-53.7351,1989.52)" style="fill:#87f5bc"/></g><g><path d="M1384.04,654.509L1384.04,550.086L1667.6,550.086L1667.6,445.662L1785.42,602.298L1667.6,758.933L1667.6,654.509L1384.04,654.509Z" transform="matrix(-0.443183,-4.3142e-18,-7.1181e-17,-0.16668,1350.91,2401.7)" style="fill:#87f5bc"/></g><g><text x="1066.17" y="1413.06" transform="matrix(1,0,0,1,-545.149,832.819)" style="font-family:'Lato-Regular','Lato',sans-serif;font-size:32px;fill:#d282d3">DOMAIN MODEL</text></g><g><text x="1059.47" y="1413.06" transform="matrix(1,0,0,1,-545.149,755.035)" style="font-family:'Lato-Regular','Lato',sans-serif;font-size:32px;fill:#d282d3">REQUEST OBJECT</text></g></g><g id="Data-Source-Flow"><g><g><text x="1041.02" y="1389.06" transform="matrix(-0.571054,0,0,1,5132.3,306.742) matrix(-1.75115,9.19322e-33,0,1,2807.01,563.577)" style="font-family:'Lato-Regular','Lato',sans-serif;font-size:32px;fill:#f17184">D<tspan x="1064.45 1084.1 1100.86 1122.62" y="1389.06 1389.06 1389.06 1389.06">ATA </tspan>SOUR<tspan x="1214.53 1236.45" y="1389.06 1389.06">CE</tspan></text><text x="1035.63" y="1437.06" transform="matrix(-0.571054,0,0,1,5132.3,306.742) matrix(-1.75115,9.19322e-33,0,1,2807.01,563.577)" style="font-family:'Lato-Regular','Lato',sans-serif;font-size:32px;fill:#f17184">RETURNS D<tspan x="1208.43 1228.08" y="1437.06 1437.06">AT</tspan>A</text></g><g><text x="1021.73" y="1389.06" transform="matrix(-0.571054,0,0,1,5132.3,306.742) matrix(-1.75115,9.19322e-33,0,1,2807.01,408.008)" style="font-family:'Lato-Regular','Lato',sans-serif;font-size:32px;fill:#f17184">SA<tspan x="1058.27 1080.03" y="1389.06 1389.06">VI</tspan>NG T<tspan x="1161.02 1186.56 1192.74 1216.16 1235.81" y="1389.06 1389.06 1389.06 1389.06 1389.06">O DAT</tspan>A</text><text x="1088" y="1437.06" transform="matrix(-0.571054,0,0,1,5132.3,306.742) matrix(-1.75115,9.19322e-33,0,1,2807.01,408.008)" style="font-family:'Lato-Regular','Lato',sans-serif;font-size:32px;fill:#f17184">SOUR<tspan x="1173.73 1195.65" y="1437.06 1437.06">CE</tspan></text></g><g><text x="983.142" y="1413.06" transform="matrix(-0.571054,0,0,1,5132.3,306.742) matrix(-1.75115,8.24399e-33,0,1,6138.51,343.515)" style="font-family:'Lato-Regular','Lato',sans-serif;font-size:32px;fill:#f17184">P<tspan x="1000.49 1022.25" y="1413.06 1413.06">AR</tspan>AMETERS / P<tspan x="1229.32 1248.45 1268.58 1283.75 1308.61 1330.37" y="1413.06 1413.06 1413.06 1413.06 1413.06 1413.06">AYLOAD</tspan></text></g><g><path d="M1384.04,654.509L1384.04,550.086L1724.43,550.086L1724.43,445.662L1785.42,602.298L1724.43,758.933L1724.43,654.509L1384.04,654.509Z" transform="matrix(-0.571054,0,0,1,5132.3,306.742) matrix(-1.6098,1.23853e-16,-6.41792e-17,0.178951,3340.62,1602.88)" style="fill:#87f5bc"/></g><g><path d="M1384.04,654.509L1384.04,550.086L1724.43,550.086L1724.43,445.662L1785.42,602.298L1724.43,758.933L1724.43,654.509L1384.04,654.509Z" transform="matrix(-0.571054,0,0,1,5132.3,306.742) matrix(1.6098,-1.12735e-17,1.02556e-16,-0.178951,-1761.57,2170.95)" style="fill:#87f5bc"/></g><g><path d="M1384.04,654.509L1384.04,550.086L1724.43,550.086L1724.43,445.662L1785.42,602.298L1724.43,758.933L1724.43,654.509L1384.04,654.509Z" transform="matrix(-0.571054,0,0,1,5132.3,306.742) matrix(1.6098,-1.12735e-17,1.02556e-16,-0.178951,1540.67,2240.3)" style="fill:#87f5bc"/></g><g><path d="M1384.04,654.509L1384.04,550.086L1724.43,550.086L1724.43,445.662L1785.42,602.298L1724.43,758.933L1724.43,654.509L1384.04,654.509Z" transform="matrix(-0.571054,0,0,1,5132.3,306.742) matrix(-1.6098,-1.01306e-16,-1.40932e-16,0.178951,6642.85,1568.69)" style="fill:#87f5bc"/></g><g><path d="M1287.65,1209.62L676.159,1209.62" transform="matrix(-0.571054,0,0,1,5132.3,306.742) matrix(2.80209,0,0,1,-1961.87,677.444)" style="fill:none;stroke:#ec3c56;stroke-width:9.99px"/></g><g><path d="M1287.65,1209.62L676.159,1209.62" transform="matrix(-0.571054,0,0,1,5132.3,306.742) matrix(0.600652,0,0,1,4142.23,761.378)" style="fill:none;stroke:#ec3c56;stroke-width:17.84px"/></g><g><path d="M1287.65,1209.62L676.159,1209.62" transform="matrix(-0.571054,0,0,1,5132.3,306.742) matrix(0.600652,0,0,1,2861.73,761.378)" style="fill:none;stroke:#ec3c56;stroke-width:17.84px"/></g><g><g transform="matrix(-0.571054,0,0,1,5132.3,306.742) matrix(-2.3595,0,0,1.3474,5399.62,1115.97) matrix(1.06099,0,0,1.06099,-79.8258,-29.8675)"><circle cx="1548.31" cy="567.537" r="19.674" style="fill:#fce3e7"/></g><g><path d="M1770.89,371.482C1786.25,371.482 1798.72,383.953 1798.72,399.313C1798.72,414.674 1786.25,427.145 1770.89,427.145C1755.53,427.145 1743.05,414.674 1743.05,399.313C1743.05,383.953 1755.53,371.482 1770.89,371.482ZM1770.89,378.44C1782.41,378.44 1791.76,387.793 1791.76,399.313C1791.76,410.834 1782.41,420.187 1770.89,420.187C1759.37,420.187 1750.01,410.834 1750.01,399.313C1750.01,387.793 1759.37,378.44 1770.89,378.44Z" transform="matrix(-0.571054,0,0,1,5132.3,306.742) matrix(-2.3595,0,0,1.3474,5399.62,1115.97) matrix(1,0,0,1,-207.969,172.97)" style="fill:#ec3c56"/></g><g transform="matrix(-0.571054,0,0,1,5132.3,306.742) matrix(-2.3595,0,0,1.3474,5399.62,1115.97) matrix(0.536359,0,0,0.536359,613.086,358.108)"><circle cx="1770.89" cy="399.313" r="27.831" style="fill:#ec3c56"/></g></g><g><g transform="matrix(-0.571054,0,0,1,5132.3,306.742) matrix(-2.3595,0,0,1.3474,8669.02,1199.9) matrix(1.06099,0,0,1.06099,-79.8258,-29.8675)"><circle cx="1548.31" cy="567.537" r="19.674" style="fill:#fce3e7"/></g><g><path d="M1770.89,371.482C1786.25,371.482 1798.72,383.953 1798.72,399.313C1798.72,414.674 1786.25,427.145 1770.89,427.145C1755.53,427.145 1743.05,414.674 1743.05,399.313C1743.05,383.953 1755.53,371.482 1770.89,371.482ZM1770.89,378.44C1782.41,378.44 1791.76,387.793 1791.76,399.313C1791.76,410.834 1782.41,420.187 1770.89,420.187C1759.37,420.187 1750.01,410.834 1750.01,399.313C1750.01,387.793 1759.37,378.44 1770.89,378.44Z" transform="matrix(-0.571054,0,0,1,5132.3,306.742) matrix(-2.3595,0,0,1.3474,8669.02,1199.9) matrix(1,0,0,1,-207.969,172.97)" style="fill:#ec3c56"/></g><g transform="matrix(-0.571054,0,0,1,5132.3,306.742) matrix(-2.3595,0,0,1.3474,8669.02,1199.9) matrix(0.536359,0,0,0.536359,613.086,358.108)"><circle cx="1770.89" cy="399.313" r="27.831" style="fill:#ec3c56"/></g></g><g><g transform="matrix(-0.571054,0,0,1,5132.3,306.742) matrix(-2.3595,0,0,1.3474,6955.56,1199.9) matrix(1.06099,0,0,1.06099,-79.8258,-29.8675)"><circle cx="1548.31" cy="567.537" r="19.674" style="fill:#fce3e7"/></g><g><path d="M1770.89,371.482C1786.25,371.482 1798.72,383.953 1798.72,399.313C1798.72,414.674 1786.25,427.145 1770.89,427.145C1755.53,427.145 1743.05,414.674 1743.05,399.313C1743.05,383.953 1755.53,371.482 1770.89,371.482ZM1770.89,378.44C1782.41,378.44 1791.76,387.793 1791.76,399.313C1791.76,410.834 1782.41,420.187 1770.89,420.187C1759.37,420.187 1750.01,410.834 1750.01,399.313C1750.01,387.793 1759.37,378.44 1770.89,378.44Z" transform="matrix(-0.571054,0,0,1,5132.3,306.742) matrix(-2.3595,0,0,1.3474,6955.56,1199.9) matrix(1,0,0,1,-207.969,172.97)" style="fill:#ec3c56"/></g><g transform="matrix(-0.571054,0,0,1,5132.3,306.742) matrix(-2.3595,0,0,1.3474,6955.56,1199.9) matrix(0.536359,0,0,0.536359,613.086,358.108)"><circle cx="1770.89" cy="399.313" r="27.831" style="fill:#ec3c56"/></g></g><g><path d="M1287.65,1209.62L676.159,1209.62" transform="matrix(-0.571054,0,0,1,5132.3,306.742) matrix(2.6947,0,0,1,1445.82,591.75)" style="fill:none;stroke:#ec3c56;stroke-width:10.27px"/></g><g><g transform="matrix(-0.571054,0,0,1,5132.3,306.742) matrix(-2.3595,0,0,1.3474,6955.56,1030.28) matrix(1.06099,0,0,1.06099,-79.8258,-29.8675)"><circle cx="1548.31" cy="567.537" r="19.674" style="fill:#fce3e7"/></g><g><path d="M1770.89,371.482C1786.25,371.482 1798.72,383.953 1798.72,399.313C1798.72,414.674 1786.25,427.145 1770.89,427.145C1755.53,427.145 1743.05,414.674 1743.05,399.313C1743.05,383.953 1755.53,371.482 1770.89,371.482ZM1770.89,378.44C1782.41,378.44 1791.76,387.793 1791.76,399.313C1791.76,410.834 1782.41,420.187 1770.89,420.187C1759.37,420.187 1750.01,410.834 1750.01,399.313C1750.01,387.793 1759.37,378.44 1770.89,378.44Z" transform="matrix(-0.571054,0,0,1,5132.3,306.742) matrix(-2.3595,0,0,1.3474,6955.56,1030.28) matrix(1,0,0,1,-207.969,172.97)" style="fill:#ec3c56"/></g><g transform="matrix(-0.571054,0,0,1,5132.3,306.742) matrix(-2.3595,0,0,1.3474,6955.56,1030.28) matrix(0.536359,0,0,0.536359,613.086,358.108)"><circle cx="1770.89" cy="399.313" r="27.831" style="fill:#ec3c56"/></g></g><g><g transform="matrix(-0.571054,0,0,1,5132.3,306.742) matrix(-2.3595,0,0,1.3474,8669.02,1030.28) matrix(1.06099,0,0,1.06099,-79.8258,-29.8675)"><circle cx="1548.31" cy="567.537" r="19.674" style="fill:#fce3e7"/></g><g><path d="M1770.89,371.482C1786.25,371.482 1798.72,383.953 1798.72,399.313C1798.72,414.674 1786.25,427.145 1770.89,427.145C1755.53,427.145 1743.05,414.674 1743.05,399.313C1743.05,383.953 1755.53,371.482 1770.89,371.482ZM1770.89,378.44C1782.41,378.44 1791.76,387.793 1791.76,399.313C1791.76,410.834 1782.41,420.187 1770.89,420.187C1759.37,420.187 1750.01,410.834 1750.01,399.313C1750.01,387.793 1759.37,378.44 1770.89,378.44Z" transform="matrix(-0.571054,0,0,1,5132.3,306.742) matrix(-2.3595,0,0,1.3474,8669.02,1030.28) matrix(1,0,0,1,-207.969,172.97)" style="fill:#ec3c56"/></g><g transform="matrix(-0.571054,0,0,1,5132.3,306.742) matrix(-2.3595,0,0,1.3474,8669.02,1030.28) matrix(0.536359,0,0,0.536359,613.086,358.108)"><circle cx="1770.89" cy="399.313" r="27.831" style="fill:#ec3c56"/></g></g></g><g><g><g transform="matrix(-0.571054,0,0,1,5132.3,306.742) matrix(1,0,0,1,-74.935,0.26837) matrix(1.07227e-16,-1,1.75115,6.12323e-17,-1670.5,3006.84) matrix(0.505913,0,0,0.505913,381.449,411.288)"><circle cx="791.794" cy="852.188" r="19.766" style="fill:#ec3c56"/></g><g transform="matrix(-0.571054,0,0,1,5132.3,306.742) matrix(1,0,0,1,-74.935,0.26837) matrix(1.07227e-16,-1,1.75115,6.12323e-17,-1670.5,3006.84) matrix(0.505913,0,0,0.505913,421.449,411.288)"><circle cx="791.794" cy="852.188" r="19.766" style="fill:#ec3c56"/></g><g transform="matrix(-0.571054,0,0,1,5132.3,306.742) matrix(1,0,0,1,-74.935,0.26837) matrix(1.07227e-16,-1,1.75115,6.12323e-17,-1670.5,3006.84) matrix(0.505913,0,0,0.505913,461.449,411.288)"><circle cx="791.794" cy="852.188" r="19.766" style="fill:#ec3c56"/></g></g><g><g transform="matrix(-0.571054,0,0,1,5132.3,306.742) matrix(1,0,0,1,-74.935,0.26837) matrix(1.07227e-16,-1,1.75115,6.12323e-17,-1670.5,2488.88) matrix(0.505913,0,0,0.505913,381.449,411.288)"><circle cx="791.794" cy="852.188" r="19.766" style="fill:#ec3c56"/></g><g transform="matrix(-0.571054,0,0,1,5132.3,306.742) matrix(1,0,0,1,-74.935,0.26837) matrix(1.07227e-16,-1,1.75115,6.12323e-17,-1670.5,2488.88) matrix(0.505913,0,0,0.505913,421.449,411.288)"><circle cx="791.794" cy="852.188" r="19.766" style="fill:#ec3c56"/></g><g transform="matrix(-0.571054,0,0,1,5132.3,306.742) matrix(1,0,0,1,-74.935,0.26837) matrix(1.07227e-16,-1,1.75115,6.12323e-17,-1670.5,2488.88) matrix(0.505913,0,0,0.505913,461.449,411.288)"><circle cx="791.794" cy="852.188" r="19.766" style="fill:#ec3c56"/></g></g><g><g><g><path d="M682.123,1226.78C682.123,1209.65 679.421,1195.75 676.093,1195.75L505.737,1195.75C502.409,1195.75 499.707,1209.65 499.707,1226.78L499.707,1468.97C499.707,1486.1 502.409,1500 505.737,1500L676.093,1500C679.421,1500 682.123,1486.1 682.123,1468.97L682.123,1226.78Z" transform="matrix(-0.571054,0,0,1,5132.3,306.742) matrix(1,0,0,1,-74.935,0.26837) matrix(-1.75115,0,0,1,1242.58,429.255) matrix(0.845698,0,0,0.164339,321.366,1174.84)" style="fill:#ec3c56"/></g><g><path d="M682.123,1226.78C682.123,1209.65 679.421,1195.75 676.093,1195.75L505.737,1195.75C502.409,1195.75 499.707,1209.65 499.707,1226.78L499.707,1468.97C499.707,1486.1 502.409,1500 505.737,1500L676.093,1500C679.421,1500 682.123,1486.1 682.123,1468.97L682.123,1226.78Z" transform="matrix(-0.571054,0,0,1,5132.3,306.742) matrix(1,0,0,1,-74.935,0.26837) matrix(-1.75115,0,0,1,1242.58,429.255) matrix(0.845698,0,0,0.164339,321.366,1234.84)" style="fill:#ec3c56"/></g><g><path d="M682.123,1226.78C682.123,1209.65 679.421,1195.75 676.093,1195.75L505.737,1195.75C502.409,1195.75 499.707,1209.65 499.707,1226.78L499.707,1468.97C499.707,1486.1 502.409,1500 505.737,1500L676.093,1500C679.421,1500 682.123,1486.1 682.123,1468.97L682.123,1226.78Z" transform="matrix(-0.571054,0,0,1,5132.3,306.742) matrix(1,0,0,1,-74.935,0.26837) matrix(-1.75115,0,0,1,1242.58,429.255) matrix(0.845698,0,0,0.164339,321.366,1294.84)" style="fill:#ec3c56"/></g></g><g><text x="586.338" y="2423.92" transform="matrix(-0.571054,0,0,1,5132.3,306.742) matrix(1,0,0,1,-74.935,0.26837) matrix(-1.75115,0,0,1,1242.58,429.255) matrix(1,0,0,1,189.996,-804.931)" style="font-family:'Lato-Bold','Lato',sans-serif;font-weight:700;font-size:64px;fill:#ec3c56">DB</text></g></g></g></g><g><g transform="matrix(6.12323e-17,1,-0.772529,4.73038e-17,3445.67,-1301.12) matrix(1,0,0,1.54181,114.664,-100.91)"><rect width="167.565" height="437.825" x="3380.26" y="392.249" style="fill:#fde3e8;stroke:#ec3c56;stroke-width:3.03px"/></g><g><text x="2239.94" y="193.08" transform="matrix(6.12323e-17,1,-0.772529,4.73038e-17,3445.67,-1301.12) matrix(4.02415e-17,-1.55334,1.2,1.73674e-16,3329.87,4620.65)" style="font-family:'Lato-Bold','Lato',sans-serif;font-weight:700;font-size:33.333px;fill:#ef81a4">D<tspan x="2264 2285.22 2302.6 2326.27" y="193.08 193.08 193.08 193.08">ATA </tspan>SOUR<tspan x="2422.54 2444.89" y="193.08 193.08">CE</tspan> MAPPER -</text><text x="2289.85" y="246.413" transform="matrix(6.12323e-17,1,-0.772529,4.73038e-17,3445.67,-1301.12) matrix(4.02415e-17,-1.55334,1.2,1.73674e-16,3329.87,4620.65)" style="font-family:'Lato-Bold','Lato',sans-serif;font-weight:700;font-size:33.333px;fill:#ef81a4">D<tspan x="2313.92 2335.14 2352.52 2376.19 2382.62 2401.15 2427.8" y="246.413 246.413 246.413 246.413 246.413 246.413 246.413">ATA TO </tspan>DOMAIN</text></g></g><g id="Info-Block"><g id="Infra-Info-Block"><g transform="matrix(0.785825,0,0,1.17246,2623.68,-1917.51) matrix(0.837713,2.75994e-17,-2.25625e-17,-0.626787,1252.46,3136.89)"><rect width="797.552" height="203.404" x="1700.18" y="0" style="fill:#fbdae0"/></g><g><text x="111.518" y="2186.94" transform="matrix(0.785825,0,0,1.17246,2623.68,-1917.51) matrix(1.27255,0,0,0.852905,2555.73,1173.9)" style="font-family:'Lato-Regular','Lato',sans-serif;font-size:24px;fill:#f17184">F<tspan x="124.262 137.606" y="2186.94 2186.94">or</tspan> speciﬁc data source, y<tspan x="378.614 391.958" y="2186.94 2186.94">ou</tspan> use data from</text><text x="111.518" y="2217.9" transform="matrix(0.785825,0,0,1.17246,2623.68,-1917.51) matrix(1.27255,0,0,0.852905,2555.73,1173.9)" style="font-family:'Lato-Regular','Lato',sans-serif;font-size:24px;fill:#f17184">Request Object and tr<tspan x="345.278 357.446" y="2217.9 2217.9">an</tspan>slate to speciﬁc data</text><text x="111.518" y="2248.86" transform="matrix(0.785825,0,0,1.17246,2623.68,-1917.51) matrix(1.27255,0,0,0.852905,2555.73,1173.9)" style="font-family:'Lato-Regular','Lato',sans-serif;font-size:24px;fill:#f17184">input format ( data for queries, entities, ﬁles,</text><text x="111.518" y="2279.83" transform="matrix(0.785825,0,0,1.17246,2623.68,-1917.51) matrix(1.27255,0,0,0.852905,2555.73,1173.9)" style="font-family:'Lato-Regular','Lato',sans-serif;font-size:24px;fill:#f17184">e<tspan x="123.374 135.47" y="2279.83 2279.83">xt</tspan>ernal services etc.)</text></g></g><g id="Infra-Info-Block1"><g transform="matrix(0.819877,0,0,0.963004,2179.05,-2302.7) matrix(0.837713,2.75994e-17,-2.25625e-17,-0.626787,1252.46,3136.89)"><rect width="797.552" height="203.404" x="1700.18" y="0" style="fill:#fbdae0"/></g><g><text x="111.518" y="2186.94" transform="matrix(0.819877,0,0,0.963004,2179.05,-2302.7) matrix(1.2197,0,0,1.03842,2561.62,771.474)" style="font-family:'Lato-Regular','Lato',sans-serif;font-size:24px;fill:#f17184">Infr<tspan x="149.534 161.702" y="2186.94 2186.94">as</tspan>tructure la<tspan x="282.398 294.374 306.95" y="2186.94 2186.94 2186.94">yer</tspan> contains deﬁnition, models,</text><text x="111.518" y="2222.94" transform="matrix(0.819877,0,0,0.963004,2179.05,-2302.7) matrix(1.2197,0,0,1.03842,2561.62,771.474)" style="font-family:'Lato-Regular','Lato',sans-serif;font-size:24px;fill:#f17184">clients implementation for variety of data source.</text><text x="111.518" y="2258.94" transform="matrix(0.819877,0,0,0.963004,2179.05,-2302.7) matrix(1.2197,0,0,1.03842,2561.62,771.474)" style="font-family:'Lato-Regular','Lato',sans-serif;font-size:24px;fill:#f17184">This la<tspan x="178.142 190.118 202.694" y="2258.94 2258.94 2258.94">yer</tspan> has an access to Domain La<tspan x="498.782 510.758 523.334" y="2258.94 2258.94 2258.94">yer</tspan> only</text></g></g><g id="Infra-Info-Block2"><g transform="matrix(0.926371,0,0,0.93376,551.926,-1049.67) matrix(0.837713,2.75994e-17,-2.25625e-17,-0.626787,1252.46,3136.89)"><rect width="797.552" height="203.404" x="1700.18" y="0" style="fill:#fbdae0"/></g><g><text x="111.518" y="2186.94" transform="matrix(0.926371,0,0,0.93376,551.926,-1049.67) matrix(1.07948,0,0,1.07094,2577.26,700.925)" style="font-family:'Lato-Regular','Lato',sans-serif;font-size:24px;fill:#f17184">Data source returns data in speciﬁc format - entity<tspan x="634.07" y="2186.94">,</tspan></text><text x="111.518" y="2222.94" transform="matrix(0.926371,0,0,0.93376,551.926,-1049.67) matrix(1.07948,0,0,1.07094,2577.26,700.925)" style="font-family:'Lato-Regular','Lato',sans-serif;font-size:24px;fill:#f17184">cloud service pa<tspan x="278.15 290.438" y="2222.94 2222.94">yl</tspan>oad etc. Repository is responsible for</text><text x="111.518" y="2258.94" transform="matrix(0.926371,0,0,0.93376,551.926,-1049.67) matrix(1.07948,0,0,1.07094,2577.26,700.925)" style="font-family:'Lato-Regular','Lato',sans-serif;font-size:24px;fill:#f17184">tr<tspan x="129.686 141.854" y="2258.94 2258.94">an</tspan>sforming Data Source output into Domain Model</text></g></g><g id="Infra-Info-Block3"><g transform="matrix(0.816179,0,0,0.951747,2007.5,518.654) matrix(0.837713,2.75994e-17,-2.25625e-17,-0.626787,1252.46,3136.89)"><rect width="797.552" height="203.404" x="1700.18" y="0" style="fill:#fbdae0"/></g><g><text x="111.518" y="2186.94" transform="matrix(0.816179,0,0,0.951747,2007.5,518.654) matrix(1.22522,0,0,1.0507,2561,744.831)" style="font-family:'Lato-Regular','Lato',sans-serif;font-size:24px;fill:#f17184">Data source client is injected to repository via</text><text x="111.518" y="2222.94" transform="matrix(0.816179,0,0,0.951747,2007.5,518.654) matrix(1.22522,0,0,1.0507,2561,744.831)" style="font-family:'Lato-Regular','Lato',sans-serif;font-size:24px;fill:#f17184">Dependency Injection, it should be also</text><text x="111.518" y="2258.94" transform="matrix(0.816179,0,0,0.951747,2007.5,518.654) matrix(1.22522,0,0,1.0507,2561,744.831)" style="font-family:'Lato-Regular','Lato',sans-serif;font-size:24px;fill:#f17184">abstr<tspan x="165.686 177.854" y="2258.94 2258.94">ac</tspan>ted and gener<tspan x="332.174 344.342" y="2258.94 2258.94">al</tspan>ized as much as possible</text></g></g><g id="App-Services-Info-Block"><g transform="matrix(0.497347,0,0,0.637375,-472.957,-252.806) matrix(1.21272,-8.99232e-18,7.81342e-18,-1.28185,377.201,3270.13)"><rect width="797.552" height="203.404" x="1700.18" y="0" style="fill:#f9eefc"/></g><g><text x="111.518" y="2186.94" transform="matrix(0.497347,0,0,0.637375,-472.957,-252.806) matrix(2.01067,0,0,1.56894,2243.49,-362.28)" style="font-family:'Lato-Regular','Lato',sans-serif;font-size:24px;fill:#d37df0">Repository implementation is related to</text><text x="111.518" y="2222.94" transform="matrix(0.497347,0,0,0.637375,-472.957,-252.806) matrix(2.01067,0,0,1.56894,2243.49,-362.28)" style="font-family:'Lato-Regular','Lato',sans-serif;font-size:24px;fill:#d37df0">speciﬁc data source. After e<tspan x="398.342 409.718 422.294" y="2222.94 2222.94 2222.94">xec</tspan>uting</text><text x="111.518" y="2258.94" transform="matrix(0.497347,0,0,0.637375,-472.957,-252.806) matrix(2.01067,0,0,1.56894,2243.49,-362.28)" style="font-family:'Lato-Regular','Lato',sans-serif;font-size:24px;fill:#d37df0">oper<tspan x="159.902 172.07" y="2258.94 2258.94">at</tspan>ion on data source, it returns</text><text x="111.518" y="2294.94" transform="matrix(0.497347,0,0,0.637375,-472.957,-252.806) matrix(2.01067,0,0,1.56894,2243.49,-362.28)" style="font-family:'Lato-Regular','Lato',sans-serif;font-size:24px;fill:#d37df0">mapped Domain Model</text></g></g></g><g id="DI"><g><g transform="matrix(1,0,0,1,2.38837,5.18545) matrix(0.94094,0,0,1,1.28442e-12,-2.59703e-12) matrix(1.14226,0,0,1.09726,-421.633,-374.117)"><rect width="5266.18" height="106.634" x="369.121" y="3793.37" style="fill:#e1e8f4"/></g><g><text x="2836.83" y="73.742" transform="matrix(1,0,0,1,2.38837,5.18545) matrix(0.94094,0,0,1,1.28442e-12,-2.59703e-12) matrix(1.06277,0,0,1,-315.374,3793.37)" style="font-family:'Lato-Bold','Lato',sans-serif;font-weight:700;font-size:48px;fill:#48669d">DEPENDENCY INJECTION</text></g></g><g transform="matrix(1,0,0,1,2.38837,5.18545) matrix(4.54677e-17,0.742543,-1.09726,6.71876e-17,9822.39,-279.274)"><rect width="5266.18" height="106.634" x="369.121" y="3793.37" style="fill:#e1e8f4"/></g><g><g transform="matrix(1,0,0,1,2.38837,5.18545) matrix(1.06911,0,0,1.04863,-389.9,-5.18545) matrix(1.00532,0,0,1,-6.38963,-3793.37)"><rect width="5266.18" height="106.634" x="369.121" y="3793.37" style="fill:#e1e8f4"/></g><g><text x="2878.44" y="73.742" transform="matrix(1,0,0,1,2.38837,5.18545) matrix(1.06911,0,0,1.04863,-389.9,-5.18545) matrix(0.935354,0,0,0.953627,218.764,-3.36075e-12)" style="font-family:'Lato-Bold','Lato',sans-serif;font-weight:700;font-size:48px;fill:#48669d">DEPENDENCY INJECTION</text></g></g></g><g id="External-Internal-Source"><g transform="matrix(1,0,0,1.00266,27.1736,-6.82121e-13) matrix(1,0,0,1,5635.31,0)"><rect width="364.694" height="3900" x="0" y="0" style="fill:#f27688"/></g><g><text x="1352.07" y="885.316" transform="matrix(1,0,0,1.00266,27.1736,-6.82121e-13) matrix(6.10699e-17,0.997348,-1,6.12323e-17,6667.3,-105.76)" style="font-family:'Lato-Bold','Lato',sans-serif;font-weight:700;font-size:96px;fill:#fce3e7">EXTERNAL ST<tspan x="1979.48 2056.23 2119.11 2184.83 2254.23" y="885.316 885.316 885.316 885.316 885.316">ORAGE</tspan> / SERVICE</text></g></g></g></svg>