<svg xmlns="http://www.w3.org/2000/svg" xmlns:xlink="http://www.w3.org/1999/xlink" width="100%" height="100%" version="1.1" viewBox="0 0 25064 16294" xml:space="preserve" style="fill-rule:evenodd;clip-rule:evenodd;stroke-linecap:square;stroke-linejoin:round;stroke-miterlimit:1.5"><g transform="matrix(4.16667,0,0,4.16667,0,0)"><g id="Core-Layer"><g id="Core" transform="matrix(3.133,0,0,1.70682,2.12594e-12,106.634)"><rect width="1920" height="2160" x="0" y="0" style="fill:#fefbf4"/></g><g><text x="3086.66" y="1212.53" transform="matrix(1.2,0,0,1.2,-1214.23,-930.614)" style="font-family:'Lato-Bold','Lato',sans-serif;font-weight:700;font-size:320px;fill:#efc051;fill-opacity:.1">CORE</text></g></g><g><g transform="matrix(8.20049e-16,13.3924,-2.87555,1.76077e-16,6486.01,-11802.6) matrix(0.708245,0,0,0.430445,467.078,390.438)"><rect width="315.768" height="3279.21" x="654.082" y="263.503" style="fill:#fdf9ed;stroke:#ee5168;stroke-width:.49px;stroke-dasharray:2.46,2.46,0,0"/></g><g><text x="3858.38" y="1092.98" transform="matrix(8.20049e-16,13.3924,-2.87555,1.76077e-16,6486.01,-11802.6) matrix(9.39809e-18,-0.417311,0.089603,-2.21302e-16,845.117,3035.83)" style="font-family:'Lato-Bold','Lato',sans-serif;font-weight:700;font-size:96px;fill:#efc051;fill-opacity:.3">APPLICA<tspan x="4251.79 4308.91" y="1092.98 1092.98">TI</tspan>ON SERVICE</text></g></g><g><g transform="matrix(6.84328e-16,11.1759,-2.62979,1.61028e-16,3530.36,-9453.17) matrix(0.708245,0,-1.32641e-33,0.430445,467.078,-620.428)"><rect width="315.768" height="3279.21" x="654.082" y="263.503" style="fill:#fbf1e8;stroke:#facea6;stroke-width:.59px"/></g><g><text x="2137.76" y="743.178" transform="matrix(6.84328e-16,11.1759,-2.62979,1.61028e-16,3530.36,-9453.17) matrix(8.60786e-18,-0.45631,0.107374,-1.96598e-16,864.362,1329.03)" style="font-family:'Lato-Bold','Lato',sans-serif;font-weight:700;font-size:80px;fill:#f4d9c4;stroke:#facea6;stroke-width:.83px;stroke-linecap:butt;stroke-miterlimit:2">DOMAIN SERVICE</text></g></g><g><g transform="matrix(8.2139e-17,1.34143,-0.67686,4.14457e-17,3826.42,-30.096) matrix(0.708245,0,0,0.430445,467.078,390.438)"><rect width="315.768" height="3279.21" x="654.082" y="263.503" style="fill:#fffaf6;stroke:#fbe1ca;stroke-width:4.74px"/></g><g><text x="1167.96" y="763.137" transform="matrix(8.2139e-17,1.34143,-0.67686,4.14457e-17,3826.42,-30.096) matrix(1.08558e-16,-1.77289,0.894566,5.47764e-17,380.742,3564.75)" style="font-family:'Lato-Bold','Lato',sans-serif;font-weight:700;font-size:64px;fill:#f7dcc8">SCENARIO</text></g></g><g><g transform="matrix(8.2139e-17,1.34143,-0.67686,4.14457e-17,3826.42,844.982) matrix(0.708245,0,0,0.430445,467.078,390.438)"><rect width="315.768" height="3279.21" x="654.082" y="263.503" style="fill:#fffaf6;stroke:#fbe1ca;stroke-width:4.74px"/></g><g><text x="1128.16" y="763.137" transform="matrix(8.2139e-17,1.34143,-0.67686,4.14457e-17,3826.42,844.982) matrix(1.08558e-16,-1.77289,0.894566,5.47764e-17,380.742,3564.75)" style="font-family:'Lato-Bold','Lato',sans-serif;font-weight:700;font-size:64px;fill:#f4d9c4">INTERA<tspan x="1357.08 1400 1435.58 1486.75" y="763.137 763.137 763.137 763.137">CTOR</tspan></text></g></g><g><g transform="matrix(8.2139e-17,1.34143,-0.67686,4.14457e-17,3826.42,406.904) matrix(0.708245,0,0,0.430445,467.078,390.438)"><rect width="315.768" height="3279.21" x="654.082" y="263.503" style="fill:#fffaf6;stroke:#fbe1ca;stroke-width:4.74px"/></g><g><text x="1183.79" y="763.137" transform="matrix(8.2139e-17,1.34143,-0.67686,4.14457e-17,3826.42,406.904) matrix(1.08558e-16,-1.77289,0.894566,5.47764e-17,380.742,3564.75)" style="font-family:'Lato-Bold','Lato',sans-serif;font-weight:700;font-size:64px;fill:#f4d9c4">USE CASE</text></g></g><g><g transform="matrix(1.36132e-16,2.2232,-0.67686,4.14457e-17,3826.42,509.786) matrix(0.708245,0,0,0.430445,467.078,390.438)"><rect width="315.768" height="3279.21" x="654.082" y="263.503" style="fill:#fce9fa;stroke:#d282d3;stroke-width:2.94px"/></g><g><text x="1131.05" y="845.303" transform="matrix(1.36132e-16,2.2232,-0.67686,4.14457e-17,3826.42,509.786) matrix(1.08558e-16,-1.77289,0.539762,3.30509e-17,598.72,3564.75)" style="font-family:'Lato-Bold','Lato',sans-serif;font-weight:700;font-size:64px;fill:#bb20ee;fill-opacity:.3">REPOSIT<tspan x="1390.8 1441.96" y="845.303 845.303">OR</tspan>Y</text></g></g><g><g><g transform="matrix(1.34143,2.39632e-32,6.16298e-33,1.3159,81.928,602.068) matrix(0.708245,0,0,0.430445,467.078,390.438)"><rect width="315.768" height="3279.21" x="654.082" y="263.503" style="fill:#fffaf6;stroke:#fbe1ca;stroke-width:4.26px"/></g><g><text x="1428.27" y="763.137" transform="matrix(1.34143,2.39632e-32,6.16298e-33,1.3159,81.928,602.068) matrix(5.58392e-17,-0.911924,0.894566,5.47764e-17,380.742,2763.77)" style="font-family:'Lato-Bold','Lato',sans-serif;font-weight:700;font-size:64px;fill:#f7dcc8">SERVICE METHOD</text></g></g><g><g transform="matrix(6.12323e-17,1,-1,6.12323e-17,2322.32,282.644) matrix(0.505913,0,0,0.505913,381.449,411.288)"><circle cx="791.794" cy="852.188" r="19.766" style="fill:#facea6"/></g><g transform="matrix(6.12323e-17,1,-1,6.12323e-17,2322.32,282.644) matrix(0.505913,0,0,0.505913,421.449,411.288)"><circle cx="791.794" cy="852.188" r="19.766" style="fill:#facea6"/></g><g transform="matrix(6.12323e-17,1,-1,6.12323e-17,2322.32,282.644) matrix(0.505913,0,0,0.505913,461.449,411.288)"><circle cx="791.794" cy="852.188" r="19.766" style="fill:#facea6"/></g></g><g><g transform="matrix(6.12323e-17,1,-1,6.12323e-17,2322.32,272.287) matrix(0.505913,0,0,0.505913,2570.44,411.288)"><circle cx="791.794" cy="852.188" r="19.766" style="fill:#facea6"/></g><g transform="matrix(6.12323e-17,1,-1,6.12323e-17,2322.32,272.287) matrix(0.505913,0,0,0.505913,2610.44,411.288)"><circle cx="791.794" cy="852.188" r="19.766" style="fill:#facea6"/></g><g transform="matrix(6.12323e-17,1,-1,6.12323e-17,2322.32,272.287) matrix(0.505913,0,0,0.505913,2650.44,411.288)"><circle cx="791.794" cy="852.188" r="19.766" style="fill:#facea6"/></g></g></g><g><path d="M1384.04,654.509L1384.04,550.086L1734.33,550.086L1734.33,445.662L1785.42,602.298L1734.33,758.933L1734.33,654.509L1384.04,654.509Z" transform="matrix(1.11089e-17,-1.82311,0.297296,-1.39717e-16,3259.75,6375.13)" style="fill:#87f5bc"/></g><g id="Flow-Group"><g id="Infrastructure-Flow"><g id="Ifrastructure-Copy"><g><text x="1045.88" y="1413.06" transform="matrix(1,0,0,1,2517.77,801.397)" style="font-family:'Lato-Regular','Lato',sans-serif;font-size:32px;fill:#d282d3">DOMAIN MODEL</text></g><g><text x="1045.88" y="1413.06" transform="matrix(1,0,0,1,2517.77,361.752)" style="font-family:'Lato-Regular','Lato',sans-serif;font-size:32px;fill:#d282d3">DOMAIN MODEL</text></g><g><text x="1045.88" y="1413.06" transform="matrix(1,0,0,1,2517.77,-70.896)" style="font-family:'Lato-Regular','Lato',sans-serif;font-size:32px;fill:#d282d3">DOMAIN MODEL</text></g></g><g><g><path d="M1384.04,654.509L1384.04,550.086L1667.6,550.086L1667.6,445.662L1785.42,602.298L1667.6,758.933L1667.6,654.509L1384.04,654.509Z" transform="matrix(0.288245,-2.58974e-17,5.70912e-17,0.108408,3542.43,1693.21)" style="fill:#87f5bc"/></g><g><path d="M1384.04,654.509L1384.04,550.086L1667.6,550.086L1667.6,445.662L1785.42,602.298L1667.6,758.933L1667.6,654.509L1384.04,654.509Z" transform="matrix(-0.288245,6.11972e-17,-7.03673e-17,-0.108408,4455.01,2384.99)" style="fill:#87f5bc"/></g><g><path d="M1384.04,654.509L1384.04,550.086L1667.6,550.086L1667.6,445.662L1785.42,602.298L1667.6,758.933L1667.6,654.509L1384.04,654.509Z" transform="matrix(-0.443183,-4.3142e-18,-7.1181e-17,-0.16668,4394.36,1364.37)" style="fill:#87f5bc"/></g><g><path d="M1384.04,654.509L1384.04,550.086L1667.6,550.086L1667.6,445.662L1785.42,602.298L1667.6,758.933L1667.6,654.509L1384.04,654.509Z" transform="matrix(-0.443183,-4.3142e-18,-7.1181e-17,-0.16668,4394.36,1797.02)" style="fill:#87f5bc"/></g><g><path d="M1384.04,654.509L1384.04,550.086L1667.6,550.086L1667.6,445.662L1785.42,602.298L1667.6,758.933L1667.6,654.509L1384.04,654.509Z" transform="matrix(-0.443183,-4.3142e-18,-7.1181e-17,-0.16668,4394.36,2236.67)" style="fill:#87f5bc"/></g><g><path d="M1384.04,654.509L1384.04,550.086L1667.6,550.086L1667.6,445.662L1785.42,602.298L1667.6,758.933L1667.6,654.509L1384.04,654.509Z" transform="matrix(0.433581,-4.88776e-17,8.96089e-17,0.163068,3701.89,2803.29)" style="fill:#87f5bc"/></g></g><g><path d="M3000,495.796L4000,495.796" transform="matrix(-0.405652,-1.02733e-16,5.78601e-17,-1,5111.82,1865.73)" style="fill:none;stroke:#d282d3;stroke-width:17.47px"/></g><g><path d="M322.927,495.796L2000,495.796" transform="matrix(-0.121831,2.91591e-17,-1.26568e-17,-0.15382,4140.72,2338.06)" style="fill:none;stroke:#f9bf8c;stroke-width:96.1px;stroke-dasharray:96.1,288.29,0,0"/></g><g><path d="M322.927,495.796L2000,495.796" transform="matrix(-0.121831,2.91591e-17,-1.26568e-17,-0.15382,4140.72,1892.4)" style="fill:none;stroke:#f9bf8c;stroke-width:96.1px;stroke-dasharray:96.1,288.29,0,0"/></g><g><g transform="matrix(-1,-1.22465e-16,9.46075e-17,-0.772529,7797.12,2688.96) matrix(1,0,0,1.54181,114.664,-100.91)"><rect width="167.565" height="437.825" x="3380.26" y="392.249" style="fill:#fce3c9;stroke:#f9bf8c;stroke-width:3.03px"/></g><g><text x="2236.59" y="193.08" transform="matrix(-1,-1.22465e-16,9.46075e-17,-0.772529,7797.12,2688.96) matrix(4.02415e-17,-1.55334,1.2,1.73674e-16,3329.87,4620.65)" style="font-family:'Lato-Bold','Lato',sans-serif;font-weight:700;font-size:33.333px;fill:#f69739;fill-opacity:.5">D<tspan x="2260.66 2281.88 2299.26 2322.93" y="193.08 193.08 193.08 193.08">ATA </tspan>MAPPER - D<tspan x="2515.51 2536.73 2554.11 2577.78 2584.21 2602.74" y="193.08 193.08 193.08 193.08 193.08 193.08">ATA TO</tspan></text><text x="2362.04" y="246.413" transform="matrix(-1,-1.22465e-16,9.46075e-17,-0.772529,7797.12,2688.96) matrix(4.02415e-17,-1.55334,1.2,1.73674e-16,3329.87,4620.65)" style="font-family:'Lato-Bold','Lato',sans-serif;font-weight:700;font-size:33.333px;fill:#f69739;fill-opacity:.5">DOMAIN</text></g></g><g><path d="M3000,495.796L4000,495.796" transform="matrix(-0.368152,-1.02733e-16,5.25113e-17,-1,5001.52,2299.1)" style="fill:none;stroke:#d282d3;stroke-width:17.7px"/></g><g><path d="M3000,495.796L4000,495.796" transform="matrix(-0.368152,-1.02733e-16,5.25113e-17,-1,4999.32,2738.75)" style="fill:none;stroke:#d282d3;stroke-width:17.7px"/></g><g><path d="M3000,495.796L4000,495.796" transform="matrix(4.53215e-17,-1.33633,1,1.03336e-16,3401.27,6715.26)" style="fill:none;stroke:#d282d3;stroke-width:11.3px"/></g><g><path d="M3000,495.796L4000,495.796" transform="matrix(-0.370352,1.39621e-17,-2.98713e-16,-1,5008.12,3202.06)" style="fill:none;stroke:#d282d3;stroke-width:17.68px"/></g><g><path d="M3000,495.796L4000,495.796" transform="matrix(-2.52615,-8.78123e-16,-4.61636e-16,-1,13593.8,3442.92)" style="fill:none;stroke:#d282d3;stroke-width:6.94px"/></g><g><g transform="matrix(-2.24102,-2.74446e-16,2.74446e-16,-2.24102,8128.63,5132.28) matrix(0.54002,0,0,0.54002,792.483,804.497)"><circle cx="2369.26" cy="514.885" r="30.987" style="fill:#d282d3"/></g><g transform="matrix(-2.24102,-2.74446e-16,2.74446e-16,-2.24102,8128.63,5132.28) matrix(0.466128,0,0,0.466128,967.551,842.543)"><circle cx="2369.26" cy="514.885" r="30.987" style="fill:#fbfcfd"/></g><g transform="matrix(-2.24102,-2.74446e-16,2.74446e-16,-2.24102,8128.63,5132.28) matrix(0.334498,0,0,0.334498,1279.42,910.317)"><circle cx="2369.26" cy="514.885" r="30.987" style="fill:#d282d3"/></g></g><g><g transform="matrix(-2.24102,-2.74446e-16,2.74446e-16,-2.24102,8128.63,4230.89) matrix(0.54002,0,0,0.54002,792.483,804.497)"><circle cx="2369.26" cy="514.885" r="30.987" style="fill:#d282d3"/></g><g transform="matrix(-2.24102,-2.74446e-16,2.74446e-16,-2.24102,8128.63,4230.89) matrix(0.466128,0,0,0.466128,967.551,842.543)"><circle cx="2369.26" cy="514.885" r="30.987" style="fill:#fbfcfd"/></g><g transform="matrix(-2.24102,-2.74446e-16,2.74446e-16,-2.24102,8128.63,4230.89) matrix(0.334498,0,0,0.334498,1279.42,910.317)"><circle cx="2369.26" cy="514.885" r="30.987" style="fill:#d282d3"/></g></g><g><g transform="matrix(-2.24102,-2.74446e-16,2.74446e-16,-2.24102,8128.63,4668.96) matrix(0.54002,0,0,0.54002,792.483,804.497)"><circle cx="2369.26" cy="514.885" r="30.987" style="fill:#d282d3"/></g><g transform="matrix(-2.24102,-2.74446e-16,2.74446e-16,-2.24102,8128.63,4668.96) matrix(0.466128,0,0,0.466128,967.551,842.543)"><circle cx="2369.26" cy="514.885" r="30.987" style="fill:#fbfcfd"/></g><g transform="matrix(-2.24102,-2.74446e-16,2.74446e-16,-2.24102,8128.63,4668.96) matrix(0.334498,0,0,0.334498,1279.42,910.317)"><circle cx="2369.26" cy="514.885" r="30.987" style="fill:#d282d3"/></g></g><g><g transform="matrix(-2.24102,-2.74446e-16,2.74446e-16,-2.24102,8128.63,5373.14) matrix(0.54002,0,0,0.54002,792.483,804.497)"><circle cx="2369.26" cy="514.885" r="30.987" style="fill:#d282d3"/></g><g transform="matrix(-2.24102,-2.74446e-16,2.74446e-16,-2.24102,8128.63,5373.14) matrix(0.466128,0,0,0.466128,967.551,842.543)"><circle cx="2369.26" cy="514.885" r="30.987" style="fill:#fbfcfd"/></g><g transform="matrix(-2.24102,-2.74446e-16,2.74446e-16,-2.24102,8128.63,5373.14) matrix(0.334498,0,0,0.334498,1279.42,910.317)"><circle cx="2369.26" cy="514.885" r="30.987" style="fill:#d282d3"/></g></g><g><g transform="matrix(-2.24102,-2.74446e-16,2.74446e-16,-2.24102,8128.63,3793.89) matrix(0.54002,0,0,0.54002,792.483,804.497)"><circle cx="2369.26" cy="514.885" r="30.987" style="fill:#d282d3"/></g><g transform="matrix(-2.24102,-2.74446e-16,2.74446e-16,-2.24102,8128.63,3793.89) matrix(0.466128,0,0,0.466128,967.551,842.543)"><circle cx="2369.26" cy="514.885" r="30.987" style="fill:#fbfcfd"/></g><g transform="matrix(-2.24102,-2.74446e-16,2.74446e-16,-2.24102,8128.63,3793.89) matrix(0.334498,0,0,0.334498,1279.42,910.317)"><circle cx="2369.26" cy="514.885" r="30.987" style="fill:#d282d3"/></g></g></g><g id="Domain-Flow"><g><path d="M1384.04,654.509L1384.04,550.086L1667.6,550.086L1667.6,445.662L1785.42,602.298L1667.6,758.933L1667.6,654.509L1384.04,654.509Z" transform="matrix(-2.04558e-17,0.288245,-0.108408,3.96579e-17,2424.73,2481.87)" style="fill:#87f5bc"/></g><g><path d="M1384.04,654.509L1384.04,550.086L1667.6,550.086L1667.6,445.662L1785.42,602.298L1667.6,758.933L1667.6,654.509L1384.04,654.509Z" transform="matrix(5.57556e-17,-0.288245,0.108408,-2.63817e-17,1736.07,3395.44)" style="fill:#87f5bc"/></g><g><path d="M1384.04,654.509L1384.04,550.086L1667.6,550.086L1667.6,445.662L1785.42,602.298L1667.6,758.933L1667.6,654.509L1384.04,654.509Z" transform="matrix(0.443183,-4.996e-17,9.15934e-17,0.16668,-56.1234,1989.52)" style="fill:#87f5bc"/></g><g><path d="M1384.04,654.509L1384.04,550.086L1667.6,550.086L1667.6,445.662L1785.42,602.298L1667.6,758.933L1667.6,654.509L1384.04,654.509Z" transform="matrix(-0.443183,-4.3142e-18,-7.1181e-17,-0.16668,1348.52,2401.7)" style="fill:#87f5bc"/></g><g><path d="M1384.04,654.509L1384.04,550.086L1667.6,550.086L1667.6,445.662L1785.42,602.298L1667.6,758.933L1667.6,654.509L1384.04,654.509Z" transform="matrix(0.443183,-4.996e-17,9.15934e-17,0.16668,1377.62,2616.66)" style="fill:#87f5bc"/></g><g><path d="M1384.04,654.509L1384.04,550.086L1667.6,550.086L1667.6,445.662L1785.42,602.298L1667.6,758.933L1667.6,654.509L1384.04,654.509Z" transform="matrix(-0.443183,1.04234e-16,-1.12006e-16,-0.16668,2782.26,3028.01)" style="fill:#87f5bc"/></g><g><path d="M1384.04,654.509L1384.04,550.086L1667.6,550.086L1667.6,445.662L1785.42,602.298L1667.6,758.933L1667.6,654.509L1384.04,654.509Z" transform="matrix(0.443183,-4.996e-17,9.15934e-17,0.16668,1636.66,1160.81)" style="fill:#87f5bc"/></g><g><path d="M1384.04,654.509L1384.04,550.086L1667.6,550.086L1667.6,445.662L1785.42,602.298L1667.6,758.933L1667.6,654.509L1384.04,654.509Z" transform="matrix(0.443183,-4.996e-17,9.15934e-17,0.16668,1636.66,1599.38)" style="fill:#87f5bc"/></g><g><path d="M1384.04,654.509L1384.04,550.086L1667.6,550.086L1667.6,445.662L1785.42,602.298L1667.6,758.933L1667.6,654.509L1384.04,654.509Z" transform="matrix(0.443183,-4.996e-17,9.15934e-17,0.16668,1636.66,2035.89)" style="fill:#87f5bc"/></g><g><path d="M1384.04,654.509L1384.04,550.086L1667.6,550.086L1667.6,445.662L1785.42,602.298L1667.6,758.933L1667.6,654.509L1384.04,654.509Z" transform="matrix(-0.443183,1.04234e-16,-1.12006e-16,-0.16668,2572.5,2013.51)" style="fill:#87f5bc"/></g><g><path d="M1384.04,654.509L1384.04,550.086L1667.6,550.086L1667.6,445.662L1785.42,602.298L1667.6,758.933L1667.6,654.509L1384.04,654.509Z" transform="matrix(-1.14115e-17,-0.221591,0.0833399,-4.06936e-17,2863.86,1937.06)" style="fill:#87f5bc"/></g><g><path d="M1384.04,654.509L1384.04,550.086L1667.6,550.086L1667.6,445.662L1785.42,602.298L1667.6,758.933L1667.6,654.509L1384.04,654.509Z" transform="matrix(3.85486e-17,0.221591,-0.0833399,5.08998e-17,3151.5,1234.73)" style="fill:#87f5bc"/></g><g><path d="M1384.04,654.509L1384.04,550.086L1667.6,550.086L1667.6,445.662L1785.42,602.298L1667.6,758.933L1667.6,654.509L1384.04,654.509Z" transform="matrix(-1.14115e-17,-0.221591,0.0833399,-4.06936e-17,2863.86,2374.36)" style="fill:#87f5bc"/></g><g><path d="M1384.04,654.509L1384.04,550.086L1667.6,550.086L1667.6,445.662L1785.42,602.298L1667.6,758.933L1667.6,654.509L1384.04,654.509Z" transform="matrix(3.85486e-17,0.221591,-0.0833399,5.08998e-17,3151.5,1672.04)" style="fill:#87f5bc"/></g><g><path d="M322.927,495.796L2000,495.796" transform="matrix(2.16991e-17,0.121831,-0.15382,3.23809e-18,2379.03,2797.15)" style="fill:none;stroke:#f9bf8c;stroke-width:96.1px;stroke-dasharray:96.1,288.29,0,0"/></g><g><path d="M322.927,495.796L2000,495.796" transform="matrix(2.16991e-17,0.121831,-0.15382,3.23809e-18,1933.37,2797.15)" style="fill:none;stroke:#f9bf8c;stroke-width:96.1px;stroke-dasharray:96.1,288.29,0,0"/></g><g><g transform="matrix(6.12323e-17,1,-0.772529,4.73038e-17,2729.93,-454.11) matrix(1,0,0,1.54181,114.664,-100.91)"><rect width="167.565" height="437.825" x="3380.26" y="392.249" style="fill:#fce3c9;stroke:#f9bf8c;stroke-width:3.03px"/></g><g><text x="2236.59" y="193.08" transform="matrix(6.12323e-17,1,-0.772529,4.73038e-17,2729.93,-454.11) matrix(4.02415e-17,-1.55334,1.2,1.73674e-16,3329.87,4620.65)" style="font-family:'Lato-Bold','Lato',sans-serif;font-weight:700;font-size:33.333px;fill:#f69739;fill-opacity:.5">D<tspan x="2260.66 2281.88 2299.26 2322.93" y="193.08 193.08 193.08 193.08">ATA </tspan>MAPPER - D<tspan x="2515.51 2536.73 2554.11 2577.78 2584.21 2602.74" y="193.08 193.08 193.08 193.08 193.08 193.08">ATA TO</tspan></text><text x="2362.04" y="246.413" transform="matrix(6.12323e-17,1,-0.772529,4.73038e-17,2729.93,-454.11) matrix(4.02415e-17,-1.55334,1.2,1.73674e-16,3329.87,4620.65)" style="font-family:'Lato-Bold','Lato',sans-serif;font-weight:700;font-size:33.333px;fill:#f69739;fill-opacity:.5">DOMAIN</text></g></g><g><path d="M3000,495.796L4000,495.796" transform="matrix(-0.374493,-1.02733e-16,5.34159e-17,-1,3610.83,1863.67)" style="fill:none;stroke:#facea6;stroke-width:17.66px"/></g><g><path d="M3000,495.796L4000,495.796" transform="matrix(2.27069e-17,-0.120458,0.728083,-6.73456e-17,2646.7,2007.93)" style="fill:none;stroke:#facea6;stroke-width:25.55px"/></g><g><path d="M3000,495.796L4000,495.796" transform="matrix(-0.825078,-1.02733e-16,1.17685e-16,-1,4967.71,2302.24)" style="fill:none;stroke:#facea6;stroke-width:14.54px"/></g><g><path d="M3000,495.796L4000,495.796" transform="matrix(-0.825078,-6.6041e-16,-2.18845e-15,-1,4967.71,3319.27)" style="fill:none;stroke:#facea6;stroke-width:14.54px"/></g><g><path d="M3000,495.796L4000,495.796" transform="matrix(-0.379624,-1.02733e-16,5.41477e-17,-1,3631.35,2738.75)" style="fill:none;stroke:#facea6;stroke-width:17.63px"/></g><g><path d="M3000,495.796L4000,495.796" transform="matrix(-1.59701e-16,-0.873021,1,-2.87404e-15,1617.06,4862.02)" style="fill:none;stroke:#facea6;stroke-width:14.2px"/></g><g><g><path d="M3000,495.796L4000,495.796" transform="matrix(1,0,0,1,-4927.3,432.743) matrix(-1.28536,-1.79065e-16,8.77727e-17,-1,10075.8,2258.92)" style="fill:none;stroke:#facea6;stroke-width:11.58px"/></g><g><g transform="matrix(1,0,0,1,-4927.3,432.743) matrix(-2.24102,-2.74446e-16,2.74446e-16,-2.24102,10900.5,4187.07) matrix(0.54002,0,0,0.54002,792.483,804.497)"><circle cx="2369.26" cy="514.885" r="30.987" style="fill:#facea6"/></g><g transform="matrix(1,0,0,1,-4927.3,432.743) matrix(-2.24102,-2.74446e-16,2.74446e-16,-2.24102,10900.5,4187.07) matrix(0.466128,0,0,0.466128,967.551,842.543)"><circle cx="2369.26" cy="514.885" r="30.987" style="fill:#fbfcfd"/></g><g transform="matrix(1,0,0,1,-4927.3,432.743) matrix(-2.24102,-2.74446e-16,2.74446e-16,-2.24102,10900.5,4187.07) matrix(0.334498,0,0,0.334498,1279.42,910.317)"><circle cx="2369.26" cy="514.885" r="30.987" style="fill:#facea6"/></g></g></g><g><path d="M3000,495.796L4000,495.796" transform="matrix(3.40782e-17,-0.121535,0.728083,-1.2705e-16,2646.7,2449.35)" style="fill:none;stroke:#facea6;stroke-width:25.54px"/></g><g><g transform="matrix(-2.24102,-2.74446e-16,2.74446e-16,-2.24102,6273.15,5246.16) matrix(0.54002,0,0,0.54002,792.483,804.497)"><circle cx="2369.26" cy="514.885" r="30.987" style="fill:#facea6"/></g><g transform="matrix(-2.24102,-2.74446e-16,2.74446e-16,-2.24102,6273.15,5246.16) matrix(0.466128,0,0,0.466128,967.551,842.543)"><circle cx="2369.26" cy="514.885" r="30.987" style="fill:#fbfcfd"/></g><g transform="matrix(-2.24102,-2.74446e-16,2.74446e-16,-2.24102,6273.15,5246.16) matrix(0.334498,0,0,0.334498,1279.42,910.317)"><circle cx="2369.26" cy="514.885" r="30.987" style="fill:#facea6"/></g></g><g><g transform="matrix(-2.24102,-2.74446e-16,2.74446e-16,-2.24102,6273.15,4232.45) matrix(0.54002,0,0,0.54002,792.483,804.497)"><circle cx="2369.26" cy="514.885" r="30.987" style="fill:#facea6"/></g><g transform="matrix(-2.24102,-2.74446e-16,2.74446e-16,-2.24102,6273.15,4232.45) matrix(0.466128,0,0,0.466128,967.551,842.543)"><circle cx="2369.26" cy="514.885" r="30.987" style="fill:#fbfcfd"/></g><g transform="matrix(-2.24102,-2.74446e-16,2.74446e-16,-2.24102,6273.15,4232.45) matrix(0.334498,0,0,0.334498,1279.42,910.317)"><circle cx="2369.26" cy="514.885" r="30.987" style="fill:#facea6"/></g></g><g><g transform="matrix(-2.24102,-2.74446e-16,2.74446e-16,-2.24102,7173.23,4230.89) matrix(0.54002,0,0,0.54002,792.483,804.497)"><circle cx="2369.26" cy="514.885" r="30.987" style="fill:#facea6"/></g><g transform="matrix(-2.24102,-2.74446e-16,2.74446e-16,-2.24102,7173.23,4230.89) matrix(0.466128,0,0,0.466128,967.551,842.543)"><circle cx="2369.26" cy="514.885" r="30.987" style="fill:#fbfcfd"/></g><g transform="matrix(-2.24102,-2.74446e-16,2.74446e-16,-2.24102,7173.23,4230.89) matrix(0.334498,0,0,0.334498,1279.42,910.317)"><circle cx="2369.26" cy="514.885" r="30.987" style="fill:#facea6"/></g></g><g><g transform="matrix(-2.24102,-2.74446e-16,2.74446e-16,-2.24102,7168.1,3793.89) matrix(0.54002,0,0,0.54002,792.483,804.497)"><circle cx="2369.26" cy="514.885" r="30.987" style="fill:#facea6"/></g><g transform="matrix(-2.24102,-2.74446e-16,2.74446e-16,-2.24102,7168.1,3793.89) matrix(0.466128,0,0,0.466128,967.551,842.543)"><circle cx="2369.26" cy="514.885" r="30.987" style="fill:#fbfcfd"/></g><g transform="matrix(-2.24102,-2.74446e-16,2.74446e-16,-2.24102,7168.1,3793.89) matrix(0.334498,0,0,0.334498,1279.42,910.317)"><circle cx="2369.26" cy="514.885" r="30.987" style="fill:#facea6"/></g></g><g><g transform="matrix(-2.24102,-2.74446e-16,2.74446e-16,-2.24102,7173.23,4668.96) matrix(0.54002,0,0,0.54002,792.483,804.497)"><circle cx="2369.26" cy="514.885" r="30.987" style="fill:#facea6"/></g><g transform="matrix(-2.24102,-2.74446e-16,2.74446e-16,-2.24102,7173.23,4668.96) matrix(0.466128,0,0,0.466128,967.551,842.543)"><circle cx="2369.26" cy="514.885" r="30.987" style="fill:#fbfcfd"/></g><g transform="matrix(-2.24102,-2.74446e-16,2.74446e-16,-2.24102,7173.23,4668.96) matrix(0.334498,0,0,0.334498,1279.42,910.317)"><circle cx="2369.26" cy="514.885" r="30.987" style="fill:#facea6"/></g></g><g><g transform="matrix(-2.24102,-2.74446e-16,2.74446e-16,-2.24102,7173.23,5245.16) matrix(0.54002,0,0,0.54002,792.483,804.497)"><circle cx="2369.26" cy="514.885" r="30.987" style="fill:#facea6"/></g><g transform="matrix(-2.24102,-2.74446e-16,2.74446e-16,-2.24102,7173.23,5245.16) matrix(0.466128,0,0,0.466128,967.551,842.543)"><circle cx="2369.26" cy="514.885" r="30.987" style="fill:#fbfcfd"/></g><g transform="matrix(-2.24102,-2.74446e-16,2.74446e-16,-2.24102,7173.23,5245.16) matrix(0.334498,0,0,0.334498,1279.42,910.317)"><circle cx="2369.26" cy="514.885" r="30.987" style="fill:#facea6"/></g></g><g id="Domain-Copy"><g><text x="1066.17" y="1413.06" transform="matrix(1,0,0,1,-547.537,832.819)" style="font-family:'Lato-Regular','Lato',sans-serif;font-size:32px;fill:#facea6">DOMAIN MODEL</text></g><g><text x="1059.47" y="1413.06" transform="matrix(1,0,0,1,-547.537,755.035)" style="font-family:'Lato-Regular','Lato',sans-serif;font-size:32px;fill:#facea6">REQUEST OBJECT</text></g><g><text x="1066.17" y="1413.06" transform="matrix(1,0,0,1,886.202,1459.95)" style="font-family:'Lato-Regular','Lato',sans-serif;font-size:32px;fill:#facea6">DOMAIN MODEL</text></g><g><text x="1059.47" y="1413.06" transform="matrix(1,0,0,1,886.202,1382.17)" style="font-family:'Lato-Regular','Lato',sans-serif;font-size:32px;fill:#facea6">REQUEST OBJECT</text></g><g><text x="1059.47" y="1413.06" transform="matrix(1,0,0,1,1145.25,-73.6808)" style="font-family:'Lato-Regular','Lato',sans-serif;font-size:32px;fill:#facea6">REQUEST OBJECT</text></g><g><text x="1059.47" y="1413.06" transform="matrix(1,0,0,1,1145.25,364.887)" style="font-family:'Lato-Regular','Lato',sans-serif;font-size:32px;fill:#facea6">REQUEST OBJECT</text></g><g><text x="1137.69" y="1413.06" transform="matrix(1,0,0,1,692.986,445.456)" style="font-family:'Lato-Regular','Lato',sans-serif;font-size:32px;fill:#facea6">RESUL<tspan x="1230.91" y="1413.06">T</tspan></text></g><g><text x="980.059" y="1413.06" transform="matrix(6.12323e-17,-1,1,6.12323e-17,1566.12,2622.48)" style="font-family:'Lato-Regular','Lato',sans-serif;font-size:32px;fill:#facea6">RESUL<tspan x="1073.28" y="1413.06">T</tspan></text></g><g><text x="970.427" y="1413.06" transform="matrix(6.12323e-17,1,-1,6.12323e-17,4449.24,550.27)" style="font-family:'Lato-Regular','Lato',sans-serif;font-size:32px;fill:#facea6">REQ OBJ</text></g><g><text x="970.427" y="1413.06" transform="matrix(6.12323e-17,1,-1,6.12323e-17,4449.24,987.096)" style="font-family:'Lato-Regular','Lato',sans-serif;font-size:32px;fill:#facea6">REQ OBJ</text></g><g><text x="980.059" y="1413.06" transform="matrix(6.12323e-17,-1,1,6.12323e-17,1566.12,3059.31)" style="font-family:'Lato-Regular','Lato',sans-serif;font-size:32px;fill:#facea6">RESUL<tspan x="1073.28" y="1413.06">T</tspan></text></g><g><text x="1059.47" y="1413.06" transform="matrix(1,0,0,1,1145.25,801.397)" style="font-family:'Lato-Regular','Lato',sans-serif;font-size:32px;fill:#facea6">REQUEST OBJECT</text></g></g></g></g><g id="Info-Group"><g id="App-Services-Info-Block"><g transform="matrix(0.648665,0,0,0.560617,-988.604,122.349) matrix(1.21272,-4.3277e-17,5.09173e-17,-1.5941,377.201,3333.64)"><rect width="797.552" height="203.404" x="1700.18" y="0" style="fill:#fcf4e3"/></g><g><text x="111.518" y="2186.94" transform="matrix(0.648665,0,0,0.560617,-988.604,122.349) matrix(1.54163,0,0,1.78375,2295.8,-813.486)" style="font-family:'Lato-Regular','Lato',sans-serif;font-size:24px;fill:#ecb32d">UI Later e<tspan x="213.23 224.606 237.182" y="2186.94 2186.94 2186.94">xec</tspan>utes on injected service speciﬁc method</text><text x="111.518" y="2222.94" transform="matrix(0.648665,0,0,0.560617,-988.604,122.349) matrix(1.54163,0,0,1.78375,2295.8,-813.486)" style="font-family:'Lato-Regular','Lato',sans-serif;font-size:24px;fill:#ecb32d">with par<tspan x="197.606 209.774" y="2222.94 2222.94">am</tspan>eters. P<tspan x="307.454 319.622 328.838 341.006" y="2222.94 2222.94 2222.94 2222.94">aram</tspan>eters are wr<tspan x="486.182 498.35" y="2222.94 2222.94">ap</tspan>ped into Request</text><text x="111.518" y="2258.94" transform="matrix(0.648665,0,0,0.560617,-988.604,122.349) matrix(1.54163,0,0,1.78375,2295.8,-813.486)" style="font-family:'Lato-Regular','Lato',sans-serif;font-size:24px;fill:#ecb32d">Object. Output of this method will be Domain Model, or</text><text x="111.518" y="2294.94" transform="matrix(0.648665,0,0,0.560617,-988.604,122.349) matrix(1.54163,0,0,1.78375,2295.8,-813.486)" style="font-family:'Lato-Regular','Lato',sans-serif;font-size:24px;fill:#ecb32d">plain value</text></g></g><g id="App-Services-Info-Block1"><g transform="matrix(0.648665,0,0,0.560617,-129.58,-188.265) matrix(1.21272,-4.53501e-18,2.0531e-17,-1.30701,377.201,3275.25)"><rect width="797.552" height="203.404" x="1700.18" y="0" style="fill:#fcf4e3"/></g><g><text x="111.518" y="2186.94" transform="matrix(0.648665,0,0,0.560617,-129.58,-188.265) matrix(1.54163,0,0,1.78375,2295.8,-813.486)" style="font-family:'Lato-Regular','Lato',sans-serif;font-size:24px;fill:#ecb32d">Service method contains business logic and ma<tspan x="596.342 608.63 613.262 625.118 636.494 649.07" y="2186.94 2186.94 2186.94 2186.94 2186.94 2186.94">y exec</tspan>ute</text><text x="111.518" y="2222.94" transform="matrix(0.648665,0,0,0.560617,-129.58,-188.265) matrix(1.54163,0,0,1.78375,2295.8,-813.486)" style="font-family:'Lato-Regular','Lato',sans-serif;font-size:24px;fill:#ecb32d">not only repository methods / functions but also speciﬁc</text><text x="111.518" y="2258.94" transform="matrix(0.648665,0,0,0.560617,-129.58,-188.265) matrix(1.54163,0,0,1.78375,2295.8,-813.486)" style="font-family:'Lato-Regular','Lato',sans-serif;font-size:24px;fill:#ecb32d">UseCases, Scenarios and Inter<tspan x="425.006 437.174" y="2258.94 2258.94">ac</tspan>tors</text></g></g><g id="App-Services-Info-Block2"><g transform="matrix(0.648665,0,0,0.560617,1935.26,-805.873) matrix(1.21272,4.25838e-17,-1.64255e-17,-0.957841,377.201,3204.22)"><rect width="797.552" height="203.404" x="1700.18" y="0" style="fill:#fcf4e3"/></g><g><text x="111.518" y="2186.94" transform="matrix(0.648665,0,0,0.560617,1935.26,-805.873) matrix(1.54163,0,0,1.78375,2295.8,-813.486)" style="font-family:'Lato-Regular','Lato',sans-serif;font-size:24px;fill:#ecb32d">Domain Service can ha<tspan x="347.222 359.198 371.774" y="2186.94 2186.94 2186.94">ve </tspan>as dependencies injected</text><text x="111.518" y="2222.94" transform="matrix(0.648665,0,0,0.560617,1935.26,-805.873) matrix(1.54163,0,0,1.78375,2295.8,-813.486)" style="font-family:'Lato-Regular','Lato',sans-serif;font-size:24px;fill:#ecb32d">speciﬁc repository<tspan x="302.702 307.79" y="2222.94 2222.94">, </tspan>Scenario, UseCase or inter<tspan x="587.942 600.11" y="2222.94 2222.94">ac</tspan>tor</text></g></g><g id="App-Services-Info-Block3"><g transform="matrix(0.648665,0,0,0.560617,1995.43,1665.5) matrix(1.21272,-4.3277e-17,5.09173e-17,-1.5941,377.201,3333.64)"><rect width="797.552" height="203.404" x="1700.18" y="0" style="fill:#fcf4e3"/></g><g><text x="111.518" y="2186.94" transform="matrix(0.648665,0,0,0.560617,1995.43,1665.5) matrix(1.54163,0,0,1.78375,2295.8,-813.486)" style="font-family:'Lato-Regular','Lato',sans-serif;font-size:24px;fill:#ecb32d">Domain la<tspan x="216.854 228.83 241.406" y="2186.94 2186.94 2186.94">yer</tspan> deﬁnes deﬁnition of repository ( interface</text><text x="111.518" y="2222.94" transform="matrix(0.648665,0,0,0.560617,1995.43,1665.5) matrix(1.54163,0,0,1.78375,2295.8,-813.486)" style="font-family:'Lato-Regular','Lato',sans-serif;font-size:24px;fill:#ecb32d">and it&apos;s methods ). Dependency injection then injects</text><text x="111.518" y="2258.94" transform="matrix(0.648665,0,0,0.560617,1995.43,1665.5) matrix(1.54163,0,0,1.78375,2295.8,-813.486)" style="font-family:'Lato-Regular','Lato',sans-serif;font-size:24px;fill:#ecb32d">speciﬁc implementation of it from Infr<tspan x="504.854 517.022" y="2258.94 2258.94">as</tspan>tructure la<tspan x="637.718 649.694 662.27 670.358 675.446" y="2258.94 2258.94 2258.94 2258.94 2258.94">yer. </tspan>In</text><text x="111.518" y="2294.94" transform="matrix(0.648665,0,0,0.560617,1995.43,1665.5) matrix(1.54163,0,0,1.78375,2295.8,-813.486)" style="font-family:'Lato-Regular','Lato',sans-serif;font-size:24px;fill:#ecb32d">that case Domain is una<tspan x="357.83 376.214" y="2294.94 2294.94">wa</tspan>re of it&apos;s implementation</text></g></g><g id="App-Services-Info-Block4"><g transform="matrix(0.648665,0,0,0.560617,2391.17,738.893) matrix(1.21272,1.7475e-18,1.56035e-17,-1.26045,377.201,3265.78)"><rect width="797.552" height="203.404" x="1700.18" y="0" style="fill:#fcf4e3"/></g><g><text x="111.518" y="2186.94" transform="matrix(0.648665,0,0,0.560617,2391.17,738.893) matrix(1.54163,0,0,1.78375,2295.8,-813.486)" style="font-family:'Lato-Regular','Lato',sans-serif;font-size:24px;fill:#ecb32d">Repository returns tr<tspan x="332.366 344.534" y="2186.94 2186.94">an</tspan>slated to Domain model. In that</text><text x="111.518" y="2222.94" transform="matrix(0.648665,0,0,0.560617,2391.17,738.893) matrix(1.54163,0,0,1.78375,2295.8,-813.486)" style="font-family:'Lato-Regular','Lato',sans-serif;font-size:24px;fill:#ecb32d">case we ha<tspan x="223.238 235.214 247.79" y="2222.94 2222.94 2222.94">ve </tspan>mapping from an<tspan x="427.742 440.03" y="2222.94 2222.94">y </tspan>data source to Domain</text><text x="111.518" y="2258.94" transform="matrix(0.648665,0,0,0.560617,2391.17,738.893) matrix(1.54163,0,0,1.78375,2295.8,-813.486)" style="font-family:'Lato-Regular','Lato',sans-serif;font-size:24px;fill:#ecb32d">structure..</text></g></g><g id="App-Services-Info-Block5"><g transform="matrix(0.648665,0,0,0.560617,184.118,822.569) matrix(1.21272,1.7475e-18,1.56035e-17,-1.26045,377.201,3265.78)"><rect width="797.552" height="203.404" x="1700.18" y="0" style="fill:#fcf4e3"/></g><g><text x="111.518" y="2186.94" transform="matrix(0.648665,0,0,0.560617,184.118,822.569) matrix(1.54163,0,0,1.78375,2295.8,-813.486)" style="font-family:'Lato-Regular','Lato',sans-serif;font-size:24px;fill:#ecb32d">Repository returns tr<tspan x="332.366 344.534" y="2186.94 2186.94">an</tspan>slated to Domain model. In that</text><text x="111.518" y="2222.94" transform="matrix(0.648665,0,0,0.560617,184.118,822.569) matrix(1.54163,0,0,1.78375,2295.8,-813.486)" style="font-family:'Lato-Regular','Lato',sans-serif;font-size:24px;fill:#ecb32d">case we ha<tspan x="223.238 235.214 247.79" y="2222.94 2222.94 2222.94">ve </tspan>mapping from an<tspan x="427.742 440.03" y="2222.94 2222.94">y </tspan>data source to Domain</text><text x="111.518" y="2258.94" transform="matrix(0.648665,0,0,0.560617,184.118,822.569) matrix(1.54163,0,0,1.78375,2295.8,-813.486)" style="font-family:'Lato-Regular','Lato',sans-serif;font-size:24px;fill:#ecb32d">structure..</text></g></g><g id="App-Services-Info-Block6"><g transform="matrix(0.648665,0,0,0.560617,1584.11,-241.108) matrix(1.21272,1.7475e-18,1.56035e-17,-1.26045,377.201,3265.78)"><rect width="797.552" height="203.404" x="1700.18" y="0" style="fill:#fcf4e3"/></g><g><text x="111.518" y="2186.94" transform="matrix(0.648665,0,0,0.560617,1584.11,-241.108) matrix(1.54163,0,0,1.78375,2295.8,-813.486)" style="font-family:'Lato-Regular','Lato',sans-serif;font-size:24px;fill:#ecb32d">Scenario ma<tspan x="238.814 251.102" y="2186.94 2186.94">y </tspan>ha<tspan x="280.862 292.838 305.414" y="2186.94 2186.94 2186.94">ve </tspan>dependency on multiple UseCases</text><text x="111.518" y="2222.94" transform="matrix(0.648665,0,0,0.560617,1584.11,-241.108) matrix(1.54163,0,0,1.78375,2295.8,-813.486)" style="font-family:'Lato-Regular','Lato',sans-serif;font-size:24px;fill:#ecb32d">and repositories, should contain speciﬁc reusable logic</text><text x="111.518" y="2258.94" transform="matrix(0.648665,0,0,0.560617,1584.11,-241.108) matrix(1.54163,0,0,1.78375,2295.8,-813.486)" style="font-family:'Lato-Regular','Lato',sans-serif;font-size:24px;fill:#ecb32d">based on UseCases or / and Repository results</text></g></g><g id="App-Services-Info-Block7"><g transform="matrix(0.648665,0,0,0.560617,1584.11,196.201) matrix(1.21272,1.7475e-18,1.56035e-17,-1.26045,377.201,3265.78)"><rect width="797.552" height="203.404" x="1700.18" y="0" style="fill:#fcf4e3"/></g><g><text x="111.518" y="2186.94" transform="matrix(0.648665,0,0,0.560617,1584.11,196.201) matrix(1.54163,0,0,1.78375,2295.8,-813.486)" style="font-family:'Lato-Regular','Lato',sans-serif;font-size:24px;fill:#ecb32d">Use Case ma<tspan x="244.382 256.67" y="2186.94 2186.94">y </tspan>ha<tspan x="286.43 298.406 310.982" y="2186.94 2186.94 2186.94">ve </tspan>dependency on multiple Inter<tspan x="621.902 634.07" y="2186.94 2186.94">ac</tspan>tors</text><text x="111.518" y="2222.94" transform="matrix(0.648665,0,0,0.560617,1584.11,196.201) matrix(1.54163,0,0,1.78375,2295.8,-813.486)" style="font-family:'Lato-Regular','Lato',sans-serif;font-size:24px;fill:#ecb32d">and repositories, should contain speciﬁc reusable logic</text><text x="111.518" y="2258.94" transform="matrix(0.648665,0,0,0.560617,1584.11,196.201) matrix(1.54163,0,0,1.78375,2295.8,-813.486)" style="font-family:'Lato-Regular','Lato',sans-serif;font-size:24px;fill:#ecb32d">based on Inter<tspan x="260.918 273.086" y="2258.94 2258.94">ac</tspan>tors or / and Repository results</text></g></g><g id="App-Services-Info-Block8"><g transform="matrix(0.648665,0,0,0.560617,1589.56,633.971) matrix(1.21272,1.7475e-18,1.56035e-17,-1.26045,377.201,3265.78)"><rect width="797.552" height="203.404" x="1700.18" y="0" style="fill:#fcf4e3"/></g><g><text x="111.518" y="2186.94" transform="matrix(0.648665,0,0,0.560617,1589.56,633.971) matrix(1.54163,0,0,1.78375,2295.8,-813.486)" style="font-family:'Lato-Regular','Lato',sans-serif;font-size:24px;fill:#ecb32d">Inter<tspan x="162.974 175.142" y="2186.94 2186.94">ac</tspan>tor ma<tspan x="254.438 266.726" y="2186.94 2186.94">y </tspan>ha<tspan x="296.486 308.462 321.038" y="2186.94 2186.94 2186.94">ve </tspan>dependency on multiple</text><text x="111.518" y="2222.94" transform="matrix(0.648665,0,0,0.560617,1589.56,633.971) matrix(1.54163,0,0,1.78375,2295.8,-813.486)" style="font-family:'Lato-Regular','Lato',sans-serif;font-size:24px;fill:#ecb32d">repositories, should contain speciﬁc reusable logic based</text><text x="111.518" y="2258.94" transform="matrix(0.648665,0,0,0.560617,1589.56,633.971) matrix(1.54163,0,0,1.78375,2295.8,-813.486)" style="font-family:'Lato-Regular','Lato',sans-serif;font-size:24px;fill:#ecb32d">on Repositories results</text></g></g><g id="App-Services-Info-Block9"><g transform="matrix(0.497347,0,0,0.560617,3696.34,1020.62) matrix(1.21272,-8.99232e-18,7.81342e-18,-1.28185,377.201,3270.13)"><rect width="797.552" height="203.404" x="1700.18" y="0" style="fill:#f9eefc"/></g><g><text x="111.518" y="2186.94" transform="matrix(0.497347,0,0,0.560617,3696.34,1020.62) matrix(2.01067,0,0,1.78375,2243.49,-828.264)" style="font-family:'Lato-Regular','Lato',sans-serif;font-size:24px;fill:#d37df0">Implementation of Repository method can</text><text x="111.518" y="2223.89" transform="matrix(0.497347,0,0,0.560617,3696.34,1020.62) matrix(2.01067,0,0,1.78375,2243.49,-828.264)" style="font-family:'Lato-Regular','Lato',sans-serif;font-size:24px;fill:#d37df0">be found in Infr<tspan x="270.446 282.614" y="2223.89 2223.89">as</tspan>tructure La<tspan x="409.502 421.478 434.054 442.142 447.23" y="2223.89 2223.89 2223.89 2223.89 2223.89">yer. </tspan>Domain</text><text x="111.518" y="2260.84" transform="matrix(0.497347,0,0,0.560617,3696.34,1020.62) matrix(2.01067,0,0,1.78375,2243.49,-828.264)" style="font-family:'Lato-Regular','Lato',sans-serif;font-size:24px;fill:#d37df0">Do not see UI neither Infr<tspan x="376.814 388.982" y="2260.84 2260.84">as</tspan>tructure</text></g></g></g><g id="DI-"><g><g transform="matrix(1,0,0,1,-5.68434e-14,5.18545) matrix(1.14226,0,0,1.09726,-421.633,-374.117)"><rect width="5266.18" height="106.634" x="369.121" y="3793.37" style="fill:#e1e8f4"/></g><g><text x="2856" y="73.742" transform="matrix(1,0,0,1,-5.68434e-14,5.18545) matrix(1,0,0,1,-138.29,3793.37)" style="font-family:'Lato-Bold','Lato',sans-serif;font-weight:700;font-size:48px;fill:#48669d">DEPENDENCY INJECTION</text></g></g><g><g transform="matrix(1,0,0,1,-5.68434e-14,5.18545) matrix(1.06744,0,0,1.04863,-389.29,-5.18545) matrix(1.07009,0,0,1,-30.2996,-3793.37)"><rect width="5266.18" height="106.634" x="369.121" y="3793.37" style="fill:#e1e8f4"/></g><g><text x="2877.9" y="73.742" transform="matrix(1,0,0,1,-5.68434e-14,5.18545) matrix(1.06744,0,0,1.04863,-389.29,-5.18545) matrix(0.93682,0,0,0.953627,214.628,-3.36075e-12)" style="font-family:'Lato-Bold','Lato',sans-serif;font-weight:700;font-size:48px;fill:#48669d">DEPENDENCY INJECTION</text></g></g></g></g></svg>