<svg xmlns="http://www.w3.org/2000/svg" xmlns:xlink="http://www.w3.org/1999/xlink" width="100%" height="100%" version="1.1" viewBox="0 0 34764 16294" xml:space="preserve" style="fill-rule:evenodd;clip-rule:evenodd;stroke-linecap:square;stroke-linejoin:round;stroke-miterlimit:1.5"><g transform="matrix(4.16667,0,0,4.16667,0,0)"><g id="Initial-Phase"><g transform="matrix(0.723857,0,0,1.81036,0,6.21725e-15)"><g id="Data-Flow-Chart"><rect id="User-Interface" width="1920" height="2160" x="0" y="0" style="fill:#fbfcfd"/></g></g><g><g><g><text x="1088.94" y="696.582" transform="matrix(1,-1.76473e-18,-1.8171e-18,1,-598.514,3000.8)" style="font-family:'Lato-Bold','Lato',sans-serif;font-weight:700;font-size:64px;fill:#1280e7;fill-opacity:.5">INITIAL PHASE</text></g><g><g><g transform="matrix(0.522667,0,0,0.538178,-231.941,-237.678) matrix(0.708245,0,0,0.430445,467.078,1871.2)"><rect width="315.768" height="3279.21" x="654.082" y="263.503" style="fill:#f2f8fe;stroke:#9cc1f3;stroke-width:10.8px"/></g><g><text x="1173.93" y="696.582" transform="matrix(0.522667,0,0,0.538178,-231.941,-237.678) matrix(1.13777e-16,-1.85812,1.91326,1.17154e-16,-245.106,5124.8)" style="font-family:'Lato-Bold','Lato',sans-serif;font-weight:700;font-size:64px;fill:#1280e7;fill-opacity:.5">DOMAIN</text></g></g><g><g transform="matrix(0.522667,0,0,0.538178,-231.941,560.664) matrix(0.708245,0,0,0.430445,467.078,1871.2)"><rect width="315.768" height="3279.21" x="654.082" y="263.503" style="fill:#f2f8fe;stroke:#9cc1f3;stroke-width:10.8px"/></g><g><text x="1173.93" y="696.582" transform="matrix(0.522667,0,0,0.538178,-231.941,560.664) matrix(1.13777e-16,-1.85812,1.91326,1.17154e-16,-245.106,5124.8)" style="font-family:'Lato-Bold','Lato',sans-serif;font-weight:700;font-size:64px;fill:#1280e7;fill-opacity:.5">DOMAIN</text></g></g><g><g transform="matrix(0.522667,0,0,0.538178,-231.941,1359.01) matrix(0.708245,0,0,0.430445,467.078,1871.2)"><rect width="315.768" height="3279.21" x="654.082" y="263.503" style="fill:#f2f8fe;stroke:#9cc1f3;stroke-width:10.8px"/></g><g><text x="1173.93" y="696.582" transform="matrix(0.522667,0,0,0.538178,-231.941,1359.01) matrix(1.13777e-16,-1.85812,1.91326,1.17154e-16,-245.106,5124.8)" style="font-family:'Lato-Bold','Lato',sans-serif;font-weight:700;font-size:64px;fill:#1280e7;fill-opacity:.5">DOMAIN</text></g></g><g><g transform="matrix(0.558534,0,0,0.597839,-1125.47,763.641) matrix(3.12273,0,0,1.01071,727.05,44.0714)"><rect width="315.768" height="3279.21" x="654.082" y="263.503" style="fill:#fefbf4;stroke:#ee5168;stroke-width:2.55px;stroke-dasharray:12.77,12.77,0,0"/></g><g><g transform="matrix(0.558534,0,0,0.597839,-1125.47,763.641) matrix(1,0,0,1.54181,114.664,-100.91)"><rect width="167.565" height="437.825" x="3380.26" y="392.249" style="fill:#fce3c9;stroke:#ee5168;stroke-width:4.37px"/></g><g><text x="2250.25" y="188.924" transform="matrix(0.558534,0,0,0.597839,-1125.47,763.641) matrix(5.20003e-17,-2.00723,2.14848,3.10946e-16,3199.41,5626.34)" style="font-family:'Lato-Bold','Lato',sans-serif;font-weight:700;font-size:33.333px;fill:#f69739;fill-opacity:.5">DOMAIN MODEL</text></g></g><g><g transform="matrix(0.558534,0,0,0.597839,-1125.47,763.641) matrix(1,0,0,1,0,736.477) matrix(1,0,0,1.54181,114.664,-100.91)"><rect width="167.565" height="437.825" x="3380.26" y="392.249" style="fill:#fce3c9;stroke:#ee5168;stroke-width:4.37px"/></g><g><text x="2250.25" y="188.924" transform="matrix(0.558534,0,0,0.597839,-1125.47,763.641) matrix(1,0,0,1,0,736.477) matrix(5.20003e-17,-2.00723,2.14848,3.10946e-16,3199.41,5626.34)" style="font-family:'Lato-Bold','Lato',sans-serif;font-weight:700;font-size:33.333px;fill:#f69739;fill-opacity:.5">DOMAIN MODEL</text></g></g><g><g transform="matrix(0.558534,0,0,0.597839,-1125.47,763.641) matrix(1,0,0,1,0,1480.7) matrix(1,0,0,1.54181,114.664,-100.91)"><rect width="167.565" height="437.825" x="3380.26" y="392.249" style="fill:#fce3c9;stroke:#ee5168;stroke-width:4.37px"/></g><g><text x="2250.25" y="188.924" transform="matrix(0.558534,0,0,0.597839,-1125.47,763.641) matrix(1,0,0,1,0,1480.7) matrix(5.20003e-17,-2.00723,2.14848,3.10946e-16,3199.41,5626.34)" style="font-family:'Lato-Bold','Lato',sans-serif;font-weight:700;font-size:33.333px;fill:#f69739;fill-opacity:.5">DOMAIN MODEL</text></g></g><g><g transform="matrix(0.558534,0,0,0.597839,-1125.47,763.641) matrix(1,0,0,1,3.89207,2217.18) matrix(1,0,0,1.54181,114.664,-100.91)"><rect width="167.565" height="437.825" x="3380.26" y="392.249" style="fill:#fce3c9;stroke:#ee5168;stroke-width:4.37px"/></g><g><text x="2250.25" y="188.924" transform="matrix(0.558534,0,0,0.597839,-1125.47,763.641) matrix(1,0,0,1,3.89207,2217.18) matrix(5.20003e-17,-2.00723,2.14848,3.10946e-16,3199.41,5626.34)" style="font-family:'Lato-Bold','Lato',sans-serif;font-weight:700;font-size:33.333px;fill:#f69739;fill-opacity:.5">DOMAIN MODEL</text></g></g><g><g transform="matrix(0.558534,0,0,0.597839,-1125.47,763.641) matrix(1,0,0,1,2247.01,0) matrix(0.708245,0,0,0.430445,467.078,390.438)"><rect width="315.768" height="3279.21" x="654.082" y="263.503" style="fill:#fbf1e8;stroke:#ee5168;stroke-width:9.99px"/></g><g><text x="1010.55" y="690.183" transform="matrix(0.558534,0,0,0.597839,-1125.47,763.641) matrix(1,0,0,1,2247.01,0) matrix(1.22907e-16,-2.00723,2.14848,1.31556e-16,-389.613,3782.76)" style="font-family:'Lato-Bold','Lato',sans-serif;font-weight:700;font-size:64px;fill:#f4d9c4">DOMAIN SERVICE</text></g></g><g><g transform="matrix(0.558534,0,0,0.597839,-1125.47,763.641) matrix(1,0,0,1,2247.01,1480.7) matrix(0.708245,0,0,0.430445,467.078,390.438)"><rect width="315.768" height="3279.21" x="654.082" y="263.503" style="fill:#fbf1e8;stroke:#ee5168;stroke-width:9.99px"/></g><g><text x="1010.55" y="690.183" transform="matrix(0.558534,0,0,0.597839,-1125.47,763.641) matrix(1,0,0,1,2247.01,1480.7) matrix(1.22907e-16,-2.00723,2.14848,1.31556e-16,-389.613,3782.76)" style="font-family:'Lato-Bold','Lato',sans-serif;font-weight:700;font-size:64px;fill:#f4d9c4">DOMAIN SERVICE</text></g></g><g><g transform="matrix(0.558534,0,0,0.597839,-1125.47,763.641) matrix(1,0,0,2.04901,1929.92,-528.557) matrix(0.708245,0,0,0.430445,467.078,390.438)"><rect width="315.768" height="3279.21" x="654.082" y="263.503" style="fill:#fdf9ed;stroke:#ee5168;stroke-width:7.15px"/></g><g><text x="3021.86" y="1029.45" transform="matrix(0.558534,0,0,0.597839,-1125.47,763.641) matrix(1,0,0,2.04901,1929.92,-528.557) matrix(1.20648e-16,-0.979609,2.14848,1.08395e-16,-1112.86,4545.56)" style="font-family:'Lato-Bold','Lato',sans-serif;font-weight:700;font-size:71.111px;fill:#efc051;fill-opacity:.3">APPLICA<tspan x="3313.27 3355.58" y="1029.45 1029.45">TI</tspan>ON SERVICE</text></g></g></g><g><g transform="matrix(0.523486,0,0,0.538178,-1327.51,559.233) matrix(0.708245,0,0,0.430445,4025.44,390.438)"><rect width="315.768" height="3279.21" x="654.082" y="263.503" style="fill:#fbf2fe;stroke:#d282d3;stroke-width:10.78px"/></g><g><text x="1055.08" y="696.673" transform="matrix(0.523486,0,0,0.538178,-1327.51,559.233) matrix(1.13777e-16,1.85812,-1.91027,1.1697e-16,5885.93,-1224.8)" style="font-family:'Lato-Bold','Lato',sans-serif;font-weight:700;font-size:64px;fill:#bb20ee;fill-opacity:.3">FUNCTIONALITY</text></g></g><g><g transform="matrix(0.523486,0,0,0.538178,-1327.51,1357.57) matrix(0.708245,0,0,0.430445,4025.44,390.438)"><rect width="315.768" height="3279.21" x="654.082" y="263.503" style="fill:#fbf2fe;stroke:#d282d3;stroke-width:10.78px"/></g><g><text x="1055.08" y="696.673" transform="matrix(0.523486,0,0,0.538178,-1327.51,1357.57) matrix(1.13777e-16,1.85812,-1.91027,1.1697e-16,5885.93,-1224.8)" style="font-family:'Lato-Bold','Lato',sans-serif;font-weight:700;font-size:64px;fill:#bb20ee;fill-opacity:.3">FUNCTIONALITY</text></g></g><g><g transform="matrix(0.523486,0,0,0.538178,-1327.51,2155.92) matrix(0.708245,0,0,0.430445,4025.44,390.438)"><rect width="315.768" height="3279.21" x="654.082" y="263.503" style="fill:#fbf2fe;stroke:#d282d3;stroke-width:10.78px"/></g><g><text x="1055.08" y="696.673" transform="matrix(0.523486,0,0,0.538178,-1327.51,2155.92) matrix(1.13777e-16,1.85812,-1.91027,1.1697e-16,5885.93,-1224.8)" style="font-family:'Lato-Bold','Lato',sans-serif;font-weight:700;font-size:64px;fill:#bb20ee;fill-opacity:.3">FUNCTIONALITY</text></g></g></g></g><g id="Infra-Info-Block"><g transform="matrix(1.54697,0,0,0.534608,-4067.51,-1518.55) matrix(1.00765,-2.79196e-17,1.66783e-17,-1.17242,963.545,3247.87)"><rect width="797.552" height="203.404" x="1700.18" y="0" style="fill:#f0f7fd"/></g><g><text x="111.518" y="2208.86" transform="matrix(1.54697,0,0,0.534608,-4067.51,-1518.55) matrix(0.646426,0,0,1.87053,2614.81,-1048.27)" style="font-family:'Lato-Regular','Lato',sans-serif;font-size:21.333px;fill:#7dbaf1">In initial phase focus on la<tspan x="347.678 358.323 369.502" y="2208.86 2208.86 2208.86">yer</tspan>s separ<tspan x="442.697 453.513" y="2208.86 2208.86">at</tspan>ion and introducing Onion Architecture - UI La<tspan x="889.907 900.553 911.731 918.921 923.443" y="2208.86 2208.86 2208.86 2208.86 2208.86">yer, </tspan>Core La<tspan x="999.369 1010.01 1021.19 1028.38 1032.9" y="2208.86 2208.86 2208.86 2208.86 2208.86">yer, </tspan>Infr<tspan x="1070.81 1081.63" y="2208.86 2208.86">as</tspan>tructure la<tspan x="1188.91 1199.56 1210.74 1217.93 1222.45" y="2208.86 2208.86 2208.86 2208.86 2208.86">yer. </tspan>Apply</text><text x="111.518" y="2240.86" transform="matrix(1.54697,0,0,0.534608,-4067.51,-1518.55) matrix(0.646426,0,0,1.87053,2614.81,-1048.27)" style="font-family:'Lato-Regular','Lato',sans-serif;font-size:21.333px;fill:#7dbaf1">speciﬁc grouping model for e<tspan x="377.459 388.105 399.283" y="2240.86 2240.86 2240.86">ver</tspan>y la<tspan x="438.857 449.502 460.681" y="2240.86 2240.86 2240.86">yer</tspan> ( Domains, Application Services etc ). In the beginning of the project y<tspan x="1109.62 1121.48" y="2240.86 2240.86">ou</tspan> won<tspan x="1176.76 1181.66" y="2240.86 2240.86">&apos;t</tspan> notice</text><text x="111.518" y="2272.86" transform="matrix(1.54697,0,0,0.534608,-4067.51,-1518.55) matrix(0.646426,0,0,1.87053,2614.81,-1048.27)" style="font-family:'Lato-Regular','Lato',sans-serif;font-size:21.333px;fill:#7dbaf1">problems with scale. When project will e<tspan x="483.635 494.281 506.142 511.603 522.249 533.427" y="2272.86 2272.86 2272.86 2272.86 2272.86 2272.86">volve </tspan>and y<tspan x="586.91 598.771" y="2272.86 2272.86">ou</tspan> see that splitting code into domains is not enough mo<tspan x="1103.9 1114.55 1125.73" y="2272.86 2272.86 2272.86">ve </tspan>to ne<tspan x="1176.18 1186.93" y="2272.86 2272.86">xt</tspan> phase.</text></g></g></g></g><g id="Bounded-Context-Phase"><g transform="matrix(4.40133,0,0,1.19247,-1489.02,-314.221)"><rect width="315.768" height="3279.21" x="654.082" y="263.503" style="fill:#f2f8fe;stroke:#9cc1f3;stroke-width:1.03px;stroke-dasharray:5.17,5.17,0,0"/></g><g><g><g><g><g><g transform="matrix(0.469314,0,0,0.710952,316.478,609.723) matrix(2.25538,0,0,1.01071,2933.04,44.0714)"><rect width="315.768" height="3279.21" x="654.082" y="263.503" style="fill:#fdeafb;stroke:#d282d3;stroke-width:3.68px;stroke-dasharray:18.42,18.42,0,0"/></g><g><text x="1274.37" y="833.99" transform="matrix(0.469314,0,0,0.710952,316.478,609.723) matrix(8.61272e-17,1.40656,-2.13077,1.30472e-16,6617.44,-612.856)" style="font-family:'Lato-Bold','Lato',sans-serif;font-weight:700;font-size:96px;fill:#d5a6d0;fill-opacity:.5">FUNCTIONALITY GR<tspan x="2188.1 2264.85" y="833.99 833.99">OU</tspan>P</text></g></g><g><g transform="matrix(0.469314,0,0,0.710952,316.478,609.723) matrix(1.0189,0,0,0.585807,-85.7301,497.59) matrix(0.708245,0,0,0.430445,4025.44,390.438)"><rect width="315.768" height="3279.21" x="654.082" y="263.503" style="fill:#fbf2fe;stroke:#d282d3;stroke-width:12.3px"/></g><g><text x="969.192" y="691.608" transform="matrix(0.469314,0,0,0.710952,316.478,609.723) matrix(1.0189,0,0,0.585807,-85.7301,497.59) matrix(1.47023e-16,2.40107,-2.09124,1.28052e-16,5997.11,-1729.92)" style="font-family:'Lato-Bold','Lato',sans-serif;font-weight:700;font-size:64px;fill:#bb20ee;fill-opacity:.3">FUNCTIONALITY</text></g></g><g><g transform="matrix(0.469314,0,0,0.710952,316.478,609.723) matrix(1.0189,0,0,0.585807,-85.7301,1366.59) matrix(0.708245,0,0,0.430445,4025.44,390.438)"><rect width="315.768" height="3279.21" x="654.082" y="263.503" style="fill:#fbf2fe;stroke:#d282d3;stroke-width:12.3px"/></g><g><text x="969.192" y="691.608" transform="matrix(0.469314,0,0,0.710952,316.478,609.723) matrix(1.0189,0,0,0.585807,-85.7301,1366.59) matrix(1.47023e-16,2.40107,-2.09124,1.28052e-16,5997.11,-1729.92)" style="font-family:'Lato-Bold','Lato',sans-serif;font-weight:700;font-size:64px;fill:#bb20ee;fill-opacity:.3">FUNCTIONALITY</text></g></g><g><g transform="matrix(0.469314,0,0,0.710952,316.478,609.723) matrix(1.0189,0,0,0.585807,-85.7301,2235.58) matrix(0.708245,0,0,0.430445,4025.44,390.438)"><rect width="315.768" height="3279.21" x="654.082" y="263.503" style="fill:#fbf2fe;stroke:#d282d3;stroke-width:12.3px"/></g><g><text x="969.192" y="691.608" transform="matrix(0.469314,0,0,0.710952,316.478,609.723) matrix(1.0189,0,0,0.585807,-85.7301,2235.58) matrix(1.47023e-16,2.40107,-2.09124,1.28052e-16,5997.11,-1729.92)" style="font-family:'Lato-Bold','Lato',sans-serif;font-weight:700;font-size:64px;fill:#bb20ee;fill-opacity:.3">FUNCTIONALITY</text></g></g></g><g><g><g transform="matrix(0.447714,0,0,0.710952,903.684,633.041) matrix(1,0,0,1,697.638,-32.7985) matrix(2.25538,0,0,1.01071,-952.955,44.0714)"><rect width="315.768" height="3279.21" x="654.082" y="263.503" style="fill:#f3f2fe;stroke:#525a6c;stroke-width:3.8px;stroke-dasharray:19.02,19.02,0,0"/></g><g><text x="1361.13" y="829.583" transform="matrix(0.447714,0,0,0.710952,903.684,633.041) matrix(1,0,0,1,697.638,-32.7985) matrix(8.61272e-17,-1.40656,2.23357,1.36767e-16,-1046.98,4547.98)" style="font-family:'Lato-Bold','Lato',sans-serif;font-weight:700;font-size:96px;fill:#48669d;fill-opacity:.5">BOUNDED CONTEXT</text></g></g><g><g transform="matrix(0.447714,0,0,0.710952,903.684,633.041) matrix(1.06639,0,0,0.585807,618.572,-402.646) matrix(0.708245,0,0,0.430445,467.078,1871.2)"><rect width="315.768" height="3279.21" x="654.082" y="263.503" style="fill:#f2f8fe;stroke:#9cc1f3;stroke-width:12.32px"/></g><g><text x="1088.04" y="691.524" transform="matrix(0.447714,0,0,0.710952,903.684,633.041) matrix(1.06639,0,0,0.585807,618.572,-402.646) matrix(1.47023e-16,-2.40107,2.09452,1.28252e-16,-356.461,5629.92)" style="font-family:'Lato-Bold','Lato',sans-serif;font-weight:700;font-size:64px;fill:#1280e7;fill-opacity:.5">DOMAIN</text></g></g><g><g transform="matrix(0.447714,0,0,0.710952,903.684,633.041) matrix(1.06639,0,0,0.585807,618.572,466.349) matrix(0.708245,0,0,0.430445,467.078,1871.2)"><rect width="315.768" height="3279.21" x="654.082" y="263.503" style="fill:#f2f8fe;stroke:#9cc1f3;stroke-width:12.32px"/></g><g><text x="1088.04" y="691.524" transform="matrix(0.447714,0,0,0.710952,903.684,633.041) matrix(1.06639,0,0,0.585807,618.572,466.349) matrix(1.47023e-16,-2.40107,2.09452,1.28252e-16,-356.461,5629.92)" style="font-family:'Lato-Bold','Lato',sans-serif;font-weight:700;font-size:64px;fill:#1280e7;fill-opacity:.5">DOMAIN</text></g></g><g><g transform="matrix(0.447714,0,0,0.710952,903.684,633.041) matrix(1.06639,0,0,0.585807,618.572,1335.34) matrix(0.708245,0,0,0.430445,467.078,1871.2)"><rect width="315.768" height="3279.21" x="654.082" y="263.503" style="fill:#f2f8fe;stroke:#9cc1f3;stroke-width:12.32px"/></g><g><text x="1088.04" y="691.524" transform="matrix(0.447714,0,0,0.710952,903.684,633.041) matrix(1.06639,0,0,0.585807,618.572,1335.34) matrix(1.47023e-16,-2.40107,2.09452,1.28252e-16,-356.461,5629.92)" style="font-family:'Lato-Bold','Lato',sans-serif;font-weight:700;font-size:64px;fill:#1280e7;fill-opacity:.5">DOMAIN</text></g></g></g><g><g><g transform="matrix(0.5102,0,0,0.597839,412.66,763.641) matrix(3.12273,0,0,1.01071,727.05,44.0714)"><rect width="315.768" height="3279.21" x="654.082" y="263.503" style="fill:#fefbf4;stroke:#ee5168;stroke-width:2.77px;stroke-dasharray:13.83,13.83,0,0"/></g><g><g transform="matrix(0.5102,0,0,0.597839,412.66,763.641) matrix(1,0,0,1.54181,114.664,-100.91)"><rect width="167.565" height="437.825" x="3380.26" y="392.249" style="fill:#fce3c9;stroke:#ee5168;stroke-width:4.47px"/></g><g><text x="2250.25" y="185.549" transform="matrix(0.5102,0,0,0.597839,412.66,763.641) matrix(5.20003e-17,-2.00723,2.35202,3.40404e-16,3171.42,5626.34)" style="font-family:'Lato-Bold','Lato',sans-serif;font-weight:700;font-size:33.333px;fill:#f69739;fill-opacity:.5">DOMAIN MODEL</text></g></g><g><g transform="matrix(0.5102,0,0,0.597839,412.66,763.641) matrix(1,0,0,1,0,736.477) matrix(1,0,0,1.54181,114.664,-100.91)"><rect width="167.565" height="437.825" x="3380.26" y="392.249" style="fill:#fce3c9;stroke:#ee5168;stroke-width:4.47px"/></g><g><text x="2250.25" y="185.549" transform="matrix(0.5102,0,0,0.597839,412.66,763.641) matrix(1,0,0,1,0,736.477) matrix(5.20003e-17,-2.00723,2.35202,3.40404e-16,3171.42,5626.34)" style="font-family:'Lato-Bold','Lato',sans-serif;font-weight:700;font-size:33.333px;fill:#f69739;fill-opacity:.5">DOMAIN MODEL</text></g></g><g><g transform="matrix(0.5102,0,0,0.597839,412.66,763.641) matrix(1,0,0,1,0,1480.7) matrix(1,0,0,1.54181,114.664,-100.91)"><rect width="167.565" height="437.825" x="3380.26" y="392.249" style="fill:#fce3c9;stroke:#ee5168;stroke-width:4.47px"/></g><g><text x="2250.25" y="185.549" transform="matrix(0.5102,0,0,0.597839,412.66,763.641) matrix(1,0,0,1,0,1480.7) matrix(5.20003e-17,-2.00723,2.35202,3.40404e-16,3171.42,5626.34)" style="font-family:'Lato-Bold','Lato',sans-serif;font-weight:700;font-size:33.333px;fill:#f69739;fill-opacity:.5">DOMAIN MODEL</text></g></g><g><g transform="matrix(0.5102,0,0,0.597839,412.66,763.641) matrix(1,0,0,1,3.89207,2217.18) matrix(1,0,0,1.54181,114.664,-100.91)"><rect width="167.565" height="437.825" x="3380.26" y="392.249" style="fill:#fce3c9;stroke:#ee5168;stroke-width:4.47px"/></g><g><text x="2250.25" y="185.549" transform="matrix(0.5102,0,0,0.597839,412.66,763.641) matrix(1,0,0,1,3.89207,2217.18) matrix(5.20003e-17,-2.00723,2.35202,3.40404e-16,3171.42,5626.34)" style="font-family:'Lato-Bold','Lato',sans-serif;font-weight:700;font-size:33.333px;fill:#f69739;fill-opacity:.5">DOMAIN MODEL</text></g></g><g><g transform="matrix(0.5102,0,0,0.597839,412.66,763.641) matrix(1,0,0,1,2247.01,0) matrix(0.708245,0,0,0.430445,467.078,390.438)"><rect width="315.768" height="3279.21" x="654.082" y="263.503" style="fill:#fbf1e8;stroke:#ee5168;stroke-width:10.63px"/></g><g><text x="1010.55" y="685.679" transform="matrix(0.5102,0,0,0.597839,412.66,763.641) matrix(1,0,0,1,2247.01,0) matrix(1.22907e-16,-2.00723,2.35202,1.4402e-16,-514.659,3782.76)" style="font-family:'Lato-Bold','Lato',sans-serif;font-weight:700;font-size:64px;fill:#f4d9c4">DOMAIN SERVICE</text></g></g><g><g transform="matrix(0.5102,0,0,0.597839,412.66,763.641) matrix(1,0,0,1,2247.01,1480.7) matrix(0.708245,0,0,0.430445,467.078,390.438)"><rect width="315.768" height="3279.21" x="654.082" y="263.503" style="fill:#fbf1e8;stroke:#ee5168;stroke-width:10.63px"/></g><g><text x="1010.55" y="685.679" transform="matrix(0.5102,0,0,0.597839,412.66,763.641) matrix(1,0,0,1,2247.01,1480.7) matrix(1.22907e-16,-2.00723,2.35202,1.4402e-16,-514.659,3782.76)" style="font-family:'Lato-Bold','Lato',sans-serif;font-weight:700;font-size:64px;fill:#f4d9c4">DOMAIN SERVICE</text></g></g><g><g transform="matrix(0.5102,0,0,0.597839,412.66,763.641) matrix(1,0,0,2.04901,1929.92,-528.557) matrix(0.708245,0,0,0.430445,467.078,390.438)"><rect width="315.768" height="3279.21" x="654.082" y="263.503" style="fill:#fdf9ed;stroke:#ee5168;stroke-width:7.37px"/></g><g><text x="3021.86" y="1024.95" transform="matrix(0.5102,0,0,0.597839,412.66,763.641) matrix(1,0,0,2.04901,1929.92,-528.557) matrix(1.20648e-16,-0.979609,2.35202,1.18664e-16,-1306.42,4545.56)" style="font-family:'Lato-Bold','Lato',sans-serif;font-weight:700;font-size:71.111px;fill:#efc051;fill-opacity:.3">APPLICA<tspan x="3313.27 3355.58" y="1024.95 1024.95">TI</tspan>ON SERVICE</text></g></g></g></g></g><g><text x="938.795" y="696.582" transform="matrix(1,-1.54923e-18,-2.06987e-18,1,721.719,3000.8)" style="font-family:'Lato-Bold','Lato',sans-serif;font-weight:700;font-size:64px;fill:#48669d;fill-opacity:.5">BOUNDED CONTEXT PHASE</text></g></g><g id="Infra-Info-Block1"><g transform="matrix(1.54697,0,0,0.534608,-2677.7,-1518.55) matrix(1.00765,-2.79196e-17,1.66783e-17,-1.17242,963.545,3247.87)"><rect width="797.552" height="203.404" x="1700.18" y="0" style="fill:#e7ebf5"/></g><g><text x="111.518" y="2208.86" transform="matrix(1.54697,0,0,0.534608,-2677.7,-1518.55) matrix(0.646426,0,0,1.87053,2614.81,-1048.27)" style="font-family:'Lato-Regular','Lato',sans-serif;font-size:21.333px;fill:#5f78b2">Ha<tspan x="138.121 149.043" y="2208.86 2208.86">vi</tspan>ng multiple domains after some time becomes problematic, but it&apos;s usually easy to group them into Bounded Conte<tspan x="1209.08 1219.83" y="2208.86 2208.86">xt</tspan>. Group</text><text x="111.518" y="2240.86" transform="matrix(1.54697,0,0,0.534608,-2677.7,-1518.55) matrix(0.646426,0,0,1.87053,2614.81,-1048.27)" style="font-family:'Lato-Regular','Lato',sans-serif;font-size:21.333px;fill:#5f78b2">y<tspan x="122.163 134.025" y="2240.86 2240.86">ou</tspan>r domains when y<tspan x="307.422 319.283" y="2240.86 2240.86">ou</tspan> notice that it&apos;s possible to wr<tspan x="600.841 611.657" y="2240.86 2240.86">ap</tspan> part of the codebase into groups. Same thing comes for speciﬁc</text><text x="111.518" y="2272.86" transform="matrix(1.54697,0,0,0.534608,-2677.7,-1518.55) matrix(0.646426,0,0,1.87053,2614.81,-1048.27)" style="font-family:'Lato-Regular','Lato',sans-serif;font-size:21.333px;fill:#5f78b2">functionalities.</text></g></g></g></g><g id="Bounded-Context-Growth-Phase"><g transform="matrix(4.40133,0,0,1.19247,-99.2242,-314.221)"><rect width="315.768" height="3279.21" x="654.082" y="263.503" style="fill:#f3f2fe"/></g><g><g id="Infra-Info-Block2"><g transform="matrix(1.54697,0,0,0.534608,-1287.4,-1518.55) matrix(1.00765,-2.79196e-17,1.66783e-17,-1.17242,963.545,3247.87)"><rect width="797.552" height="203.404" x="1700.18" y="0" style="fill:#e7ebf5"/></g><g><text x="111.518" y="2208.86" transform="matrix(1.54697,0,0,0.534608,-1287.4,-1518.55) matrix(0.646426,0,0,1.87053,2614.81,-1048.27)" style="font-family:'Lato-Regular','Lato',sans-serif;font-size:21.333px;fill:#5f78b2">Y<tspan x="123.23 135.091" y="2208.86 2208.86">ou</tspan> will notice that with progress of time, y<tspan x="508.873 520.734" y="2208.86 2208.86">ou</tspan>r project will e<tspan x="663.561 674.313" y="2208.86 2208.86">xp</tspan>and into multiple bounded conte<tspan x="985.694 996.446" y="2208.86 2208.86">xt</tspan>, functionality groups which in</text><text x="111.518" y="2240.86" transform="matrix(1.54697,0,0,0.534608,-1287.4,-1518.55) matrix(0.646426,0,0,1.87053,2614.81,-1048.27)" style="font-family:'Lato-Regular','Lato',sans-serif;font-size:21.333px;fill:#5f78b2">gener<tspan x="164.83 175.646" y="2240.86 2240.86">al</tspan> is right direction of growth. When y<tspan x="512.073 523.934" y="2240.86 2240.86">ou</tspan> notice that ha<tspan x="667.358 678.281" y="2240.86 2240.86">vi</tspan>ng bounded conte<tspan x="849.459 860.211" y="2240.86 2240.86">xt</tspan>s within one codebase is introducing</text><text x="111.518" y="2272.86" transform="matrix(1.54697,0,0,0.534608,-1287.4,-1518.55) matrix(0.646426,0,0,1.87053,2614.81,-1048.27)" style="font-family:'Lato-Regular','Lato',sans-serif;font-size:21.333px;fill:#5f78b2">maintenance problems mo<tspan x="356.894 367.539 378.718" y="2272.86 2272.86 2272.86">ve </tspan>to ne<tspan x="429.171 439.923" y="2272.86 2272.86">xt</tspan> phase.</text></g></g><g><g><g><g><g transform="matrix(0.902791,0,0,0.902791,337.754,187.347) matrix(0.513775,0,0,0.508133,1532.85,88.3403) matrix(2.25538,0,0,1.01071,2933.04,44.0714)"><rect width="315.768" height="3279.21" x="654.082" y="263.503" style="fill:#fdeafb;stroke:#d282d3;stroke-width:4.12px;stroke-dasharray:20.6,20.6,0,0"/></g><g><text x="856.41" y="832.872" transform="matrix(0.902791,0,0,0.902791,337.754,187.347) matrix(0.513775,0,0,0.508133,1532.85,88.3403) matrix(1.3348e-16,2.17989,-2.15596,1.32014e-16,6635.13,-1120.46)" style="font-family:'Lato-Bold','Lato',sans-serif;font-weight:700;font-size:96px;fill:#d5a6d0;fill-opacity:.5">FUNCTIONALITY GR<tspan x="1770.14 1846.89" y="832.872 832.872">OU</tspan>P</text></g></g><g><g transform="matrix(0.902791,0,0,0.902791,337.754,187.347) matrix(0.513775,0,0,0.508133,1532.85,88.3403) matrix(1.0189,0,0,0.585807,-85.7301,497.59) matrix(0.708245,0,0,0.430445,4025.44,390.438)"><rect width="315.768" height="3279.21" x="654.082" y="263.503" style="fill:#fbf2fe;stroke:#d282d3;stroke-width:13.31px"/></g><g><text x="960.568" y="682.067" transform="matrix(0.902791,0,0,0.902791,337.754,187.347) matrix(0.513775,0,0,0.508133,1532.85,88.3403) matrix(1.0189,0,0,0.585807,-85.7301,497.59) matrix(2.27857e-16,3.72118,-2.11596,1.29565e-16,6012.3,-2958.06)" style="font-family:'Lato-Bold','Lato',sans-serif;font-weight:700;font-size:40px;fill:#bb20ee;fill-opacity:.3">FUNCTIONALITY</text></g></g><g><g transform="matrix(0.902791,0,0,0.902791,337.754,187.347) matrix(0.513775,0,0,0.508133,1532.85,88.3403) matrix(1.0189,0,0,0.585807,-85.7301,1366.59) matrix(0.708245,0,0,0.430445,4025.44,390.438)"><rect width="315.768" height="3279.21" x="654.082" y="263.503" style="fill:#fbf2fe;stroke:#d282d3;stroke-width:13.31px"/></g><g><text x="960.568" y="682.067" transform="matrix(0.902791,0,0,0.902791,337.754,187.347) matrix(0.513775,0,0,0.508133,1532.85,88.3403) matrix(1.0189,0,0,0.585807,-85.7301,1366.59) matrix(2.27857e-16,3.72118,-2.11596,1.29565e-16,6012.3,-2958.06)" style="font-family:'Lato-Bold','Lato',sans-serif;font-weight:700;font-size:40px;fill:#bb20ee;fill-opacity:.3">FUNCTIONALITY</text></g></g><g><g transform="matrix(0.902791,0,0,0.902791,337.754,187.347) matrix(0.513775,0,0,0.508133,1532.85,88.3403) matrix(1.0189,0,0,0.585807,-85.7301,2235.58) matrix(0.708245,0,0,0.430445,4025.44,390.438)"><rect width="315.768" height="3279.21" x="654.082" y="263.503" style="fill:#fbf2fe;stroke:#d282d3;stroke-width:13.31px"/></g><g><text x="960.568" y="682.067" transform="matrix(0.902791,0,0,0.902791,337.754,187.347) matrix(0.513775,0,0,0.508133,1532.85,88.3403) matrix(1.0189,0,0,0.585807,-85.7301,2235.58) matrix(2.27857e-16,3.72118,-2.11596,1.29565e-16,6012.3,-2958.06)" style="font-family:'Lato-Bold','Lato',sans-serif;font-weight:700;font-size:40px;fill:#bb20ee;fill-opacity:.3">FUNCTIONALITY</text></g></g></g><g><g><g transform="matrix(0.902791,0,0,0.902791,337.754,187.347) matrix(0.490128,0,0,0.508133,2188.61,105.006) matrix(1,0,0,1,697.638,-32.7985) matrix(2.25538,0,0,1.01071,-952.955,44.0714)"><rect width="315.768" height="3279.21" x="654.082" y="263.503" style="fill:#f3f2fe;stroke:#525a6c;stroke-width:4.28px;stroke-dasharray:21.42,21.42,0,0"/></g><g><text x="943.17" y="828.516" transform="matrix(0.902791,0,0,0.902791,337.754,187.347) matrix(0.490128,0,0,0.508133,2188.61,105.006) matrix(1,0,0,1,697.638,-32.7985) matrix(1.3348e-16,-2.17989,2.25997,1.38383e-16,-1065.53,5055.58)" style="font-family:'Lato-Bold','Lato',sans-serif;font-weight:700;font-size:96px;fill:#48669d;fill-opacity:.5">BOUNDED CONTEXT</text></g></g><g><g transform="matrix(0.902791,0,0,0.902791,337.754,187.347) matrix(0.490128,0,0,0.508133,2188.61,105.006) matrix(1.06639,0,0,0.585807,618.572,-402.646) matrix(0.708245,0,0,0.430445,467.078,1871.2)"><rect width="315.768" height="3279.21" x="654.082" y="263.503" style="fill:#f2f8fe;stroke:#9cc1f3;stroke-width:13.33px"/></g><g><text x="1034.85" y="681.984" transform="matrix(0.902791,0,0,0.902791,337.754,187.347) matrix(0.490128,0,0,0.508133,2188.61,105.006) matrix(1.06639,0,0,0.585807,618.572,-402.646) matrix(2.27857e-16,-3.72118,2.11928,1.29768e-16,-371.672,6858.06)" style="font-family:'Lato-Bold','Lato',sans-serif;font-weight:700;font-size:40px;fill:#1280e7;fill-opacity:.5">DOMAIN</text></g></g><g><g transform="matrix(0.902791,0,0,0.902791,337.754,187.347) matrix(0.490128,0,0,0.508133,2188.61,105.006) matrix(1.06639,0,0,0.585807,618.572,466.349) matrix(0.708245,0,0,0.430445,467.078,1871.2)"><rect width="315.768" height="3279.21" x="654.082" y="263.503" style="fill:#f2f8fe;stroke:#9cc1f3;stroke-width:13.33px"/></g><g><text x="1034.85" y="681.984" transform="matrix(0.902791,0,0,0.902791,337.754,187.347) matrix(0.490128,0,0,0.508133,2188.61,105.006) matrix(1.06639,0,0,0.585807,618.572,466.349) matrix(2.27857e-16,-3.72118,2.11928,1.29768e-16,-371.672,6858.06)" style="font-family:'Lato-Bold','Lato',sans-serif;font-weight:700;font-size:40px;fill:#1280e7;fill-opacity:.5">DOMAIN</text></g></g><g><g transform="matrix(0.902791,0,0,0.902791,337.754,187.347) matrix(0.490128,0,0,0.508133,2188.61,105.006) matrix(1.06639,0,0,0.585807,618.572,1335.34) matrix(0.708245,0,0,0.430445,467.078,1871.2)"><rect width="315.768" height="3279.21" x="654.082" y="263.503" style="fill:#f2f8fe;stroke:#9cc1f3;stroke-width:13.33px"/></g><g><text x="1034.85" y="681.984" transform="matrix(0.902791,0,0,0.902791,337.754,187.347) matrix(0.490128,0,0,0.508133,2188.61,105.006) matrix(1.06639,0,0,0.585807,618.572,1335.34) matrix(2.27857e-16,-3.72118,2.11928,1.29768e-16,-371.672,6858.06)" style="font-family:'Lato-Bold','Lato',sans-serif;font-weight:700;font-size:40px;fill:#1280e7;fill-opacity:.5">DOMAIN</text></g></g></g><g><g><g transform="matrix(0.902791,0,0,0.902791,337.754,187.347) matrix(0.558534,0,0,0.508133,1644.06,88.3403) matrix(3.12273,0,0,1.01071,727.05,44.0714)"><rect width="315.768" height="3279.21" x="654.082" y="263.503" style="fill:#fefbf4;stroke:#ee5168;stroke-width:2.87px;stroke-dasharray:14.36,14.36,0,0"/></g><g><g transform="matrix(0.902791,0,0,0.902791,337.754,187.347) matrix(0.558534,0,0,0.508133,1644.06,88.3403) matrix(1,0,0,1.54181,114.664,-100.91)"><rect width="167.565" height="437.825" x="3380.26" y="392.249" style="fill:#fce3c9;stroke:#ee5168;stroke-width:5.43px"/></g><g><text x="2237.85" y="182.656" transform="matrix(0.902791,0,0,0.902791,337.754,187.347) matrix(0.558534,0,0,0.508133,1644.06,88.3403) matrix(6.7768e-17,-2.61587,2.37982,3.44427e-16,3167.59,6974.91)" style="font-family:'Lato-Bold','Lato',sans-serif;font-weight:700;font-size:26.667px;fill:#f69739;fill-opacity:.5">DOMAIN MODEL</text></g></g><g><g transform="matrix(0.902791,0,0,0.902791,337.754,187.347) matrix(0.558534,0,0,0.508133,1644.06,88.3403) matrix(1,0,0,1,0,736.477) matrix(1,0,0,1.54181,114.664,-100.91)"><rect width="167.565" height="437.825" x="3380.26" y="392.249" style="fill:#fce3c9;stroke:#ee5168;stroke-width:5.43px"/></g><g><text x="2237.85" y="182.656" transform="matrix(0.902791,0,0,0.902791,337.754,187.347) matrix(0.558534,0,0,0.508133,1644.06,88.3403) matrix(1,0,0,1,0,736.477) matrix(6.7768e-17,-2.61587,2.37982,3.44427e-16,3167.59,6974.91)" style="font-family:'Lato-Bold','Lato',sans-serif;font-weight:700;font-size:26.667px;fill:#f69739;fill-opacity:.5">DOMAIN MODEL</text></g></g><g><g transform="matrix(0.902791,0,0,0.902791,337.754,187.347) matrix(0.558534,0,0,0.508133,1644.06,88.3403) matrix(1,0,0,1,0,1480.7) matrix(1,0,0,1.54181,114.664,-100.91)"><rect width="167.565" height="437.825" x="3380.26" y="392.249" style="fill:#fce3c9;stroke:#ee5168;stroke-width:5.43px"/></g><g><text x="2237.85" y="182.656" transform="matrix(0.902791,0,0,0.902791,337.754,187.347) matrix(0.558534,0,0,0.508133,1644.06,88.3403) matrix(1,0,0,1,0,1480.7) matrix(6.7768e-17,-2.61587,2.37982,3.44427e-16,3167.59,6974.91)" style="font-family:'Lato-Bold','Lato',sans-serif;font-weight:700;font-size:26.667px;fill:#f69739;fill-opacity:.5">DOMAIN MODEL</text></g></g><g><g transform="matrix(0.902791,0,0,0.902791,337.754,187.347) matrix(0.558534,0,0,0.508133,1644.06,88.3403) matrix(1,0,0,1,3.89207,2217.18) matrix(1,0,0,1.54181,114.664,-100.91)"><rect width="167.565" height="437.825" x="3380.26" y="392.249" style="fill:#fce3c9;stroke:#ee5168;stroke-width:5.43px"/></g><g><text x="2237.85" y="182.656" transform="matrix(0.902791,0,0,0.902791,337.754,187.347) matrix(0.558534,0,0,0.508133,1644.06,88.3403) matrix(1,0,0,1,3.89207,2217.18) matrix(6.7768e-17,-2.61587,2.37982,3.44427e-16,3167.59,6974.91)" style="font-family:'Lato-Bold','Lato',sans-serif;font-weight:700;font-size:26.667px;fill:#f69739;fill-opacity:.5">DOMAIN MODEL</text></g></g><g><g transform="matrix(0.902791,0,0,0.902791,337.754,187.347) matrix(0.558534,0,0,0.508133,1644.06,88.3403) matrix(1,0,0,1,2247.01,0) matrix(0.708245,0,0,0.430445,467.078,390.438)"><rect width="315.768" height="3279.21" x="654.082" y="263.503" style="fill:#fbf1e8;stroke:#ee5168;stroke-width:11.55px"/></g><g><text x="973.967" y="681.161" transform="matrix(0.902791,0,0,0.902791,337.754,187.347) matrix(0.558534,0,0,0.508133,1644.06,88.3403) matrix(1,0,0,1,2247.01,0) matrix(1.60176e-16,-2.61587,2.37982,1.45722e-16,-531.74,4349)" style="font-family:'Lato-Bold','Lato',sans-serif;font-weight:700;font-size:53.333px;fill:#f4d9c4">DOMAIN SERVICE</text></g></g><g><g transform="matrix(0.902791,0,0,0.902791,337.754,187.347) matrix(0.558534,0,0,0.508133,1644.06,88.3403) matrix(1,0,0,1,2247.01,1480.7) matrix(0.708245,0,0,0.430445,467.078,390.438)"><rect width="315.768" height="3279.21" x="654.082" y="263.503" style="fill:#fbf1e8;stroke:#ee5168;stroke-width:11.55px"/></g><g><text x="973.967" y="681.161" transform="matrix(0.902791,0,0,0.902791,337.754,187.347) matrix(0.558534,0,0,0.508133,1644.06,88.3403) matrix(1,0,0,1,2247.01,1480.7) matrix(1.60176e-16,-2.61587,2.37982,1.45722e-16,-531.74,4349)" style="font-family:'Lato-Bold','Lato',sans-serif;font-weight:700;font-size:53.333px;fill:#f4d9c4">DOMAIN SERVICE</text></g></g><g><g transform="matrix(0.902791,0,0,0.902791,337.754,187.347) matrix(0.558534,0,0,0.508133,1644.06,88.3403) matrix(1,0,0,2.04901,1929.92,-528.557) matrix(0.708245,0,0,0.430445,467.078,390.438)"><rect width="315.768" height="3279.21" x="654.082" y="263.503" style="fill:#fdf9ed;stroke:#ee5168;stroke-width:8.74px"/></g><g><text x="2854.23" y="1024.39" transform="matrix(0.902791,0,0,0.902791,337.754,187.347) matrix(0.558534,0,0,0.508133,1644.06,88.3403) matrix(1,0,0,2.04901,1929.92,-528.557) matrix(1.57231e-16,-1.27665,2.37982,1.20067e-16,-1332.86,5343.09)" style="font-family:'Lato-Bold','Lato',sans-serif;font-weight:700;font-size:71.111px;fill:#efc051;fill-opacity:.3">APPLICA<tspan x="3145.64 3187.95" y="1024.39 1024.39">TI</tspan>ON SERVICE</text></g></g></g></g></g><g><g><g><g transform="matrix(0.902791,0,0,0.902791,337.754,1758.33) matrix(0.513775,0,0,0.508133,1532.85,88.3403) matrix(2.25538,0,0,1.01071,2933.04,44.0714)"><rect width="315.768" height="3279.21" x="654.082" y="263.503" style="fill:#fdeafb;stroke:#d282d3;stroke-width:4.12px;stroke-dasharray:20.6,20.6,0,0"/></g><g><text x="856.41" y="832.872" transform="matrix(0.902791,0,0,0.902791,337.754,1758.33) matrix(0.513775,0,0,0.508133,1532.85,88.3403) matrix(1.3348e-16,2.17989,-2.15596,1.32014e-16,6635.13,-1120.46)" style="font-family:'Lato-Bold','Lato',sans-serif;font-weight:700;font-size:96px;fill:#d5a6d0;fill-opacity:.5">FUNCTIONALITY GR<tspan x="1770.14 1846.89" y="832.872 832.872">OU</tspan>P</text></g></g><g><g transform="matrix(0.902791,0,0,0.902791,337.754,1758.33) matrix(0.513775,0,0,0.508133,1532.85,88.3403) matrix(1.0189,0,0,0.585807,-85.7301,497.59) matrix(0.708245,0,0,0.430445,4025.44,390.438)"><rect width="315.768" height="3279.21" x="654.082" y="263.503" style="fill:#fbf2fe;stroke:#d282d3;stroke-width:13.31px"/></g><g><text x="960.568" y="682.067" transform="matrix(0.902791,0,0,0.902791,337.754,1758.33) matrix(0.513775,0,0,0.508133,1532.85,88.3403) matrix(1.0189,0,0,0.585807,-85.7301,497.59) matrix(2.27857e-16,3.72118,-2.11596,1.29565e-16,6012.3,-2958.06)" style="font-family:'Lato-Bold','Lato',sans-serif;font-weight:700;font-size:40px;fill:#bb20ee;fill-opacity:.3">FUNCTIONALITY</text></g></g><g><g transform="matrix(0.902791,0,0,0.902791,337.754,1758.33) matrix(0.513775,0,0,0.508133,1532.85,88.3403) matrix(1.0189,0,0,0.585807,-85.7301,1366.59) matrix(0.708245,0,0,0.430445,4025.44,390.438)"><rect width="315.768" height="3279.21" x="654.082" y="263.503" style="fill:#fbf2fe;stroke:#d282d3;stroke-width:13.31px"/></g><g><text x="960.568" y="682.067" transform="matrix(0.902791,0,0,0.902791,337.754,1758.33) matrix(0.513775,0,0,0.508133,1532.85,88.3403) matrix(1.0189,0,0,0.585807,-85.7301,1366.59) matrix(2.27857e-16,3.72118,-2.11596,1.29565e-16,6012.3,-2958.06)" style="font-family:'Lato-Bold','Lato',sans-serif;font-weight:700;font-size:40px;fill:#bb20ee;fill-opacity:.3">FUNCTIONALITY</text></g></g><g><g transform="matrix(0.902791,0,0,0.902791,337.754,1758.33) matrix(0.513775,0,0,0.508133,1532.85,88.3403) matrix(1.0189,0,0,0.585807,-85.7301,2235.58) matrix(0.708245,0,0,0.430445,4025.44,390.438)"><rect width="315.768" height="3279.21" x="654.082" y="263.503" style="fill:#fbf2fe;stroke:#d282d3;stroke-width:13.31px"/></g><g><text x="960.568" y="682.067" transform="matrix(0.902791,0,0,0.902791,337.754,1758.33) matrix(0.513775,0,0,0.508133,1532.85,88.3403) matrix(1.0189,0,0,0.585807,-85.7301,2235.58) matrix(2.27857e-16,3.72118,-2.11596,1.29565e-16,6012.3,-2958.06)" style="font-family:'Lato-Bold','Lato',sans-serif;font-weight:700;font-size:40px;fill:#bb20ee;fill-opacity:.3">FUNCTIONALITY</text></g></g></g><g><g><g transform="matrix(0.902791,0,0,0.902791,337.754,1758.33) matrix(0.490128,0,0,0.508133,2188.61,105.006) matrix(1,0,0,1,697.638,-32.7985) matrix(2.25538,0,0,1.01071,-952.955,44.0714)"><rect width="315.768" height="3279.21" x="654.082" y="263.503" style="fill:#f3f2fe;stroke:#525a6c;stroke-width:4.28px;stroke-dasharray:21.42,21.42,0,0"/></g><g><text x="943.17" y="828.516" transform="matrix(0.902791,0,0,0.902791,337.754,1758.33) matrix(0.490128,0,0,0.508133,2188.61,105.006) matrix(1,0,0,1,697.638,-32.7985) matrix(1.3348e-16,-2.17989,2.25997,1.38383e-16,-1065.53,5055.58)" style="font-family:'Lato-Bold','Lato',sans-serif;font-weight:700;font-size:96px;fill:#48669d;fill-opacity:.5">BOUNDED CONTEXT</text></g></g><g><g transform="matrix(0.902791,0,0,0.902791,337.754,1758.33) matrix(0.490128,0,0,0.508133,2188.61,105.006) matrix(1.06639,0,0,0.585807,618.572,-402.646) matrix(0.708245,0,0,0.430445,467.078,1871.2)"><rect width="315.768" height="3279.21" x="654.082" y="263.503" style="fill:#f2f8fe;stroke:#9cc1f3;stroke-width:13.33px"/></g><g><text x="1034.85" y="681.984" transform="matrix(0.902791,0,0,0.902791,337.754,1758.33) matrix(0.490128,0,0,0.508133,2188.61,105.006) matrix(1.06639,0,0,0.585807,618.572,-402.646) matrix(2.27857e-16,-3.72118,2.11928,1.29768e-16,-371.672,6858.06)" style="font-family:'Lato-Bold','Lato',sans-serif;font-weight:700;font-size:40px;fill:#1280e7;fill-opacity:.5">DOMAIN</text></g></g><g><g transform="matrix(0.902791,0,0,0.902791,337.754,1758.33) matrix(0.490128,0,0,0.508133,2188.61,105.006) matrix(1.06639,0,0,0.585807,618.572,466.349) matrix(0.708245,0,0,0.430445,467.078,1871.2)"><rect width="315.768" height="3279.21" x="654.082" y="263.503" style="fill:#f2f8fe;stroke:#9cc1f3;stroke-width:13.33px"/></g><g><text x="1034.85" y="681.984" transform="matrix(0.902791,0,0,0.902791,337.754,1758.33) matrix(0.490128,0,0,0.508133,2188.61,105.006) matrix(1.06639,0,0,0.585807,618.572,466.349) matrix(2.27857e-16,-3.72118,2.11928,1.29768e-16,-371.672,6858.06)" style="font-family:'Lato-Bold','Lato',sans-serif;font-weight:700;font-size:40px;fill:#1280e7;fill-opacity:.5">DOMAIN</text></g></g><g><g transform="matrix(0.902791,0,0,0.902791,337.754,1758.33) matrix(0.490128,0,0,0.508133,2188.61,105.006) matrix(1.06639,0,0,0.585807,618.572,1335.34) matrix(0.708245,0,0,0.430445,467.078,1871.2)"><rect width="315.768" height="3279.21" x="654.082" y="263.503" style="fill:#f2f8fe;stroke:#9cc1f3;stroke-width:13.33px"/></g><g><text x="1034.85" y="681.984" transform="matrix(0.902791,0,0,0.902791,337.754,1758.33) matrix(0.490128,0,0,0.508133,2188.61,105.006) matrix(1.06639,0,0,0.585807,618.572,1335.34) matrix(2.27857e-16,-3.72118,2.11928,1.29768e-16,-371.672,6858.06)" style="font-family:'Lato-Bold','Lato',sans-serif;font-weight:700;font-size:40px;fill:#1280e7;fill-opacity:.5">DOMAIN</text></g></g></g><g><g><g transform="matrix(0.902791,0,0,0.902791,337.754,1758.33) matrix(0.558534,0,0,0.508133,1644.06,88.3403) matrix(3.12273,0,0,1.01071,727.05,44.0714)"><rect width="315.768" height="3279.21" x="654.082" y="263.503" style="fill:#fefbf4;stroke:#ee5168;stroke-width:2.87px;stroke-dasharray:14.36,14.36,0,0"/></g><g><g transform="matrix(0.902791,0,0,0.902791,337.754,1758.33) matrix(0.558534,0,0,0.508133,1644.06,88.3403) matrix(1,0,0,1.54181,114.664,-100.91)"><rect width="167.565" height="437.825" x="3380.26" y="392.249" style="fill:#fce3c9;stroke:#ee5168;stroke-width:5.43px"/></g><g><text x="2237.85" y="182.656" transform="matrix(0.902791,0,0,0.902791,337.754,1758.33) matrix(0.558534,0,0,0.508133,1644.06,88.3403) matrix(6.7768e-17,-2.61587,2.37982,3.44427e-16,3167.59,6974.91)" style="font-family:'Lato-Bold','Lato',sans-serif;font-weight:700;font-size:26.667px;fill:#f69739;fill-opacity:.5">DOMAIN MODEL</text></g></g><g><g transform="matrix(0.902791,0,0,0.902791,337.754,1758.33) matrix(0.558534,0,0,0.508133,1644.06,88.3403) matrix(1,0,0,1,0,736.477) matrix(1,0,0,1.54181,114.664,-100.91)"><rect width="167.565" height="437.825" x="3380.26" y="392.249" style="fill:#fce3c9;stroke:#ee5168;stroke-width:5.43px"/></g><g><text x="2237.85" y="182.656" transform="matrix(0.902791,0,0,0.902791,337.754,1758.33) matrix(0.558534,0,0,0.508133,1644.06,88.3403) matrix(1,0,0,1,0,736.477) matrix(6.7768e-17,-2.61587,2.37982,3.44427e-16,3167.59,6974.91)" style="font-family:'Lato-Bold','Lato',sans-serif;font-weight:700;font-size:26.667px;fill:#f69739;fill-opacity:.5">DOMAIN MODEL</text></g></g><g><g transform="matrix(0.902791,0,0,0.902791,337.754,1758.33) matrix(0.558534,0,0,0.508133,1644.06,88.3403) matrix(1,0,0,1,0,1480.7) matrix(1,0,0,1.54181,114.664,-100.91)"><rect width="167.565" height="437.825" x="3380.26" y="392.249" style="fill:#fce3c9;stroke:#ee5168;stroke-width:5.43px"/></g><g><text x="2237.85" y="182.656" transform="matrix(0.902791,0,0,0.902791,337.754,1758.33) matrix(0.558534,0,0,0.508133,1644.06,88.3403) matrix(1,0,0,1,0,1480.7) matrix(6.7768e-17,-2.61587,2.37982,3.44427e-16,3167.59,6974.91)" style="font-family:'Lato-Bold','Lato',sans-serif;font-weight:700;font-size:26.667px;fill:#f69739;fill-opacity:.5">DOMAIN MODEL</text></g></g><g><g transform="matrix(0.902791,0,0,0.902791,337.754,1758.33) matrix(0.558534,0,0,0.508133,1644.06,88.3403) matrix(1,0,0,1,3.89207,2217.18) matrix(1,0,0,1.54181,114.664,-100.91)"><rect width="167.565" height="437.825" x="3380.26" y="392.249" style="fill:#fce3c9;stroke:#ee5168;stroke-width:5.43px"/></g><g><text x="2237.85" y="182.656" transform="matrix(0.902791,0,0,0.902791,337.754,1758.33) matrix(0.558534,0,0,0.508133,1644.06,88.3403) matrix(1,0,0,1,3.89207,2217.18) matrix(6.7768e-17,-2.61587,2.37982,3.44427e-16,3167.59,6974.91)" style="font-family:'Lato-Bold','Lato',sans-serif;font-weight:700;font-size:26.667px;fill:#f69739;fill-opacity:.5">DOMAIN MODEL</text></g></g><g><g transform="matrix(0.902791,0,0,0.902791,337.754,1758.33) matrix(0.558534,0,0,0.508133,1644.06,88.3403) matrix(1,0,0,1,2247.01,0) matrix(0.708245,0,0,0.430445,467.078,390.438)"><rect width="315.768" height="3279.21" x="654.082" y="263.503" style="fill:#fbf1e8;stroke:#ee5168;stroke-width:11.55px"/></g><g><text x="973.967" y="681.161" transform="matrix(0.902791,0,0,0.902791,337.754,1758.33) matrix(0.558534,0,0,0.508133,1644.06,88.3403) matrix(1,0,0,1,2247.01,0) matrix(1.60176e-16,-2.61587,2.37982,1.45722e-16,-531.74,4349)" style="font-family:'Lato-Bold','Lato',sans-serif;font-weight:700;font-size:53.333px;fill:#f4d9c4">DOMAIN SERVICE</text></g></g><g><g transform="matrix(0.902791,0,0,0.902791,337.754,1758.33) matrix(0.558534,0,0,0.508133,1644.06,88.3403) matrix(1,0,0,1,2247.01,1480.7) matrix(0.708245,0,0,0.430445,467.078,390.438)"><rect width="315.768" height="3279.21" x="654.082" y="263.503" style="fill:#fbf1e8;stroke:#ee5168;stroke-width:11.55px"/></g><g><text x="973.967" y="681.161" transform="matrix(0.902791,0,0,0.902791,337.754,1758.33) matrix(0.558534,0,0,0.508133,1644.06,88.3403) matrix(1,0,0,1,2247.01,1480.7) matrix(1.60176e-16,-2.61587,2.37982,1.45722e-16,-531.74,4349)" style="font-family:'Lato-Bold','Lato',sans-serif;font-weight:700;font-size:53.333px;fill:#f4d9c4">DOMAIN SERVICE</text></g></g><g><g transform="matrix(0.902791,0,0,0.902791,337.754,1758.33) matrix(0.558534,0,0,0.508133,1644.06,88.3403) matrix(1,0,0,2.04901,1929.92,-528.557) matrix(0.708245,0,0,0.430445,467.078,390.438)"><rect width="315.768" height="3279.21" x="654.082" y="263.503" style="fill:#fdf9ed;stroke:#ee5168;stroke-width:8.74px"/></g><g><text x="2854.23" y="1024.39" transform="matrix(0.902791,0,0,0.902791,337.754,1758.33) matrix(0.558534,0,0,0.508133,1644.06,88.3403) matrix(1,0,0,2.04901,1929.92,-528.557) matrix(1.57231e-16,-1.27665,2.37982,1.20067e-16,-1332.86,5343.09)" style="font-family:'Lato-Bold','Lato',sans-serif;font-weight:700;font-size:71.111px;fill:#efc051;fill-opacity:.3">APPLICA<tspan x="3145.64 3187.95" y="1024.39 1024.39">TI</tspan>ON SERVICE</text></g></g></g></g></g><g><text x="975.938" y="696.582" transform="matrix(1,-1.07831e-18,-2.97382e-18,1,1923.07,3000.8)" style="font-family:'Lato-Bold','Lato',sans-serif;font-weight:700;font-size:64px;fill:#d5a6d0;fill-opacity:.5">BOUNDED CONTEXT GR<tspan x="1706.18 1757.35" y="696.582 696.582">OW</tspan>TH PHASE</text></g></g></g></g><g id="Modularization-Phase"><g transform="matrix(4.40133,0,0,1.19247,1294.94,-314.221)"><rect width="315.768" height="3279.21" x="654.082" y="263.503" style="fill:#fbf2fe;stroke:#d282d3;stroke-width:1.03px;stroke-dasharray:5.17,5.17,0,0"/></g><g><g id="UI-Info-Block"><g transform="matrix(1.19018,0,0,0.727672,1386.44,-2099.56) matrix(1.22064,3.86388e-17,-5.05782e-17,-0.861359,363.741,3184.6)"><rect width="797.552" height="203.404" x="1700.18" y="0" style="fill:#f9eefc"/></g><g><text x="111.518" y="2208.86" transform="matrix(1.19018,0,0,0.727672,1386.44,-2099.56) matrix(0.840211,0,0,1.37425,2370.8,28.2968)" style="font-family:'Lato-Regular','Lato',sans-serif;font-size:21.333px;fill:#d37df0">When y<tspan x="182.921 194.782" y="2208.86 2208.86">ou</tspan> notice that maintaining Bounded Conte<tspan x="575.326 586.078" y="2208.86 2208.86">xt</tspan> is getting harder in one codebase it&apos;s time to detach into separ<tspan x="1169.27 1180.08" y="2208.86 2208.86">at</tspan>e</text><text x="111.518" y="2240.86" transform="matrix(1.19018,0,0,0.727672,1386.44,-2099.56) matrix(0.840211,0,0,1.37425,2370.8,28.2968)" style="font-family:'Lato-Regular','Lato',sans-serif;font-size:21.333px;fill:#d37df0">modules. It&apos;s not lik<tspan x="289.267 300.446" y="2240.86 2240.86">e </tspan>we resign from Bounded Conte<tspan x="592.222 602.974" y="2240.86 2240.86">xt</tspan> pattern, we modularize project codebase basing on it. After that</text><text x="111.518" y="2272.86" transform="matrix(1.19018,0,0,0.727672,1386.44,-2099.56) matrix(0.840211,0,0,1.37425,2370.8,28.2968)" style="font-family:'Lato-Regular','Lato',sans-serif;font-size:21.333px;fill:#d37df0">we will still e<tspan x="228.617 239.262 251.123 256.585 267.23 278.409" y="2272.86 2272.86 2272.86 2272.86 2272.86 2272.86">volve </tspan>towards Bounded Conte<tspan x="508.766 519.518" y="2272.86 2272.86">xt</tspan>s within Module scope starting with initial phase.</text></g></g><g><g><g><g transform="matrix(0.495792,0,0,0.301105,2908.37,318.744) matrix(3.28148,0,0,1,-11680.2,2.27374e-13) matrix(2.25538,0,0,1.01071,2933.04,44.0714)"><rect width="315.768" height="3279.21" x="654.082" y="263.503" style="fill:#fdeaf5;stroke:#d282d3;stroke-width:1.28px;stroke-dasharray:6.4,6.4,0,0"/></g><g><text x="949.233" y="837.987" transform="matrix(0.495792,0,0,0.301105,2908.37,318.744) matrix(3.28148,0,0,1,-11680.2,2.27374e-13) matrix(1.82904e-16,3.3211,-0.614653,-2.06466e-15,5552.26,-1869.54)" style="font-family:'Lato-Bold','Lato',sans-serif;font-weight:700;font-size:96px;fill:#d5a6d0;fill-opacity:.5">MODULE</text></g></g><g><g transform="matrix(0.495792,0,0,0.301105,2908.37,318.744) matrix(2.96656e-16,7.97725,-1.08549,1.09443e-16,6874.25,-6333.82) matrix(0.708245,0,0,0.430445,467.078,1871.2)"><rect width="315.768" height="3279.21" x="654.082" y="263.503" style="fill:#fbfcfd;stroke:#9cc1f3;stroke-width:2.75px"/></g><g><text x="1088.94" y="906.729" transform="matrix(0.495792,0,0,0.301105,2908.37,318.744) matrix(2.96656e-16,7.97725,-1.08549,1.09443e-16,6874.25,-6333.82) matrix(1.13777e-16,-1.85812,0.416321,2.54923e-17,674.557,5124.8)" style="font-family:'Lato-Bold','Lato',sans-serif;font-weight:700;font-size:64px;fill:#1280e7;fill-opacity:.5">INITIAL PHASE</text></g></g></g><g><g><g transform="matrix(0.495792,0,0,0.301105,2908.37,1362.77) matrix(3.28148,0,0,1,-11680.2,2.27374e-13) matrix(2.25538,0,0,1.01071,2933.04,44.0714)"><rect width="315.768" height="3279.21" x="654.082" y="263.503" style="fill:#fdeaf5;stroke:#d282d3;stroke-width:1.28px;stroke-dasharray:6.4,6.4,0,0"/></g><g><text x="949.233" y="837.987" transform="matrix(0.495792,0,0,0.301105,2908.37,1362.77) matrix(3.28148,0,0,1,-11680.2,2.27374e-13) matrix(1.82904e-16,3.3211,-0.614653,-2.06466e-15,5552.26,-1869.54)" style="font-family:'Lato-Bold','Lato',sans-serif;font-weight:700;font-size:96px;fill:#d5a6d0;fill-opacity:.5">MODULE</text></g></g><g><g transform="matrix(0.495792,0,0,0.301105,2908.37,1362.77) matrix(2.96656e-16,7.97725,-1.08549,1.09443e-16,6874.25,-6333.82) matrix(0.708245,0,0,0.430445,467.078,1871.2)"><rect width="315.768" height="3279.21" x="654.082" y="263.503" style="fill:#fbfcfd;stroke:#9cc1f3;stroke-width:2.75px"/></g><g><text x="1088.94" y="906.729" transform="matrix(0.495792,0,0,0.301105,2908.37,1362.77) matrix(2.96656e-16,7.97725,-1.08549,1.09443e-16,6874.25,-6333.82) matrix(1.13777e-16,-1.85812,0.416321,2.54923e-17,674.557,5124.8)" style="font-family:'Lato-Bold','Lato',sans-serif;font-weight:700;font-size:64px;fill:#1280e7;fill-opacity:.5">INITIAL PHASE</text></g></g></g><g><g><g transform="matrix(0.495792,0,0,0.301105,2908.37,2406.74) matrix(3.28148,0,0,1,-11680.2,2.27374e-13) matrix(2.25538,0,0,1.01071,2933.04,44.0714)"><rect width="315.768" height="3279.21" x="654.082" y="263.503" style="fill:#fdeaf5;stroke:#d282d3;stroke-width:1.28px;stroke-dasharray:6.4,6.4,0,0"/></g><g><text x="949.233" y="837.987" transform="matrix(0.495792,0,0,0.301105,2908.37,2406.74) matrix(3.28148,0,0,1,-11680.2,2.27374e-13) matrix(1.82904e-16,3.3211,-0.614653,-2.06466e-15,5552.26,-1869.54)" style="font-family:'Lato-Bold','Lato',sans-serif;font-weight:700;font-size:96px;fill:#d5a6d0;fill-opacity:.5">MODULE</text></g></g><g><g transform="matrix(0.495792,0,0,0.301105,2908.37,2406.74) matrix(2.96656e-16,7.97725,-1.08549,1.09443e-16,6874.25,-6333.82) matrix(0.708245,0,0,0.430445,467.078,1871.2)"><rect width="315.768" height="3279.21" x="654.082" y="263.503" style="fill:#fbfcfd;stroke:#9cc1f3;stroke-width:2.75px"/></g><g><text x="1088.94" y="906.729" transform="matrix(0.495792,0,0,0.301105,2908.37,2406.74) matrix(2.96656e-16,7.97725,-1.08549,1.09443e-16,6874.25,-6333.82) matrix(1.13777e-16,-1.85812,0.416321,2.54923e-17,674.557,5124.8)" style="font-family:'Lato-Bold','Lato',sans-serif;font-weight:700;font-size:64px;fill:#1280e7;fill-opacity:.5">INITIAL PHASE</text></g></g></g><g><text x="1109.28" y="696.582" transform="matrix(1,-1.157e-18,-2.77157e-18,1,3359.01,3000.8)" style="font-family:'Lato-Bold','Lato',sans-serif;font-weight:700;font-size:64px;fill:#d5a6d0;fill-opacity:.5">MODULARIZA<tspan x="1535.17 1573.25" y="696.582 696.582">TI</tspan>ON PHASE</text></g></g></g></g><g id="Module-Growth-Phase"><g transform="matrix(4.40133,0,0,1.19247,2684.74,-314.221)"><rect width="315.768" height="3279.21" x="654.082" y="263.503" style="fill:#fef2f4;stroke:#d282d3;stroke-width:1.03px;stroke-dasharray:5.17,5.17,0,0"/></g><g><g id="UI-Info-Block1"><g transform="matrix(1.19018,0,0,0.727672,2776.67,-2099.56) matrix(1.22064,3.86388e-17,-5.05782e-17,-0.861359,363.741,3184.6)"><rect width="797.552" height="203.404" x="1700.18" y="0" style="fill:#f9eefc"/></g><g><text x="111.518" y="2208.86" transform="matrix(1.19018,0,0,0.727672,2776.67,-2099.56) matrix(0.840211,0,0,1.37425,2370.8,28.2968)" style="font-family:'Lato-Regular','Lato',sans-serif;font-size:21.333px;fill:#d37df0">Modules in a growth phases are going through both grouping phases related to Bounded Conte<tspan x="985.779 996.531" y="2208.86 2208.86">xt</tspan> Ev<tspan x="1031.65 1043.51" y="2208.86 2208.86">ol</tspan>ution cy<tspan x="1122.7 1132.66" y="2208.86 2208.86">cl</tspan>e -</text><text x="111.518" y="2240.86" transform="matrix(1.19018,0,0,0.727672,2776.67,-2099.56) matrix(0.840211,0,0,1.37425,2370.8,28.2968)" style="font-family:'Lato-Regular','Lato',sans-serif;font-size:21.333px;fill:#d37df0">Bounded Conte<tspan x="256.883 267.635" y="2240.86 2240.86">xt</tspan> Phase and Bounded Conte<tspan x="524.062 534.814" y="2240.86 2240.86">xt</tspan> Growth Phase. Ev<tspan x="711.113 722.291" y="2240.86 2240.86">er</tspan>y module might be in a separ<tspan x="992.478 1003.29" y="2240.86 2240.86">at</tspan>e lifecy<tspan x="1076.45 1086.41" y="2240.86 2240.86">cl</tspan>e phase</text><text x="111.518" y="2272.86" transform="matrix(1.19018,0,0,0.727672,2776.67,-2099.56) matrix(0.840211,0,0,1.37425,2370.8,28.2968)" style="font-family:'Lato-Regular','Lato',sans-serif;font-size:21.333px;fill:#d37df0">depending on growth speed. Modules are growing independently and it&apos;s up to team when to switch to ne<tspan x="1080.14 1090.89" y="2272.86 2272.86">xt</tspan> phase.</text></g></g><g><g><g><g transform="matrix(0.495792,0,0,0.301105,4298.17,318.744) matrix(7.401,0,0,1.01071,-2055.5,44.0714)"><rect width="315.768" height="3279.21" x="654.082" y="263.503" style="fill:#fdeaf5;stroke:#d282d3;stroke-width:1.28px;stroke-dasharray:6.4,6.4,0,0"/></g><g><text x="949.233" y="837.987" transform="matrix(0.495792,0,0,0.301105,4298.17,318.744) matrix(6.00198e-16,3.3211,-2.01697,-2.06466e-15,6539.43,-1869.54)" style="font-family:'Lato-Bold','Lato',sans-serif;font-weight:700;font-size:96px;fill:#d5a6d0;fill-opacity:.5">MODULE</text></g><g><g><g transform="matrix(0.495792,0,0,0.301105,4298.17,318.744) matrix(1.84629e-16,4.96477,-1.08549,1.09443e-16,6872.23,-3860.25) matrix(0.708245,0,0,0.430445,467.078,1871.2)"><rect width="315.768" height="3279.21" x="654.082" y="263.503" style="fill:#f2f8fe;stroke:#9cc1f3;stroke-width:4.35px"/></g><g><text x="994.536" y="757.3" transform="matrix(0.495792,0,0,0.301105,4298.17,318.744) matrix(1.84629e-16,4.96477,-1.08549,1.09443e-16,6872.23,-3860.25) matrix(1.13777e-16,-1.85812,0.668933,4.09603e-17,519.362,5124.8)" style="font-family:'Lato-Bold','Lato',sans-serif;font-weight:700;font-size:64px;fill:#48669d;fill-opacity:.5">BOUNDED CONTEXT</text><text x="1207.75" y="853.3" transform="matrix(0.495792,0,0,0.301105,4298.17,318.744) matrix(1.84629e-16,4.96477,-1.08549,1.09443e-16,6872.23,-3860.25) matrix(1.13777e-16,-1.85812,0.668933,4.09603e-17,519.362,5124.8)" style="font-family:'Lato-Bold','Lato',sans-serif;font-weight:700;font-size:64px;fill:#48669d;fill-opacity:.5">PHASE</text></g></g><g><g transform="matrix(0.495792,0,0,0.301105,4298.17,318.744) matrix(1.84629e-16,4.96477,-1.08549,1.09443e-16,6874.25,-2552.7) matrix(0.708245,0,0,0.430445,467.078,1871.2)"><rect width="315.768" height="3279.21" x="654.082" y="263.503" style="fill:#f3f2fe;stroke:#d282d3;stroke-width:4.35px"/></g><g><text x="994.536" y="757.3" transform="matrix(0.495792,0,0,0.301105,4298.17,318.744) matrix(1.84629e-16,4.96477,-1.08549,1.09443e-16,6874.25,-2552.7) matrix(1.13777e-16,-1.85812,0.668933,4.09603e-17,519.362,5124.8)" style="font-family:'Lato-Bold','Lato',sans-serif;font-weight:700;font-size:64px;fill:#d5a6d0;fill-opacity:.5">BOUNDED CONTEXT</text><text x="1055.94" y="853.3" transform="matrix(0.495792,0,0,0.301105,4298.17,318.744) matrix(1.84629e-16,4.96477,-1.08549,1.09443e-16,6874.25,-2552.7) matrix(1.13777e-16,-1.85812,0.668933,4.09603e-17,519.362,5124.8)" style="font-family:'Lato-Bold','Lato',sans-serif;font-weight:700;font-size:64px;fill:#d5a6d0;fill-opacity:.5">GR<tspan x="1142.6 1193.77" y="853.3 853.3">OW</tspan>TH PHASE</text></g></g><g><path d="M1384.04,654.509L1384.04,550.086L1690.98,550.086L1690.98,445.662L1785.42,602.298L1690.98,758.933L1690.98,654.509L1384.04,654.509Z" transform="matrix(0.495792,0,0,0.301105,4298.17,318.744) matrix(4.93396e-17,1.08839,-0.199256,1.36332e-16,4073.88,242.762)" style="fill:#87f5bc"/></g></g></g><g><g transform="matrix(0.495792,0,0,0.301105,4298.17,1362.74) matrix(7.401,0,0,1.01071,-2055.5,44.0714)"><rect width="315.768" height="3279.21" x="654.082" y="263.503" style="fill:#fdeaf5;stroke:#d282d3;stroke-width:1.28px;stroke-dasharray:6.4,6.4,0,0"/></g><g><text x="949.233" y="837.987" transform="matrix(0.495792,0,0,0.301105,4298.17,1362.74) matrix(6.00198e-16,3.3211,-2.01697,-2.06466e-15,6539.43,-1869.54)" style="font-family:'Lato-Bold','Lato',sans-serif;font-weight:700;font-size:96px;fill:#d5a6d0;fill-opacity:.5">MODULE</text></g><g><g><g transform="matrix(0.495792,0,0,0.301105,4298.17,1362.74) matrix(1.84629e-16,4.96477,-1.08549,1.09443e-16,6872.23,-3860.25) matrix(0.708245,0,0,0.430445,467.078,1871.2)"><rect width="315.768" height="3279.21" x="654.082" y="263.503" style="fill:#f2f8fe;stroke:#9cc1f3;stroke-width:4.35px"/></g><g><text x="994.536" y="757.3" transform="matrix(0.495792,0,0,0.301105,4298.17,1362.74) matrix(1.84629e-16,4.96477,-1.08549,1.09443e-16,6872.23,-3860.25) matrix(1.13777e-16,-1.85812,0.668933,4.09603e-17,519.362,5124.8)" style="font-family:'Lato-Bold','Lato',sans-serif;font-weight:700;font-size:64px;fill:#48669d;fill-opacity:.5">BOUNDED CONTEXT</text><text x="1207.75" y="853.3" transform="matrix(0.495792,0,0,0.301105,4298.17,1362.74) matrix(1.84629e-16,4.96477,-1.08549,1.09443e-16,6872.23,-3860.25) matrix(1.13777e-16,-1.85812,0.668933,4.09603e-17,519.362,5124.8)" style="font-family:'Lato-Bold','Lato',sans-serif;font-weight:700;font-size:64px;fill:#48669d;fill-opacity:.5">PHASE</text></g></g><g><g transform="matrix(0.495792,0,0,0.301105,4298.17,1362.74) matrix(1.84629e-16,4.96477,-1.08549,1.09443e-16,6874.25,-2552.7) matrix(0.708245,0,0,0.430445,467.078,1871.2)"><rect width="315.768" height="3279.21" x="654.082" y="263.503" style="fill:#f3f2fe;stroke:#d282d3;stroke-width:4.35px"/></g><g><text x="994.536" y="757.3" transform="matrix(0.495792,0,0,0.301105,4298.17,1362.74) matrix(1.84629e-16,4.96477,-1.08549,1.09443e-16,6874.25,-2552.7) matrix(1.13777e-16,-1.85812,0.668933,4.09603e-17,519.362,5124.8)" style="font-family:'Lato-Bold','Lato',sans-serif;font-weight:700;font-size:64px;fill:#d5a6d0;fill-opacity:.5">BOUNDED CONTEXT</text><text x="1055.94" y="853.3" transform="matrix(0.495792,0,0,0.301105,4298.17,1362.74) matrix(1.84629e-16,4.96477,-1.08549,1.09443e-16,6874.25,-2552.7) matrix(1.13777e-16,-1.85812,0.668933,4.09603e-17,519.362,5124.8)" style="font-family:'Lato-Bold','Lato',sans-serif;font-weight:700;font-size:64px;fill:#d5a6d0;fill-opacity:.5">GR<tspan x="1142.6 1193.77" y="853.3 853.3">OW</tspan>TH PHASE</text></g></g><g><path d="M1384.04,654.509L1384.04,550.086L1690.98,550.086L1690.98,445.662L1785.42,602.298L1690.98,758.933L1690.98,654.509L1384.04,654.509Z" transform="matrix(0.495792,0,0,0.301105,4298.17,1362.74) matrix(4.93396e-17,1.08839,-0.199256,1.36332e-16,4073.88,242.762)" style="fill:#87f5bc"/></g></g></g><g><g transform="matrix(1.62693,0,0,0.301105,-1492.35,2406.74) matrix(2.25538,0,0,1.01071,2933.04,44.0714)"><rect width="315.768" height="3279.21" x="654.082" y="263.503" style="fill:#fdeaf5;stroke:#d282d3;stroke-width:1.28px;stroke-dasharray:6.4,6.4,0,0"/></g><g><text x="949.233" y="837.987" transform="matrix(1.62693,0,0,0.301105,-1492.35,2406.74) matrix(1.82904e-16,3.3211,-0.614653,-2.06466e-15,5552.26,-1869.54)" style="font-family:'Lato-Bold','Lato',sans-serif;font-weight:700;font-size:96px;fill:#d5a6d0;fill-opacity:.5">MODULE</text></g><g><g><g transform="matrix(1.62693,0,0,0.301105,-1492.35,2406.74) matrix(0.30474,0,0,1,3559.43,0) matrix(1.84629e-16,4.96477,-1.08549,1.09443e-16,6872.23,-3860.25) matrix(0.708245,0,0,0.430445,467.078,1871.2)"><rect width="315.768" height="3279.21" x="654.082" y="263.503" style="fill:#f2f8fe;stroke:#9cc1f3;stroke-width:4.35px"/></g><g><text x="994.536" y="757.3" transform="matrix(1.62693,0,0,0.301105,-1492.35,2406.74) matrix(0.30474,0,0,1,3559.43,0) matrix(1.84629e-16,4.96477,-1.08549,1.09443e-16,6872.23,-3860.25) matrix(1.13777e-16,-1.85812,0.668933,4.09603e-17,519.362,5124.8)" style="font-family:'Lato-Bold','Lato',sans-serif;font-weight:700;font-size:64px;fill:#48669d;fill-opacity:.5">BOUNDED CONTEXT</text><text x="1207.75" y="853.3" transform="matrix(1.62693,0,0,0.301105,-1492.35,2406.74) matrix(0.30474,0,0,1,3559.43,0) matrix(1.84629e-16,4.96477,-1.08549,1.09443e-16,6872.23,-3860.25) matrix(1.13777e-16,-1.85812,0.668933,4.09603e-17,519.362,5124.8)" style="font-family:'Lato-Bold','Lato',sans-serif;font-weight:700;font-size:64px;fill:#48669d;fill-opacity:.5">PHASE</text></g></g><g><g transform="matrix(1.62693,0,0,0.301105,-1492.35,2406.74) matrix(0.30474,0,0,1,3559.43,0) matrix(1.84629e-16,4.96477,-1.08549,1.09443e-16,6874.25,-2552.7) matrix(0.708245,0,0,0.430445,467.078,1871.2)"><rect width="315.768" height="3279.21" x="654.082" y="263.503" style="fill:#f3f2fe;stroke:#d282d3;stroke-width:4.35px"/></g><g><text x="994.536" y="757.3" transform="matrix(1.62693,0,0,0.301105,-1492.35,2406.74) matrix(0.30474,0,0,1,3559.43,0) matrix(1.84629e-16,4.96477,-1.08549,1.09443e-16,6874.25,-2552.7) matrix(1.13777e-16,-1.85812,0.668933,4.09603e-17,519.362,5124.8)" style="font-family:'Lato-Bold','Lato',sans-serif;font-weight:700;font-size:64px;fill:#d5a6d0;fill-opacity:.5">BOUNDED CONTEXT</text><text x="1055.94" y="853.3" transform="matrix(1.62693,0,0,0.301105,-1492.35,2406.74) matrix(0.30474,0,0,1,3559.43,0) matrix(1.84629e-16,4.96477,-1.08549,1.09443e-16,6874.25,-2552.7) matrix(1.13777e-16,-1.85812,0.668933,4.09603e-17,519.362,5124.8)" style="font-family:'Lato-Bold','Lato',sans-serif;font-weight:700;font-size:64px;fill:#d5a6d0;fill-opacity:.5">GR<tspan x="1142.6 1193.77" y="853.3 853.3">OW</tspan>TH PHASE</text></g></g><g><path d="M1384.04,654.509L1384.04,550.086L1690.98,550.086L1690.98,445.662L1785.42,602.298L1690.98,758.933L1690.98,654.509L1384.04,654.509Z" transform="matrix(1.62693,0,0,0.301105,-1492.35,2406.74) matrix(0.30474,0,0,1,3559.43,0) matrix(4.93396e-17,1.08839,-0.199256,1.36332e-16,4073,242.762)" style="fill:#87f5bc"/></g></g></g></g><g><text x="1111.85" y="696.582" transform="matrix(1,-1.157e-18,-2.77157e-18,1,4748.81,3000.8)" style="font-family:'Lato-Bold','Lato',sans-serif;font-weight:700;font-size:64px;fill:#d5a6d0;fill-opacity:.5">MODULE GR<tspan x="1485.71 1536.88" y="696.582 696.582">OW</tspan>TH PHASE</text></g></g></g></g><g id="Microservices-Phase"><g id="Infrastructure" transform="matrix(0.72387,0,0,1.81036,6953.37,0)"><rect width="1920" height="2160" x="0" y="0" style="fill:#feeff2"/></g><g><g id="Infra-Info-Block3"><g transform="matrix(1.68155,0,0,1,2585.52,-2919.1) matrix(0.837713,2.75994e-17,-2.25625e-17,-0.626787,1252.46,3136.89)"><rect width="797.552" height="203.404" x="1700.18" y="0" style="fill:#fbdae0"/></g><g><text x="111.518" y="2208.86" transform="matrix(1.68155,0,0,1,2585.52,-2919.1) matrix(0.594691,0,0,1,2631.32,840.134)" style="font-family:'Lato-Regular','Lato',sans-serif;font-size:21.333px;fill:#f17184">When y<tspan x="182.921 194.782" y="2208.86 2208.86">ou</tspan> notice that adding additional modules to codebase becomes problematic and hard to maintain, it&apos;s the</text><text x="111.518" y="2240.86" transform="matrix(1.68155,0,0,1,2585.52,-2919.1) matrix(0.594691,0,0,1,2631.32,840.134)" style="font-family:'Lato-Regular','Lato',sans-serif;font-size:21.333px;fill:#f17184">best time to detach into microservices and start lifecy<tspan x="605.854 615.817" y="2240.86 2240.86">cl</tspan>e from the beginning. Y<tspan x="832.734 844.595" y="2240.86 2240.86">ou</tspan> can detach into as man<tspan x="1070.45" y="2240.86">y</tspan></text><text x="111.518" y="2272.86" transform="matrix(1.68155,0,0,1,2585.52,-2919.1) matrix(0.594691,0,0,1,2631.32,840.134)" style="font-family:'Lato-Regular','Lato',sans-serif;font-size:21.333px;fill:#f17184">microservices as needed usually the<tspan x="442.889 453.811" y="2272.86 2272.86">y </tspan>are related to pre<tspan x="619.081 630.003" y="2272.86 2272.86">vi</tspan>ously crystalized modules.</text></g></g><g><g><g><g id="Infrastructure1" transform="matrix(0.585142,0,0,0.462019,7086.55,410.018)"><rect width="1920" height="2160" x="0" y="0" style="fill:#fdeaed;stroke:#f17184;stroke-width:6.32px;stroke-linecap:round;stroke-dasharray:31.61,31.61,0,0"/></g><g><g><g transform="matrix(4.12064e-17,0.672952,-0.538178,3.29539e-17,8992.02,26.4883) matrix(0.708245,0,0,0.430445,467.078,1871.2)"><rect width="315.768" height="3279.21" x="654.082" y="263.503" style="fill:#f2f8fe;stroke:#9cc1f3;stroke-width:8.9px"/></g><g><text x="1045.03" y="704.471" transform="matrix(4.12064e-17,0.672952,-0.538178,3.29539e-17,8992.02,26.4883) matrix(1.13777e-16,-1.85812,1.48599,9.09907e-17,17.3943,5124.8)" style="font-family:'Lato-Bold','Lato',sans-serif;font-weight:700;font-size:40px;fill:#48669d;fill-opacity:.5">BOUNDED CONTEXT PHASE</text></g></g><g><g transform="matrix(4.12064e-17,0.672952,-0.538178,3.29539e-17,8992.02,-154.025) matrix(0.708245,0,0,0.430445,467.078,1871.2)"><rect width="315.768" height="3279.21" x="654.082" y="263.503" style="fill:#fbfcfd;stroke:#9cc1f3;stroke-width:8.9px"/></g><g><text x="1171.89" y="704.471" transform="matrix(4.12064e-17,0.672952,-0.538178,3.29539e-17,8992.02,-154.025) matrix(1.13777e-16,-1.85812,1.48599,9.09907e-17,17.3943,5124.8)" style="font-family:'Lato-Bold','Lato',sans-serif;font-weight:700;font-size:40px;fill:#1280e7;fill-opacity:.5">INITIAL PHASE</text></g></g><g><g transform="matrix(4.12064e-17,0.672952,-0.538178,3.29539e-17,8993.02,206.989) matrix(0.708245,0,0,0.430445,467.078,1871.2)"><rect width="315.768" height="3279.21" x="654.082" y="263.503" style="fill:#f3f2fe;stroke:#d282d3;stroke-width:8.9px"/></g><g><text x="950.152" y="704.471" transform="matrix(4.12064e-17,0.672952,-0.538178,3.29539e-17,8993.02,206.989) matrix(1.13777e-16,-1.85812,1.48599,9.09907e-17,17.3943,5124.8)" style="font-family:'Lato-Bold','Lato',sans-serif;font-weight:700;font-size:40px;fill:#d5a6d0;fill-opacity:.5">BOUNDED CONTEXT GR<tspan x="1406.55 1438.53" y="704.471 704.471">OW</tspan>TH PHASE</text></g></g><g><g transform="matrix(4.12064e-17,0.672952,-0.538178,3.29539e-17,8993.02,388.189) matrix(0.708245,0,0,0.430445,467.078,1871.2)"><rect width="315.768" height="3279.21" x="654.082" y="263.503" style="fill:#fbf2fe;stroke:#d282d3;stroke-width:8.9px"/></g><g><text x="1059.91" y="704.471" transform="matrix(4.12064e-17,0.672952,-0.538178,3.29539e-17,8993.02,388.189) matrix(1.13777e-16,-1.85812,1.48599,9.09907e-17,17.3943,5124.8)" style="font-family:'Lato-Bold','Lato',sans-serif;font-weight:700;font-size:40px;fill:#d5a6d0;fill-opacity:.5">MODULARIZA<tspan x="1326.09 1349.89" y="704.471 704.471">TI</tspan>ON PHASE</text></g></g><g><g transform="matrix(4.12064e-17,0.672952,-0.538178,3.29539e-17,8993.02,569.389) matrix(0.708245,0,0,0.430445,467.078,1871.2)"><rect width="315.768" height="3279.21" x="654.082" y="263.503" style="fill:#fef2f4;stroke:#d282d3;stroke-width:8.9px"/></g><g><text x="1061.52" y="704.471" transform="matrix(4.12064e-17,0.672952,-0.538178,3.29539e-17,8993.02,569.389) matrix(1.13777e-16,-1.85812,1.48599,9.09907e-17,17.3943,5124.8)" style="font-family:'Lato-Bold','Lato',sans-serif;font-weight:700;font-size:40px;fill:#d5a6d0;fill-opacity:.5">MODULE GR<tspan x="1295.18 1327.16" y="704.471 704.471">OW</tspan>TH PHASE</text></g></g></g><g><g><path d="M1384.04,654.509L1384.04,550.086L1646.31,550.086L1646.31,445.662L1785.42,602.298L1646.31,758.933L1646.31,654.509L1384.04,654.509Z" transform="matrix(1.80182e-17,0.222481,-0.0987897,2.98106e-17,7603.62,291.426)" style="fill:#87f5bc"/></g><g><path d="M1384.04,654.509L1384.04,550.086L1646.31,550.086L1646.31,445.662L1785.42,602.298L1646.31,758.933L1646.31,654.509L1384.04,654.509Z" transform="matrix(1.80182e-17,0.222481,-0.0987897,2.98106e-17,7603.62,471.814)" style="fill:#87f5bc"/></g><g><path d="M1384.04,654.509L1384.04,550.086L1646.31,550.086L1646.31,445.662L1785.42,602.298L1646.31,758.933L1646.31,654.509L1384.04,654.509Z" transform="matrix(1.80182e-17,0.222481,-0.0987897,2.98106e-17,7603.62,652.888)" style="fill:#87f5bc"/></g><g><path d="M1384.04,654.509L1384.04,550.086L1646.31,550.086L1646.31,445.662L1785.42,602.298L1646.31,758.933L1646.31,654.509L1384.04,654.509Z" transform="matrix(1.80182e-17,0.222481,-0.0987897,2.98106e-17,7603.62,834.906)" style="fill:#87f5bc"/></g></g><g><text x="801.321" y="880.771" transform="matrix(3.03705e-16,1,-1,-3.50049e-16,8912.59,-246.371)" style="font-family:'Lato-Bold','Lato',sans-serif;font-weight:700;font-size:96px;fill:#d5a6a7;fill-opacity:.5">MICR<tspan x="1045.69 1122.44" y="880.771 880.771">OS</tspan>ERVICE</text></g></g><g transform="matrix(1,0,0,1,0,1046.19)"><g id="Infrastructure2" transform="matrix(0.585142,0,0,0.462019,7086.55,410.018)"><rect width="1920" height="2160" x="0" y="0" style="fill:#fdeaed;stroke:#f17184;stroke-width:6.32px;stroke-linecap:round;stroke-dasharray:31.61,31.61,0,0"/></g><g><g><g transform="matrix(4.12064e-17,0.672952,-0.538178,3.29539e-17,8992.02,26.4883) matrix(0.708245,0,0,0.430445,467.078,1871.2)"><rect width="315.768" height="3279.21" x="654.082" y="263.503" style="fill:#f2f8fe;stroke:#9cc1f3;stroke-width:8.9px"/></g><g><text x="1045.03" y="704.471" transform="matrix(4.12064e-17,0.672952,-0.538178,3.29539e-17,8992.02,26.4883) matrix(1.13777e-16,-1.85812,1.48599,9.09907e-17,17.3943,5124.8)" style="font-family:'Lato-Bold','Lato',sans-serif;font-weight:700;font-size:40px;fill:#48669d;fill-opacity:.5">BOUNDED CONTEXT PHASE</text></g></g><g><g transform="matrix(4.12064e-17,0.672952,-0.538178,3.29539e-17,8992.02,-154.025) matrix(0.708245,0,0,0.430445,467.078,1871.2)"><rect width="315.768" height="3279.21" x="654.082" y="263.503" style="fill:#fbfcfd;stroke:#9cc1f3;stroke-width:8.9px"/></g><g><text x="1171.89" y="704.471" transform="matrix(4.12064e-17,0.672952,-0.538178,3.29539e-17,8992.02,-154.025) matrix(1.13777e-16,-1.85812,1.48599,9.09907e-17,17.3943,5124.8)" style="font-family:'Lato-Bold','Lato',sans-serif;font-weight:700;font-size:40px;fill:#1280e7;fill-opacity:.5">INITIAL PHASE</text></g></g><g><g transform="matrix(4.12064e-17,0.672952,-0.538178,3.29539e-17,8993.02,206.989) matrix(0.708245,0,0,0.430445,467.078,1871.2)"><rect width="315.768" height="3279.21" x="654.082" y="263.503" style="fill:#f3f2fe;stroke:#d282d3;stroke-width:8.9px"/></g><g><text x="950.152" y="704.471" transform="matrix(4.12064e-17,0.672952,-0.538178,3.29539e-17,8993.02,206.989) matrix(1.13777e-16,-1.85812,1.48599,9.09907e-17,17.3943,5124.8)" style="font-family:'Lato-Bold','Lato',sans-serif;font-weight:700;font-size:40px;fill:#d5a6d0;fill-opacity:.5">BOUNDED CONTEXT GR<tspan x="1406.55 1438.53" y="704.471 704.471">OW</tspan>TH PHASE</text></g></g><g><g transform="matrix(4.12064e-17,0.672952,-0.538178,3.29539e-17,8993.02,388.189) matrix(0.708245,0,0,0.430445,467.078,1871.2)"><rect width="315.768" height="3279.21" x="654.082" y="263.503" style="fill:#fbf2fe;stroke:#d282d3;stroke-width:8.9px"/></g><g><text x="1059.91" y="704.471" transform="matrix(4.12064e-17,0.672952,-0.538178,3.29539e-17,8993.02,388.189) matrix(1.13777e-16,-1.85812,1.48599,9.09907e-17,17.3943,5124.8)" style="font-family:'Lato-Bold','Lato',sans-serif;font-weight:700;font-size:40px;fill:#d5a6d0;fill-opacity:.5">MODULARIZA<tspan x="1326.09 1349.89" y="704.471 704.471">TI</tspan>ON PHASE</text></g></g><g><g transform="matrix(4.12064e-17,0.672952,-0.538178,3.29539e-17,8993.02,569.389) matrix(0.708245,0,0,0.430445,467.078,1871.2)"><rect width="315.768" height="3279.21" x="654.082" y="263.503" style="fill:#fef2f4;stroke:#d282d3;stroke-width:8.9px"/></g><g><text x="1061.52" y="704.471" transform="matrix(4.12064e-17,0.672952,-0.538178,3.29539e-17,8993.02,569.389) matrix(1.13777e-16,-1.85812,1.48599,9.09907e-17,17.3943,5124.8)" style="font-family:'Lato-Bold','Lato',sans-serif;font-weight:700;font-size:40px;fill:#d5a6d0;fill-opacity:.5">MODULE GR<tspan x="1295.18 1327.16" y="704.471 704.471">OW</tspan>TH PHASE</text></g></g></g><g><g><path d="M1384.04,654.509L1384.04,550.086L1646.31,550.086L1646.31,445.662L1785.42,602.298L1646.31,758.933L1646.31,654.509L1384.04,654.509Z" transform="matrix(1.80182e-17,0.222481,-0.0987897,2.98106e-17,7603.62,291.426)" style="fill:#87f5bc"/></g><g><path d="M1384.04,654.509L1384.04,550.086L1646.31,550.086L1646.31,445.662L1785.42,602.298L1646.31,758.933L1646.31,654.509L1384.04,654.509Z" transform="matrix(1.80182e-17,0.222481,-0.0987897,2.98106e-17,7603.62,471.814)" style="fill:#87f5bc"/></g><g><path d="M1384.04,654.509L1384.04,550.086L1646.31,550.086L1646.31,445.662L1785.42,602.298L1646.31,758.933L1646.31,654.509L1384.04,654.509Z" transform="matrix(1.80182e-17,0.222481,-0.0987897,2.98106e-17,7603.62,652.888)" style="fill:#87f5bc"/></g><g><path d="M1384.04,654.509L1384.04,550.086L1646.31,550.086L1646.31,445.662L1785.42,602.298L1646.31,758.933L1646.31,654.509L1384.04,654.509Z" transform="matrix(1.80182e-17,0.222481,-0.0987897,2.98106e-17,7603.62,834.906)" style="fill:#87f5bc"/></g></g><g><text x="801.321" y="880.771" transform="matrix(3.03705e-16,1,-1,-3.50049e-16,8912.59,-246.371)" style="font-family:'Lato-Bold','Lato',sans-serif;font-weight:700;font-size:96px;fill:#d5a6a7;fill-opacity:.5">MICR<tspan x="1045.69 1122.44" y="880.771 880.771">OS</tspan>ERVICE</text></g></g><g transform="matrix(1,0,0,1,0,2088)"><g id="Infrastructure3" transform="matrix(0.585142,0,0,0.462019,7086.55,410.018)"><rect width="1920" height="2160" x="0" y="0" style="fill:#fdeaed;stroke:#f17184;stroke-width:6.32px;stroke-linecap:round;stroke-dasharray:31.61,31.61,0,0"/></g><g><g><g transform="matrix(4.12064e-17,0.672952,-0.538178,3.29539e-17,8992.02,26.4883) matrix(0.708245,0,0,0.430445,467.078,1871.2)"><rect width="315.768" height="3279.21" x="654.082" y="263.503" style="fill:#f2f8fe;stroke:#9cc1f3;stroke-width:8.9px"/></g><g><text x="1045.03" y="704.471" transform="matrix(4.12064e-17,0.672952,-0.538178,3.29539e-17,8992.02,26.4883) matrix(1.13777e-16,-1.85812,1.48599,9.09907e-17,17.3943,5124.8)" style="font-family:'Lato-Bold','Lato',sans-serif;font-weight:700;font-size:40px;fill:#48669d;fill-opacity:.5">BOUNDED CONTEXT PHASE</text></g></g><g><g transform="matrix(4.12064e-17,0.672952,-0.538178,3.29539e-17,8992.02,-154.025) matrix(0.708245,0,0,0.430445,467.078,1871.2)"><rect width="315.768" height="3279.21" x="654.082" y="263.503" style="fill:#fbfcfd;stroke:#9cc1f3;stroke-width:8.9px"/></g><g><text x="1171.89" y="704.471" transform="matrix(4.12064e-17,0.672952,-0.538178,3.29539e-17,8992.02,-154.025) matrix(1.13777e-16,-1.85812,1.48599,9.09907e-17,17.3943,5124.8)" style="font-family:'Lato-Bold','Lato',sans-serif;font-weight:700;font-size:40px;fill:#1280e7;fill-opacity:.5">INITIAL PHASE</text></g></g><g><g transform="matrix(4.12064e-17,0.672952,-0.538178,3.29539e-17,8993.02,206.989) matrix(0.708245,0,0,0.430445,467.078,1871.2)"><rect width="315.768" height="3279.21" x="654.082" y="263.503" style="fill:#f3f2fe;stroke:#d282d3;stroke-width:8.9px"/></g><g><text x="950.152" y="704.471" transform="matrix(4.12064e-17,0.672952,-0.538178,3.29539e-17,8993.02,206.989) matrix(1.13777e-16,-1.85812,1.48599,9.09907e-17,17.3943,5124.8)" style="font-family:'Lato-Bold','Lato',sans-serif;font-weight:700;font-size:40px;fill:#d5a6d0;fill-opacity:.5">BOUNDED CONTEXT GR<tspan x="1406.55 1438.53" y="704.471 704.471">OW</tspan>TH PHASE</text></g></g><g><g transform="matrix(4.12064e-17,0.672952,-0.538178,3.29539e-17,8993.02,388.189) matrix(0.708245,0,0,0.430445,467.078,1871.2)"><rect width="315.768" height="3279.21" x="654.082" y="263.503" style="fill:#fbf2fe;stroke:#d282d3;stroke-width:8.9px"/></g><g><text x="1059.91" y="704.471" transform="matrix(4.12064e-17,0.672952,-0.538178,3.29539e-17,8993.02,388.189) matrix(1.13777e-16,-1.85812,1.48599,9.09907e-17,17.3943,5124.8)" style="font-family:'Lato-Bold','Lato',sans-serif;font-weight:700;font-size:40px;fill:#d5a6d0;fill-opacity:.5">MODULARIZA<tspan x="1326.09 1349.89" y="704.471 704.471">TI</tspan>ON PHASE</text></g></g><g><g transform="matrix(4.12064e-17,0.672952,-0.538178,3.29539e-17,8993.02,569.389) matrix(0.708245,0,0,0.430445,467.078,1871.2)"><rect width="315.768" height="3279.21" x="654.082" y="263.503" style="fill:#fef2f4;stroke:#d282d3;stroke-width:8.9px"/></g><g><text x="1061.52" y="704.471" transform="matrix(4.12064e-17,0.672952,-0.538178,3.29539e-17,8993.02,569.389) matrix(1.13777e-16,-1.85812,1.48599,9.09907e-17,17.3943,5124.8)" style="font-family:'Lato-Bold','Lato',sans-serif;font-weight:700;font-size:40px;fill:#d5a6d0;fill-opacity:.5">MODULE GR<tspan x="1295.18 1327.16" y="704.471 704.471">OW</tspan>TH PHASE</text></g></g></g><g><g><path d="M1384.04,654.509L1384.04,550.086L1646.31,550.086L1646.31,445.662L1785.42,602.298L1646.31,758.933L1646.31,654.509L1384.04,654.509Z" transform="matrix(1.80182e-17,0.222481,-0.0987897,2.98106e-17,7603.62,291.426)" style="fill:#87f5bc"/></g><g><path d="M1384.04,654.509L1384.04,550.086L1646.31,550.086L1646.31,445.662L1785.42,602.298L1646.31,758.933L1646.31,654.509L1384.04,654.509Z" transform="matrix(1.80182e-17,0.222481,-0.0987897,2.98106e-17,7603.62,471.814)" style="fill:#87f5bc"/></g><g><path d="M1384.04,654.509L1384.04,550.086L1646.31,550.086L1646.31,445.662L1785.42,602.298L1646.31,758.933L1646.31,654.509L1384.04,654.509Z" transform="matrix(1.80182e-17,0.222481,-0.0987897,2.98106e-17,7603.62,652.888)" style="fill:#87f5bc"/></g><g><path d="M1384.04,654.509L1384.04,550.086L1646.31,550.086L1646.31,445.662L1785.42,602.298L1646.31,758.933L1646.31,654.509L1384.04,654.509Z" transform="matrix(1.80182e-17,0.222481,-0.0987897,2.98106e-17,7603.62,834.906)" style="fill:#87f5bc"/></g></g><g><text x="801.321" y="880.771" transform="matrix(3.03705e-16,1,-1,-3.50049e-16,8912.59,-246.371)" style="font-family:'Lato-Bold','Lato',sans-serif;font-weight:700;font-size:96px;fill:#d5a6a7;fill-opacity:.5">MICR<tspan x="1045.69 1122.44" y="880.771 880.771">OS</tspan>ERVICE</text></g></g></g><g><text x="1147.89" y="696.582" transform="matrix(1,-1.157e-18,-2.77157e-18,1,6158.36,3000.8)" style="font-family:'Lato-Bold','Lato',sans-serif;font-weight:700;font-size:64px;fill:#f17184;fill-opacity:.5">MICR<tspan x="1310.8 1361.97" y="696.582 696.582">OS</tspan>ERVICES PHASE</text></g></g></g></g><g><text x="612.923" y="3249.23" transform="matrix(1,0,0,1,-478.532,559.866)" style="font-family:'Lato-Bold','Lato',sans-serif;font-weight:700;font-size:48px;fill:#cbd4ea">© MA<tspan x="735.371 763.931" y="3249.23 3249.23">TU</tspan>SZEW</text></g><g id="Progress-Arrows"><g><path d="M1384.04,654.509L1384.04,550.086L1724.43,550.086L1724.43,445.662L1785.42,602.298L1724.43,758.933L1724.43,654.509L1384.04,654.509Z" transform="matrix(0.919283,-8.02686e-17,7.63848e-17,0.178951,-67.0078,3691.33)" style="fill:#87f5bc"/></g><g><path d="M1384.04,654.509L1384.04,550.086L1724.43,550.086L1724.43,445.662L1785.42,602.298L1724.43,758.933L1724.43,654.509L1384.04,654.509Z" transform="matrix(0.919283,-8.02686e-17,7.63848e-17,0.178951,1322.79,3691.33)" style="fill:#87f5bc"/></g><g><path d="M1384.04,654.509L1384.04,550.086L1724.43,550.086L1724.43,445.662L1785.42,602.298L1724.43,758.933L1724.43,654.509L1384.04,654.509Z" transform="matrix(0.919283,-8.02686e-17,7.63848e-17,0.178951,2714.79,3691.33)" style="fill:#87f5bc"/></g><g><path d="M1384.04,654.509L1384.04,550.086L1724.43,550.086L1724.43,445.662L1785.42,602.298L1724.43,758.933L1724.43,654.509L1384.04,654.509Z" transform="matrix(0.919283,-8.02686e-17,7.63848e-17,0.178951,4106.76,3691.33)" style="fill:#87f5bc"/></g><g><path d="M1384.04,654.509L1384.04,550.086L1724.43,550.086L1724.43,445.662L1785.42,602.298L1724.43,758.933L1724.43,654.509L1384.04,654.509Z" transform="matrix(0.919283,-8.02686e-17,7.63848e-17,0.178951,5496.56,3691.33)" style="fill:#87f5bc"/></g></g></g></svg>