<svg xmlns="http://www.w3.org/2000/svg" xmlns:xlink="http://www.w3.org/1999/xlink" width="100%" height="100%" version="1.1" viewBox="0 0 25000 16294" xml:space="preserve" style="fill-rule:evenodd;clip-rule:evenodd;stroke-linecap:square;stroke-linejoin:round;stroke-miterlimit:1.5"><g transform="matrix(4.16667,0,0,4.16667,0,0)"><g id="User-Interface" transform="matrix(2.87952,0,0,1.70728,471.328,110.819)"><rect width="1920" height="2160" x="0" y="0" style="fill:#fbfcfd"/></g><g id="UI-"><g><text x="2766.95" y="1274.33" transform="matrix(1,0,0,1,1009.18,5.18545) matrix(1,3.1095e-17,-1.30123e-17,1,-2075.12,-746.925)" style="font-family:'Lato-Bold','Lato',sans-serif;font-weight:700;font-size:384px;fill:#87a9ca;fill-opacity:.1">USER INTERF<tspan x="5096.1 5358.95 5616.42" y="1274.33 1274.33 1274.33">ACE</tspan></text></g><g><g><g transform="matrix(1,0,0,1,1009.18,5.18545) matrix(0.675398,0,0,0.903683,3853.62,375.663) matrix(8.43839,-7.64207e-32,1.24197e-31,1,-9501.4,-3.97904e-13) matrix(2.25538,0,-2.76623e-48,1.01071,-990.819,44.0714)"><rect width="315.768" height="3279.21" x="654.082" y="263.503" style="fill:#f3f2fe;stroke:#525a6c;stroke-width:.37px;stroke-dasharray:1.83,1.83,0,0"/></g><g><text x="1384.61" y="912.823" transform="matrix(1,0,0,1,1009.18,5.18545) matrix(0.675398,0,0,0.903683,3853.62,375.663) matrix(8.43839,-7.64207e-32,1.24197e-31,1,-9501.4,-3.97904e-13) matrix(0.175461,-1.23736e-17,6.22647e-16,1.10658,486.774,-467.053)" style="font-family:'Lato-Bold','Lato',sans-serif;font-weight:700;font-size:128px;fill:#48669d;fill-opacity:.5">BOUNDED CONTEXT</text></g></g><g><g transform="matrix(1,0,0,1,1009.18,5.18545) matrix(0.675398,0,0,0.903683,3853.62,375.663) matrix(1.01322e-15,12.367,-3.89367,1.78189e-16,8066.32,-10808.6) matrix(0.708249,0,-1.32641e-33,0.430448,467.075,1871.2)"><rect width="315.768" height="3279.21" x="654.082" y="263.503" style="fill:#f2f8fe;stroke:#9cc1f3;stroke-width:.59px"/></g><g><text x="2581.98" y="820.453" transform="matrix(1,0,0,1,1009.18,5.18545) matrix(0.675398,0,0,0.903683,3853.62,375.663) matrix(1.01322e-15,12.367,-3.89367,1.78189e-16,8066.32,-10808.6) matrix(7.90715e-18,-0.38026,0.0894786,-1.07277e-16,875.356,3749.91)" style="font-family:'Lato-Bold','Lato',sans-serif;font-weight:700;font-size:96px;fill:#1280e7;fill-opacity:.5">DOMAIN</text></g></g></g></g><g><g transform="matrix(1.3418e-16,2.19132,-1.0282,6.29588e-17,4603.32,-1024.53) matrix(5.10269e-17,-0.833333,0.833333,5.10269e-17,-494.064,3413.82)"><rect width="1115.04" height="272.274" x="1942.86" y="1982.18" style="fill:#fff;stroke:#9cc1f3;stroke-width:2.34px;stroke-linecap:round"/></g><g><text x="969.848" y="886.737" transform="matrix(1.3418e-16,2.19132,-1.0282,6.29588e-17,4603.32,-1024.53) matrix(2.31804e-16,-0.972577,0.456346,-1.52409e-17,877.39,2443.31)" style="font-family:'Lato-Bold','Lato',sans-serif;font-weight:700;font-size:64px;fill:#1280e7;fill-opacity:.5">RESOL<tspan x="1160.89 1206.33" y="886.737 886.737">VE</tspan>RS</text></g></g><g><g transform="matrix(1.19879,5.65689e-32,4.04594e-33,1.96612,3263.34,-350.422) matrix(5.10269e-17,-0.833333,0.833333,5.10269e-17,-494.064,3413.82)"><rect width="1115.04" height="272.274" x="1942.86" y="1982.18" style="fill:#fbf1e8;stroke:#ee5168;stroke-width:2.46px;stroke-linecap:round"/></g><g><text x="1068.55" y="774.137" transform="matrix(1.19879,5.65689e-32,4.04594e-33,1.96612,3263.34,-350.422) matrix(1.21223e-16,-0.508615,0.834173,-2.78595e-17,645.267,2011.67)" style="font-family:'Lato-Bold','Lato',sans-serif;font-weight:700;font-size:64px;fill:#f4d9c4">DOMAIN SERVICE</text></g></g><g><g transform="matrix(1.34177e-16,2.19127,-1.02817,6.29572e-17,4603.3,-26.2608) matrix(5.10269e-17,-0.833333,0.833333,5.10269e-17,-494.064,3413.82)"><rect width="1115.04" height="272.274" x="1942.86" y="1982.18" style="fill:#fff;stroke:#9cc1f3;stroke-width:2.34px;stroke-linecap:round"/></g><g><text x="937.085" y="886.731" transform="matrix(1.34177e-16,2.19127,-1.02817,6.29572e-17,4603.3,-26.2608) matrix(2.15894e-16,-0.972602,0.456356,-2.15749e-17,877.384,2460.98)" style="font-family:'Lato-Bold','Lato',sans-serif;font-weight:700;font-size:64px;fill:#1280e7;fill-opacity:.5">CONTR<tspan x="1158.01 1209.18" y="886.731 886.731">OL</tspan>LERS</text></g></g><g><g><g transform="matrix(1.2,0,0,1.2,0,5.18545) matrix(1,0,0,0.856808,133.014,323.539) matrix(5.10269e-17,-0.833333,0.833333,5.10269e-17,-494.064,3413.82)"><rect width="1115.04" height="272.274" x="1942.86" y="1982.18" style="fill:#fff;stroke:#9cc1f3;stroke-width:3.58px;stroke-linecap:round"/></g><g><text x="991.394" y="774.274" transform="matrix(1.2,0,0,1.2,0,5.18545) matrix(1,0,0,0.856808,133.014,323.539) matrix(2.3181e-16,-0.972602,0.833333,-2.78315e-17,645.783,2443.33)" style="font-family:'Lato-Bold','Lato',sans-serif;font-weight:700;font-size:64px;fill:#1280e7;fill-opacity:.5">GRAPHQL</text></g></g><g><g transform="matrix(1.2,0,0,1.2,0,5.18545) matrix(5.10269e-17,0.833333,-0.833333,5.10269e-17,2106.23,254.899) matrix(0.505913,0,0,0.505913,381.449,411.288)"><circle cx="791.794" cy="852.188" r="19.766" style="fill:#9cc1f3"/></g><g transform="matrix(1.2,0,0,1.2,0,5.18545) matrix(5.10269e-17,0.833333,-0.833333,5.10269e-17,2106.23,254.899) matrix(0.505913,0,0,0.505913,421.449,411.288)"><circle cx="791.794" cy="852.188" r="19.766" style="fill:#9cc1f3"/></g><g transform="matrix(1.2,0,0,1.2,0,5.18545) matrix(5.10269e-17,0.833333,-0.833333,5.10269e-17,2106.23,254.899) matrix(0.505913,0,0,0.505913,461.449,411.288)"><circle cx="791.794" cy="852.188" r="19.766" style="fill:#9cc1f3"/></g></g><g><g transform="matrix(1.2,0,0,1.2,0,5.18545) matrix(5.10269e-17,0.833333,-0.833333,5.10269e-17,2106.23,2133.44) matrix(0.505913,0,0,0.505913,381.449,411.288)"><circle cx="791.794" cy="852.188" r="19.766" style="fill:#9cc1f3"/></g><g transform="matrix(1.2,0,0,1.2,0,5.18545) matrix(5.10269e-17,0.833333,-0.833333,5.10269e-17,2106.23,2133.44) matrix(0.505913,0,0,0.505913,421.449,411.288)"><circle cx="791.794" cy="852.188" r="19.766" style="fill:#9cc1f3"/></g><g transform="matrix(1.2,0,0,1.2,0,5.18545) matrix(5.10269e-17,0.833333,-0.833333,5.10269e-17,2106.23,2133.44) matrix(0.505913,0,0,0.505913,461.449,411.288)"><circle cx="791.794" cy="852.188" r="19.766" style="fill:#9cc1f3"/></g></g><g><g transform="matrix(1.2,0,0,1.2,0,5.18545) matrix(1,0,0,0.856808,133.014,323.539) matrix(5.10269e-17,-0.833333,0.833333,5.10269e-17,-494.064,4384.68)"><rect width="1115.04" height="272.274" x="1942.86" y="1982.18" style="fill:#fff;stroke:#9cc1f3;stroke-width:3.58px;stroke-linecap:round"/></g><g><text x="1069.04" y="774.274" transform="matrix(1.2,0,0,1.2,0,5.18545) matrix(1,0,0,0.856808,133.014,323.539) matrix(2.3181e-16,-0.972602,0.833333,-2.78315e-17,645.783,3414.2)" style="font-family:'Lato-Bold','Lato',sans-serif;font-weight:700;font-size:64px;fill:#1280e7;fill-opacity:.5">REST</text></g></g></g><g id="DI-Injection"><path d="M1384.04,654.509L1384.04,550.086L1752.19,550.086L1752.19,445.662L1785.42,602.298L1752.19,758.933L1752.19,654.509L1384.04,654.509Z" transform="matrix(5.41361e-16,2.80295,-0.297296,2.10682e-16,4966.3,-3823.48)" style="fill:#87f5bc"/></g><g id="Flow-Group"><g id="Domain-Flow"><g><g><path d="M3000,495.796L4000,495.796" transform="matrix(1,0,0,1,5.92901,499.152) matrix(-1.0727,-1.31368e-16,1.22465e-16,-1,9218.09,2258.92)" style="fill:none;stroke:#facea6;stroke-width:12.86px"/></g><g><g transform="matrix(1,0,0,1,5.92901,499.152) matrix(-2.37252,-2.9055e-16,2.74446e-16,-2.24102,9837.72,4187.07) matrix(0.54002,0,0,0.54002,792.483,804.497)"><circle cx="2369.26" cy="514.885" r="30.987" style="fill:#facea6"/></g><g transform="matrix(1,0,0,1,5.92901,499.152) matrix(-2.37252,-2.9055e-16,2.74446e-16,-2.24102,9837.72,4187.07) matrix(0.466128,0,0,0.466128,967.551,842.543)"><circle cx="2369.26" cy="514.885" r="30.987" style="fill:#fbfcfd"/></g><g transform="matrix(1,0,0,1,5.92901,499.152) matrix(-2.37252,-2.9055e-16,2.74446e-16,-2.24102,9837.72,4187.07) matrix(0.334498,0,0,0.334498,1279.42,910.317)"><circle cx="2369.26" cy="514.885" r="30.987" style="fill:#facea6"/></g></g></g><g><path d="M1384.04,654.509L1384.04,550.086L1667.6,550.086L1667.6,445.662L1785.42,602.298L1667.6,758.933L1667.6,654.509L1384.04,654.509Z" transform="matrix(0.443183,-4.996e-17,9.15934e-17,0.16668,4744.76,2105.49)" style="fill:#87f5bc"/></g></g><g><g><path d="M322.927,495.796L2000,495.796" transform="matrix(0.516922,0,0,0.224376,1686.63,1649.82)" style="fill:none;stroke:#7d92d0;stroke-width:33.46px"/></g><g><g transform="matrix(9.89305e-17,1.61566,-0.643419,3.93981e-17,3145.44,298.041) matrix(3.93846e-17,-0.833333,0.416667,4.0994e-18,331.843,3413.82)"><rect width="1115.04" height="272.274" x="1942.86" y="1982.18" style="fill:#fff;stroke:#9cc1f3;stroke-width:5.48px;stroke-linecap:round"/></g><g><text x="966.501" y="720.867" transform="matrix(9.89305e-17,1.61566,-0.643419,3.93981e-17,3145.44,298.041) matrix(1.15558e-16,-1.5542,0.618943,-3.64718e-16,777.496,3240.68)" style="font-family:'Lato-Bold','Lato',sans-serif;font-weight:700;font-size:40px;fill:#1280e7;fill-opacity:.5">UI MAPPER - DOMAIN T<tspan x="1410.64 1442.62" y="720.867 720.867">O </tspan>UI</text></g></g><g><path d="M322.927,495.796L2000,495.796" transform="matrix(2.16991e-17,0.238436,-0.15382,6.3373e-18,2591.98,1691.7)" style="fill:none;stroke:#7d92d0;stroke-width:66.45px;stroke-dasharray:66.45,199.36,0,0"/></g><g><path d="M322.927,495.796L2000,495.796" transform="matrix(2.16991e-17,0.238436,-0.15382,6.3373e-18,2146.32,1691.7)" style="fill:none;stroke:#7d92d0;stroke-width:66.45px;stroke-dasharray:66.45,199.36,0,0"/></g><g><path d="M1384.04,654.509L1384.04,550.086L1667.6,550.086L1667.6,445.662L1785.42,602.298L1667.6,758.933L1667.6,654.509L1384.04,654.509Z" transform="matrix(-2.04558e-17,0.288245,-0.108408,3.96579e-17,2630.42,1498.4)" style="fill:#87f5bc"/></g><g><path d="M1384.04,654.509L1384.04,550.086L1667.6,550.086L1667.6,445.662L1785.42,602.298L1667.6,758.933L1667.6,654.509L1384.04,654.509Z" transform="matrix(5.57556e-17,-0.288245,0.108408,-2.63817e-17,1948.74,2411.97)" style="fill:#87f5bc"/></g><g><path d="M1384.04,654.509L1384.04,550.086L1667.6,550.086L1667.6,445.662L1785.42,602.298L1667.6,758.933L1667.6,654.509L1384.04,654.509Z" transform="matrix(0.443183,-4.996e-17,9.15934e-17,0.16668,1587.26,1565.28)" style="fill:#87f5bc"/></g><g><path d="M1384.04,654.509L1384.04,550.086L1667.6,550.086L1667.6,445.662L1785.42,602.298L1667.6,758.933L1667.6,654.509L1384.04,654.509Z" transform="matrix(-0.443183,-4.3142e-18,-7.1181e-17,-0.16668,2991.91,1975.99)" style="fill:#87f5bc"/></g><g><text x="1066.17" y="1413.06" transform="matrix(1,0,0,1,1095.85,407.935)" style="font-family:'Lato-Regular','Lato',sans-serif;font-size:32px;fill:#5f78b2">DOMAIN MODEL</text></g><g><text x="1056.24" y="1413.06" transform="matrix(1,0,0,1,1141.55,327.366)" style="font-family:'Lato-Regular','Lato',sans-serif;font-size:32px;fill:#5f78b2">INPUT D<tspan x="1181.65 1201.3" y="1413.06 1413.06">AT</tspan>A</text></g><g><g transform="matrix(2.24102,0,0,2.24102,-1885.27,-664.945) matrix(0.54002,0,0,0.54002,792.483,804.497)"><circle cx="2369.26" cy="514.885" r="30.987" style="fill:#7d92d0"/></g><g transform="matrix(2.24102,0,0,2.24102,-1885.27,-664.945) matrix(0.466128,0,0,0.466128,967.551,842.543)"><circle cx="2369.26" cy="514.885" r="30.987" style="fill:#fbfcfd"/></g><g transform="matrix(2.24102,0,0,2.24102,-1885.27,-664.945) matrix(0.334498,0,0,0.334498,1279.42,910.317)"><circle cx="2369.26" cy="514.885" r="30.987" style="fill:#7d92d0"/></g></g><g><g transform="matrix(2.24102,0,0,2.24102,-2822.06,-664.945) matrix(0.54002,0,0,0.54002,792.483,804.497)"><circle cx="2369.26" cy="514.885" r="30.987" style="fill:#7d92d0"/></g><g transform="matrix(2.24102,0,0,2.24102,-2822.06,-664.945) matrix(0.466128,0,0,0.466128,967.551,842.543)"><circle cx="2369.26" cy="514.885" r="30.987" style="fill:#fbfcfd"/></g><g transform="matrix(2.24102,0,0,2.24102,-2822.06,-664.945) matrix(0.334498,0,0,0.334498,1279.42,910.317)"><circle cx="2369.26" cy="514.885" r="30.987" style="fill:#7d92d0"/></g></g></g><g><g><g><g transform="matrix(1,0,0,1,0,990.357) matrix(1,0,0,1,0,-990.357) matrix(9.89305e-17,1.61566,-0.643419,3.93981e-17,3145.44,1289.41) matrix(3.93846e-17,-0.833333,0.416667,4.0994e-18,331.843,3413.82)"><rect width="1115.04" height="272.274" x="1942.86" y="1982.18" style="fill:#fff;stroke:#9cc1f3;stroke-width:5.48px;stroke-linecap:round"/></g><g><text x="966.501" y="720.867" transform="matrix(1,0,0,1,0,990.357) matrix(1,0,0,1,0,-990.357) matrix(9.89305e-17,1.61566,-0.643419,3.93981e-17,3145.44,1289.41) matrix(1.15558e-16,-1.5542,0.618943,-3.64718e-16,777.496,3240.68)" style="font-family:'Lato-Bold','Lato',sans-serif;font-weight:700;font-size:40px;fill:#1280e7;fill-opacity:.5">UI MAPPER - DOMAIN T<tspan x="1410.64 1442.62" y="720.867 720.867">O </tspan>UI</text></g></g><g><path d="M322.927,495.796L2000,495.796" transform="matrix(1,0,0,1,0,990.357) matrix(1,0,0,1,0,-990.357) matrix(2.16991e-17,0.238436,-0.15382,6.3373e-18,2591.98,2682.28)" style="fill:none;stroke:#7d92d0;stroke-width:66.45px;stroke-dasharray:66.45,199.36,0,0"/></g><g><path d="M322.927,495.796L2000,495.796" transform="matrix(1,0,0,1,0,990.357) matrix(1,0,0,1,0,-990.357) matrix(2.16991e-17,0.238436,-0.15382,6.3373e-18,2146.32,2682.28)" style="fill:none;stroke:#7d92d0;stroke-width:66.45px;stroke-dasharray:66.45,199.36,0,0"/></g><g><path d="M1384.04,654.509L1384.04,550.086L1667.6,550.086L1667.6,445.662L1785.42,602.298L1667.6,758.933L1667.6,654.509L1384.04,654.509Z" transform="matrix(1,0,0,1,0,990.357) matrix(1,0,0,1,0,-990.357) matrix(-2.04558e-17,0.288245,-0.108408,3.96579e-17,2633.71,2502.43)" style="fill:#87f5bc"/></g><g><path d="M1384.04,654.509L1384.04,550.086L1667.6,550.086L1667.6,445.662L1785.42,602.298L1667.6,758.933L1667.6,654.509L1384.04,654.509Z" transform="matrix(1,0,0,1,0,990.357) matrix(1,0,0,1,0,-990.357) matrix(5.57556e-17,-0.288245,0.108408,-2.63817e-17,1952.03,3416.01)" style="fill:#87f5bc"/></g></g><g><text x="1066.17" y="1413.06" transform="matrix(1,0,0,1,0,990.357) matrix(1,0,0,1,1095.85,410.72)" style="font-family:'Lato-Regular','Lato',sans-serif;font-size:32px;fill:#5f78b2">DOMAIN MODEL</text></g><g><text x="1032.89" y="1413.06" transform="matrix(1,0,0,1,0,990.357) matrix(1,0,0,1,1141.55,330.151)" style="font-family:'Lato-Regular','Lato',sans-serif;font-size:32px;fill:#5f78b2">P<tspan x="1050.24 1069.38 1089.5 1104.67 1129.54 1151.3" y="1413.06 1413.06 1413.06 1413.06 1413.06 1413.06">AYLOAD</tspan> D<tspan x="1204.99 1224.64" y="1413.06 1413.06">AT</tspan>A</text></g><g><path d="M1384.04,654.509L1384.04,550.086L1667.6,550.086L1667.6,445.662L1785.42,602.298L1667.6,758.933L1667.6,654.509L1384.04,654.509Z" transform="matrix(1,0,0,1,0,990.357) matrix(0.443183,-4.996e-17,9.15934e-17,0.16668,1587.26,1565.61)" style="fill:#87f5bc"/></g><g><path d="M1384.04,654.509L1384.04,550.086L1667.6,550.086L1667.6,445.662L1785.42,602.298L1667.6,758.933L1667.6,654.509L1384.04,654.509Z" transform="matrix(1,0,0,1,0,990.357) matrix(-0.443183,-4.3142e-18,-7.1181e-17,-0.16668,2991.91,1976.33)" style="fill:#87f5bc"/></g><g><path d="M322.927,495.796L2000,495.796" transform="matrix(1,0,0,1,0,990.357) matrix(0.516922,0,0,0.224376,1686.63,1657.45)" style="fill:none;stroke:#7d92d0;stroke-width:33.46px"/></g><g><g transform="matrix(1,0,0,1,0,990.357) matrix(2.24102,0,0,2.24102,-1885.27,-657.086) matrix(0.54002,0,0,0.54002,792.483,804.497)"><circle cx="2369.26" cy="514.885" r="30.987" style="fill:#7d92d0"/></g><g transform="matrix(1,0,0,1,0,990.357) matrix(2.24102,0,0,2.24102,-1885.27,-657.086) matrix(0.466128,0,0,0.466128,967.551,842.543)"><circle cx="2369.26" cy="514.885" r="30.987" style="fill:#fbfcfd"/></g><g transform="matrix(1,0,0,1,0,990.357) matrix(2.24102,0,0,2.24102,-1885.27,-657.086) matrix(0.334498,0,0,0.334498,1279.42,910.317)"><circle cx="2369.26" cy="514.885" r="30.987" style="fill:#7d92d0"/></g></g><g><g transform="matrix(1,0,0,1,0,990.357) matrix(2.24102,0,0,2.24102,-2822.06,-657.086) matrix(0.54002,0,0,0.54002,792.483,804.497)"><circle cx="2369.26" cy="514.885" r="30.987" style="fill:#7d92d0"/></g><g transform="matrix(1,0,0,1,0,990.357) matrix(2.24102,0,0,2.24102,-2822.06,-657.086) matrix(0.466128,0,0,0.466128,967.551,842.543)"><circle cx="2369.26" cy="514.885" r="30.987" style="fill:#fbfcfd"/></g><g transform="matrix(1,0,0,1,0,990.357) matrix(2.24102,0,0,2.24102,-2822.06,-657.086) matrix(0.334498,0,0,0.334498,1279.42,910.317)"><circle cx="2369.26" cy="514.885" r="30.987" style="fill:#7d92d0"/></g></g></g><g><g><text x="969.871" y="1413.06" transform="matrix(1,0,0,1,1892.56,988.137) matrix(1,0,0,1,1141.55,327.539)" style="font-family:'Lato-Regular','Lato',sans-serif;font-size:32px;fill:#5f78b2">REQUEST OBJECT D<tspan x="1268.02 1287.66" y="1413.06 1413.06">AT</tspan>A</text></g><g><text x="1020.46" y="1413.06" transform="matrix(1,0,0,1,1892.56,988.137) matrix(1,0,0,1,1141.55,412.202)" style="font-family:'Lato-Regular','Lato',sans-serif;font-size:32px;fill:#5f78b2">DOMAIN MODEL</text></g><g><path d="M1384.04,654.509L1384.04,550.086L1667.6,550.086L1667.6,445.662L1785.42,602.298L1667.6,758.933L1667.6,654.509L1384.04,654.509Z" transform="matrix(1,0,0,1,1892.56,988.137) matrix(-0.443183,-4.3142e-18,-7.1181e-17,-0.16668,2991.91,1978.55)" style="fill:#87f5bc"/></g><g><path d="M1384.04,654.509L1384.04,550.086L1667.6,550.086L1667.6,445.662L1785.42,602.298L1667.6,758.933L1667.6,654.509L1384.04,654.509Z" transform="matrix(1,0,0,1,1892.56,988.137) matrix(0.443183,-4.996e-17,9.15934e-17,0.16668,1587.26,1567.83)" style="fill:#87f5bc"/></g><g><path d="M322.927,495.796L2000,495.796" transform="matrix(1,0,0,1,1892.56,988.137) matrix(0.516922,0,0,0.224376,1686.63,1657.45)" style="fill:none;stroke:#7d92d0;stroke-width:33.46px"/></g><g><g transform="matrix(1,0,0,1,1892.56,988.137) matrix(2.24102,0,0,2.24102,-1885.27,-657.086) matrix(0.54002,0,0,0.54002,792.483,804.497)"><circle cx="2369.26" cy="514.885" r="30.987" style="fill:#7d92d0"/></g><g transform="matrix(1,0,0,1,1892.56,988.137) matrix(2.24102,0,0,2.24102,-1885.27,-657.086) matrix(0.466128,0,0,0.466128,967.551,842.543)"><circle cx="2369.26" cy="514.885" r="30.987" style="fill:#fbfcfd"/></g><g transform="matrix(1,0,0,1,1892.56,988.137) matrix(2.24102,0,0,2.24102,-1885.27,-657.086) matrix(0.334498,0,0,0.334498,1279.42,910.317)"><circle cx="2369.26" cy="514.885" r="30.987" style="fill:#7d92d0"/></g></g><g><g transform="matrix(1,0,0,1,1892.56,988.137) matrix(2.24102,0,0,2.24102,-2822.06,-657.086) matrix(0.54002,0,0,0.54002,792.483,804.497)"><circle cx="2369.26" cy="514.885" r="30.987" style="fill:#7d92d0"/></g><g transform="matrix(1,0,0,1,1892.56,988.137) matrix(2.24102,0,0,2.24102,-2822.06,-657.086) matrix(0.466128,0,0,0.466128,967.551,842.543)"><circle cx="2369.26" cy="514.885" r="30.987" style="fill:#fbfcfd"/></g><g transform="matrix(1,0,0,1,1892.56,988.137) matrix(2.24102,0,0,2.24102,-2822.06,-657.086) matrix(0.334498,0,0,0.334498,1279.42,910.317)"><circle cx="2369.26" cy="514.885" r="30.987" style="fill:#7d92d0"/></g></g></g><g><g><text x="1007.18" y="1413.06" transform="matrix(0.571789,0,0,1,793.701,-299.683) matrix(1.07089e-16,-1,1.7489,6.12323e-17,-2208.3,3452.61)" style="font-family:'Lato-Regular','Lato',sans-serif;font-size:32px;fill:#5f78b2">CLIENT REQUESTS</text></g><g><text x="1000.05" y="1413.06" transform="matrix(0.571789,0,0,1,793.701,-299.683) matrix(1.07089e-16,-1,1.7489,6.12323e-17,-2067.39,3452.61)" style="font-family:'Lato-Regular','Lato',sans-serif;font-size:32px;fill:#5f78b2">SERVER RESPONDS</text></g><g><text x="1007.18" y="1413.06" transform="matrix(0.571789,0,0,1,793.701,-299.683) matrix(1.07089e-16,-1,1.7489,6.12323e-17,-2208.3,3965.15)" style="font-family:'Lato-Regular','Lato',sans-serif;font-size:32px;fill:#5f78b2">CLIENT REQUESTS</text></g><g><text x="1000.05" y="1413.06" transform="matrix(0.571789,0,0,1,793.701,-299.683) matrix(1.07089e-16,-1,1.7489,6.12323e-17,-2067.39,3965.15)" style="font-family:'Lato-Regular','Lato',sans-serif;font-size:32px;fill:#5f78b2">SERVER RESPONDS</text></g><g><g><path d="M1258.72,1209.62L676.159,1209.62" transform="matrix(0.571789,0,0,1,793.701,-299.683) matrix(1.61764,0,0,1,-780.943,851.126)" style="fill:none;stroke:#525a6c;stroke-width:13.84px"/></g><g><path d="M1258.72,1209.62L676.159,1209.62" transform="matrix(0.571789,0,0,1,793.701,-299.683) matrix(1.61764,0,0,1,-780.943,1849.34)" style="fill:none;stroke:#525a6c;stroke-width:13.84px"/></g><g><path d="M1287.65,1209.62L676.159,1209.62" transform="matrix(0.571789,0,0,1,793.701,-299.683) matrix(0.325156,0,0,1,-105.852,1350.23)" style="fill:none;stroke:#525a6c;stroke-width:18.54px"/></g><g><path d="M676.159,2677.71L676.159,1209.62" transform="matrix(0.571789,0,0,1,793.701,-299.683) matrix(1,-4.24472e-17,-1.47172e-16,0.679944,-363.323,1238.27)" style="fill:none;stroke:#525a6c;stroke-width:21.22px"/></g><g><g transform="matrix(0.571789,0,0,1,793.701,-299.683) matrix(2.35647,0,0,1.3474,-2362.17,1289.65) matrix(1.06099,0,0,1.06099,-79.8258,-29.8675)"><circle cx="1548.31" cy="567.537" r="19.674" style="fill:#f0f2f7"/></g><g><path d="M1770.89,371.482C1786.25,371.482 1798.72,383.953 1798.72,399.313C1798.72,414.674 1786.25,427.145 1770.89,427.145C1755.53,427.145 1743.05,414.674 1743.05,399.313C1743.05,383.953 1755.53,371.482 1770.89,371.482ZM1770.89,378.44C1782.41,378.44 1791.76,387.793 1791.76,399.313C1791.76,410.834 1782.41,420.187 1770.89,420.187C1759.37,420.187 1750.01,410.834 1750.01,399.313C1750.01,387.793 1759.37,378.44 1770.89,378.44Z" transform="matrix(0.571789,0,0,1,793.701,-299.683) matrix(2.35647,0,0,1.3474,-2362.17,1289.65) matrix(1,0,0,1,-207.969,172.97)" style="fill:#1d263d"/></g><g transform="matrix(0.571789,0,0,1,793.701,-299.683) matrix(2.35647,0,0,1.3474,-2362.17,1289.65) matrix(0.536359,0,0,0.536359,613.086,358.108)"><circle cx="1770.89" cy="399.313" r="27.831" style="fill:#1d263d"/></g></g><g><g transform="matrix(0.571789,0,0,1,793.701,-299.683) matrix(2.35647,0,0,1.3474,-2362.17,2287.87) matrix(1.06099,0,0,1.06099,-79.8258,-29.8675)"><circle cx="1548.31" cy="567.537" r="19.674" style="fill:#f0f2f7"/></g><g><path d="M1770.89,371.482C1786.25,371.482 1798.72,383.953 1798.72,399.313C1798.72,414.674 1786.25,427.145 1770.89,427.145C1755.53,427.145 1743.05,414.674 1743.05,399.313C1743.05,383.953 1755.53,371.482 1770.89,371.482ZM1770.89,378.44C1782.41,378.44 1791.76,387.793 1791.76,399.313C1791.76,410.834 1782.41,420.187 1770.89,420.187C1759.37,420.187 1750.01,410.834 1750.01,399.313C1750.01,387.793 1759.37,378.44 1770.89,378.44Z" transform="matrix(0.571789,0,0,1,793.701,-299.683) matrix(2.35647,0,0,1.3474,-2362.17,2287.87) matrix(1,0,0,1,-207.969,172.97)" style="fill:#1d263d"/></g><g transform="matrix(0.571789,0,0,1,793.701,-299.683) matrix(2.35647,0,0,1.3474,-2362.17,2287.87) matrix(0.536359,0,0,0.536359,613.086,358.108)"><circle cx="1770.89" cy="399.313" r="27.831" style="fill:#1d263d"/></g></g></g><g><g><g><g><g><path d="M682.123,1226.78C682.123,1209.65 679.421,1195.75 676.093,1195.75L505.737,1195.75C502.409,1195.75 499.707,1209.65 499.707,1226.78L499.707,1468.97C499.707,1486.1 502.409,1500 505.737,1500L676.093,1500C679.421,1500 682.123,1486.1 682.123,1468.97L682.123,1226.78Z" transform="matrix(0.571789,0,0,1,793.701,-299.683) matrix(-0.998716,0,0,1,7491.61,671.542) matrix(-1.75115,0,0,1,9098.32,434.255) matrix(1,0,0,1,0,-5) matrix(0.845698,0,0,0.164339,321.366,1174.84)" style="fill:#1d263d"/></g><g><g><path d="M821.102,1398.91C821.102,1397.5 819.955,1396.35 818.543,1396.35L755.727,1396.35C754.314,1396.35 753.168,1397.5 753.168,1398.91L753.168,1404.02C753.168,1405.44 754.314,1406.58 755.727,1406.58L818.543,1406.58C819.955,1406.58 821.102,1405.44 821.102,1404.02L821.102,1398.91Z" transform="matrix(0.571789,0,0,1,793.701,-299.683) matrix(-0.998716,0,0,1,7491.61,671.542) matrix(-1.75115,0,0,1,9098.32,434.255) matrix(1,0,0,1,0,-5) matrix(1,0,0,1,0,-5.11727)" style="fill:#f0f2f7"/></g><g><path d="M821.102,1398.91C821.102,1397.5 813.492,1396.35 804.118,1396.35L770.151,1396.35C760.778,1396.35 753.168,1397.5 753.168,1398.91L753.168,1404.02C753.168,1405.44 760.778,1406.58 770.151,1406.58L804.118,1406.58C813.492,1406.58 821.102,1405.44 821.102,1404.02L821.102,1398.91Z" transform="matrix(0.571789,0,0,1,793.701,-299.683) matrix(-0.998716,0,0,1,7491.61,671.542) matrix(-1.75115,0,0,1,9098.32,434.255) matrix(1,0,0,1,0,-5) matrix(0.147202,0,0,0.977083,768.149,26.8823)" style="fill:#f0f2f7"/></g><g><path d="M821.102,1398.91C821.102,1397.5 813.492,1396.35 804.118,1396.35L770.151,1396.35C760.778,1396.35 753.168,1397.5 753.168,1398.91L753.168,1404.02C753.168,1405.44 760.778,1406.58 770.151,1406.58L804.118,1406.58C813.492,1406.58 821.102,1405.44 821.102,1404.02L821.102,1398.91Z" transform="matrix(0.571789,0,0,1,793.701,-299.683) matrix(-0.998716,0,0,1,7491.61,671.542) matrix(-1.75115,0,0,1,9098.32,434.255) matrix(1,0,0,1,0,-5) matrix(0.147202,0,0,0.977083,749.149,26.8823)" style="fill:#f0f2f7"/></g><g><path d="M821.102,1398.91C821.102,1397.5 813.492,1396.35 804.118,1396.35L770.151,1396.35C760.778,1396.35 753.168,1397.5 753.168,1398.91L753.168,1404.02C753.168,1405.44 760.778,1406.58 770.151,1406.58L804.118,1406.58C813.492,1406.58 821.102,1405.44 821.102,1404.02L821.102,1398.91Z" transform="matrix(0.571789,0,0,1,793.701,-299.683) matrix(-0.998716,0,0,1,7491.61,671.542) matrix(-1.75115,0,0,1,9098.32,434.255) matrix(1,0,0,1,0,-5) matrix(0.147202,0,0,0.977083,730.149,26.8823)" style="fill:#f0f2f7"/></g></g></g><g><g><path d="M682.123,1226.78C682.123,1209.65 679.421,1195.75 676.093,1195.75L505.737,1195.75C502.409,1195.75 499.707,1209.65 499.707,1226.78L499.707,1468.97C499.707,1486.1 502.409,1500 505.737,1500L676.093,1500C679.421,1500 682.123,1486.1 682.123,1468.97L682.123,1226.78Z" transform="matrix(0.571789,0,0,1,793.701,-299.683) matrix(-0.998716,0,0,1,7491.61,671.542) matrix(-1.75115,0,0,1,9098.32,434.255) matrix(1,0,0,1,0,-5) matrix(1,0,0,1,0,60) matrix(0.845698,0,0,0.164339,321.366,1174.84)" style="fill:#1d263d"/></g><g><g><path d="M821.102,1398.91C821.102,1397.5 819.955,1396.35 818.543,1396.35L755.727,1396.35C754.314,1396.35 753.168,1397.5 753.168,1398.91L753.168,1404.02C753.168,1405.44 754.314,1406.58 755.727,1406.58L818.543,1406.58C819.955,1406.58 821.102,1405.44 821.102,1404.02L821.102,1398.91Z" transform="matrix(0.571789,0,0,1,793.701,-299.683) matrix(-0.998716,0,0,1,7491.61,671.542) matrix(-1.75115,0,0,1,9098.32,434.255) matrix(1,0,0,1,0,-5) matrix(1,0,0,1,0,60) matrix(1,0,0,1,0,-5.11727)" style="fill:#f0f2f7"/></g><g><path d="M821.102,1398.91C821.102,1397.5 813.492,1396.35 804.118,1396.35L770.151,1396.35C760.778,1396.35 753.168,1397.5 753.168,1398.91L753.168,1404.02C753.168,1405.44 760.778,1406.58 770.151,1406.58L804.118,1406.58C813.492,1406.58 821.102,1405.44 821.102,1404.02L821.102,1398.91Z" transform="matrix(0.571789,0,0,1,793.701,-299.683) matrix(-0.998716,0,0,1,7491.61,671.542) matrix(-1.75115,0,0,1,9098.32,434.255) matrix(1,0,0,1,0,-5) matrix(1,0,0,1,0,60) matrix(0.147202,0,0,0.977083,768.149,26.8823)" style="fill:#f0f2f7"/></g><g><path d="M821.102,1398.91C821.102,1397.5 813.492,1396.35 804.118,1396.35L770.151,1396.35C760.778,1396.35 753.168,1397.5 753.168,1398.91L753.168,1404.02C753.168,1405.44 760.778,1406.58 770.151,1406.58L804.118,1406.58C813.492,1406.58 821.102,1405.44 821.102,1404.02L821.102,1398.91Z" transform="matrix(0.571789,0,0,1,793.701,-299.683) matrix(-0.998716,0,0,1,7491.61,671.542) matrix(-1.75115,0,0,1,9098.32,434.255) matrix(1,0,0,1,0,-5) matrix(1,0,0,1,0,60) matrix(0.147202,0,0,0.977083,749.149,26.8823)" style="fill:#f0f2f7"/></g><g><path d="M821.102,1398.91C821.102,1397.5 813.492,1396.35 804.118,1396.35L770.151,1396.35C760.778,1396.35 753.168,1397.5 753.168,1398.91L753.168,1404.02C753.168,1405.44 760.778,1406.58 770.151,1406.58L804.118,1406.58C813.492,1406.58 821.102,1405.44 821.102,1404.02L821.102,1398.91Z" transform="matrix(0.571789,0,0,1,793.701,-299.683) matrix(-0.998716,0,0,1,7491.61,671.542) matrix(-1.75115,0,0,1,9098.32,434.255) matrix(1,0,0,1,0,-5) matrix(1,0,0,1,0,60) matrix(0.147202,0,0,0.977083,730.149,26.8823)" style="fill:#f0f2f7"/></g></g></g><g><g><path d="M682.123,1226.78C682.123,1209.65 679.421,1195.75 676.093,1195.75L505.737,1195.75C502.409,1195.75 499.707,1209.65 499.707,1226.78L499.707,1468.97C499.707,1486.1 502.409,1500 505.737,1500L676.093,1500C679.421,1500 682.123,1486.1 682.123,1468.97L682.123,1226.78Z" transform="matrix(0.571789,0,0,1,793.701,-299.683) matrix(-0.998716,0,0,1,7491.61,671.542) matrix(-1.75115,0,0,1,9098.32,434.255) matrix(1,0,0,1,0,-5) matrix(1,0,0,1,0,120) matrix(0.845698,0,0,0.164339,321.366,1174.84)" style="fill:#1d263d"/></g><g><g><path d="M821.102,1398.91C821.102,1397.5 819.955,1396.35 818.543,1396.35L755.727,1396.35C754.314,1396.35 753.168,1397.5 753.168,1398.91L753.168,1404.02C753.168,1405.44 754.314,1406.58 755.727,1406.58L818.543,1406.58C819.955,1406.58 821.102,1405.44 821.102,1404.02L821.102,1398.91Z" transform="matrix(0.571789,0,0,1,793.701,-299.683) matrix(-0.998716,0,0,1,7491.61,671.542) matrix(-1.75115,0,0,1,9098.32,434.255) matrix(1,0,0,1,0,-5) matrix(1,0,0,1,0,120) matrix(1,0,0,1,0,-5.11727)" style="fill:#f0f2f7"/></g><g><path d="M821.102,1398.91C821.102,1397.5 813.492,1396.35 804.118,1396.35L770.151,1396.35C760.778,1396.35 753.168,1397.5 753.168,1398.91L753.168,1404.02C753.168,1405.44 760.778,1406.58 770.151,1406.58L804.118,1406.58C813.492,1406.58 821.102,1405.44 821.102,1404.02L821.102,1398.91Z" transform="matrix(0.571789,0,0,1,793.701,-299.683) matrix(-0.998716,0,0,1,7491.61,671.542) matrix(-1.75115,0,0,1,9098.32,434.255) matrix(1,0,0,1,0,-5) matrix(1,0,0,1,0,120) matrix(0.147202,0,0,0.977083,768.149,26.8823)" style="fill:#f0f2f7"/></g><g><path d="M821.102,1398.91C821.102,1397.5 813.492,1396.35 804.118,1396.35L770.151,1396.35C760.778,1396.35 753.168,1397.5 753.168,1398.91L753.168,1404.02C753.168,1405.44 760.778,1406.58 770.151,1406.58L804.118,1406.58C813.492,1406.58 821.102,1405.44 821.102,1404.02L821.102,1398.91Z" transform="matrix(0.571789,0,0,1,793.701,-299.683) matrix(-0.998716,0,0,1,7491.61,671.542) matrix(-1.75115,0,0,1,9098.32,434.255) matrix(1,0,0,1,0,-5) matrix(1,0,0,1,0,120) matrix(0.147202,0,0,0.977083,749.149,26.8823)" style="fill:#f0f2f7"/></g><g><path d="M821.102,1398.91C821.102,1397.5 813.492,1396.35 804.118,1396.35L770.151,1396.35C760.778,1396.35 753.168,1397.5 753.168,1398.91L753.168,1404.02C753.168,1405.44 760.778,1406.58 770.151,1406.58L804.118,1406.58C813.492,1406.58 821.102,1405.44 821.102,1404.02L821.102,1398.91Z" transform="matrix(0.571789,0,0,1,793.701,-299.683) matrix(-0.998716,0,0,1,7491.61,671.542) matrix(-1.75115,0,0,1,9098.32,434.255) matrix(1,0,0,1,0,-5) matrix(1,0,0,1,0,120) matrix(0.147202,0,0,0.977083,730.149,26.8823)" style="fill:#f0f2f7"/></g></g></g></g><g><text x="554.68" y="2423.92" transform="matrix(0.571789,0,0,1,793.701,-299.683) matrix(-0.998716,0,0,1,7491.61,671.542) matrix(-1.75115,0,0,1,9098.32,434.255) matrix(1,0,0,1,193.766,-809.931)" style="font-family:'Lato-Bold','Lato',sans-serif;font-weight:700;font-size:64px;fill:#1d273d">WEB</text></g></g><g><g transform="matrix(0.571789,0,0,1,793.701,-299.683) matrix(-0.998716,0,0,1,7491.61,671.542) matrix(-1.07227e-16,1,1.75115,6.12323e-17,6185.25,1364.46) matrix(0.505913,0,0,0.505913,381.449,411.288)"><circle cx="791.794" cy="852.188" r="19.766" style="fill:#1d263d"/></g><g transform="matrix(0.571789,0,0,1,793.701,-299.683) matrix(-0.998716,0,0,1,7491.61,671.542) matrix(-1.07227e-16,1,1.75115,6.12323e-17,6185.25,1364.46) matrix(0.505913,0,0,0.505913,421.449,411.288)"><circle cx="791.794" cy="852.188" r="19.766" style="fill:#1d263d"/></g><g transform="matrix(0.571789,0,0,1,793.701,-299.683) matrix(-0.998716,0,0,1,7491.61,671.542) matrix(-1.07227e-16,1,1.75115,6.12323e-17,6185.25,1364.46) matrix(0.505913,0,0,0.505913,461.449,411.288)"><circle cx="791.794" cy="852.188" r="19.766" style="fill:#1d263d"/></g></g><g><g transform="matrix(0.571789,0,0,1,793.701,-299.683) matrix(-0.998716,0,0,1,7491.61,671.542) matrix(-1.07227e-16,1,1.75115,6.12323e-17,6185.25,842.055) matrix(0.505913,0,0,0.505913,381.449,411.288)"><circle cx="791.794" cy="852.188" r="19.766" style="fill:#1d263d"/></g><g transform="matrix(0.571789,0,0,1,793.701,-299.683) matrix(-0.998716,0,0,1,7491.61,671.542) matrix(-1.07227e-16,1,1.75115,6.12323e-17,6185.25,842.055) matrix(0.505913,0,0,0.505913,421.449,411.288)"><circle cx="791.794" cy="852.188" r="19.766" style="fill:#1d263d"/></g><g transform="matrix(0.571789,0,0,1,793.701,-299.683) matrix(-0.998716,0,0,1,7491.61,671.542) matrix(-1.07227e-16,1,1.75115,6.12323e-17,6185.25,842.055) matrix(0.505913,0,0,0.505913,461.449,411.288)"><circle cx="791.794" cy="852.188" r="19.766" style="fill:#1d263d"/></g></g></g><g><path d="M1384.04,654.509L1384.04,550.086L1667.6,550.086L1667.6,445.662L1785.42,602.298L1667.6,758.933L1667.6,654.509L1384.04,654.509Z" transform="matrix(0.571789,0,0,1,793.701,-299.683) matrix(1.43936e-16,0.443183,-0.291506,1.04223e-16,674.977,1602.26)" style="fill:#87f5bc"/></g><g><path d="M1384.04,654.509L1384.04,550.086L1667.6,550.086L1667.6,445.662L1785.42,602.298L1667.6,758.933L1667.6,654.509L1384.04,654.509Z" transform="matrix(0.571789,0,0,1,793.701,-299.683) matrix(1.43936e-16,0.443183,-0.291506,1.04223e-16,301.841,2114.79)" style="fill:#87f5bc"/></g><g><path d="M1384.04,654.509L1384.04,550.086L1667.6,550.086L1667.6,445.662L1785.42,602.298L1667.6,758.933L1667.6,654.509L1384.04,654.509Z" transform="matrix(0.571789,0,0,1,793.701,-299.683) matrix(2.95189e-16,-0.443183,0.291506,-9.78949e-18,-49.3059,3006.91)" style="fill:#87f5bc"/></g><g><path d="M1384.04,654.509L1384.04,550.086L1667.6,550.086L1667.6,445.662L1785.42,602.298L1667.6,758.933L1667.6,654.509L1384.04,654.509Z" transform="matrix(0.571789,0,0,1,793.701,-299.683) matrix(-4.90157e-17,-0.443183,0.291506,-8.38102e-17,323.83,3519.44)" style="fill:#87f5bc"/></g></g><g><g><text x="969.871" y="1413.06" transform="matrix(1,0,0,1,1892.1,-7.85856) matrix(1,0,0,1,1141.55,327.366)" style="font-family:'Lato-Regular','Lato',sans-serif;font-size:32px;fill:#5f78b2">REQUEST OBJECT D<tspan x="1268.02 1287.66" y="1413.06 1413.06">AT</tspan>A</text></g><g><text x="1020.46" y="1413.06" transform="matrix(1,0,0,1,1892.1,-7.85856) matrix(1,0,0,1,1141.55,405.151)" style="font-family:'Lato-Regular','Lato',sans-serif;font-size:32px;fill:#5f78b2">DOMAIN MODEL</text></g><g><path d="M322.927,495.796L2000,495.796" transform="matrix(1,0,0,1,1892.1,-7.85856) matrix(0.516922,0,0,0.224376,1686.63,1657.45)" style="fill:none;stroke:#7d92d0;stroke-width:33.46px"/></g><g><g transform="matrix(1,0,0,1,1892.1,-7.85856) matrix(2.24102,0,0,2.24102,-1885.27,-657.086) matrix(0.54002,0,0,0.54002,792.483,804.497)"><circle cx="2369.26" cy="514.885" r="30.987" style="fill:#7d92d0"/></g><g transform="matrix(1,0,0,1,1892.1,-7.85856) matrix(2.24102,0,0,2.24102,-1885.27,-657.086) matrix(0.466128,0,0,0.466128,967.551,842.543)"><circle cx="2369.26" cy="514.885" r="30.987" style="fill:#fbfcfd"/></g><g transform="matrix(1,0,0,1,1892.1,-7.85856) matrix(2.24102,0,0,2.24102,-1885.27,-657.086) matrix(0.334498,0,0,0.334498,1279.42,910.317)"><circle cx="2369.26" cy="514.885" r="30.987" style="fill:#7d92d0"/></g></g><g><g transform="matrix(1,0,0,1,1892.1,-7.85856) matrix(2.24102,0,0,2.24102,-2822.06,-657.086) matrix(0.54002,0,0,0.54002,792.483,804.497)"><circle cx="2369.26" cy="514.885" r="30.987" style="fill:#7d92d0"/></g><g transform="matrix(1,0,0,1,1892.1,-7.85856) matrix(2.24102,0,0,2.24102,-2822.06,-657.086) matrix(0.466128,0,0,0.466128,967.551,842.543)"><circle cx="2369.26" cy="514.885" r="30.987" style="fill:#fbfcfd"/></g><g transform="matrix(1,0,0,1,1892.1,-7.85856) matrix(2.24102,0,0,2.24102,-2822.06,-657.086) matrix(0.334498,0,0,0.334498,1279.42,910.317)"><circle cx="2369.26" cy="514.885" r="30.987" style="fill:#7d92d0"/></g></g><g><path d="M1384.04,654.509L1384.04,550.086L1667.6,550.086L1667.6,445.662L1785.42,602.298L1667.6,758.933L1667.6,654.509L1384.04,654.509Z" transform="matrix(1,0,0,1,1892.1,-7.85856) matrix(0.443183,-4.996e-17,9.15934e-17,0.16668,1587.26,1573.14)" style="fill:#87f5bc"/></g><g><path d="M1384.04,654.509L1384.04,550.086L1667.6,550.086L1667.6,445.662L1785.42,602.298L1667.6,758.933L1667.6,654.509L1384.04,654.509Z" transform="matrix(1,0,0,1,1892.1,-7.85856) matrix(-0.443183,-4.3142e-18,-7.1181e-17,-0.16668,2991.91,1973.21)" style="fill:#87f5bc"/></g></g></g><g id="Info-Group"><g id="UI-Info-Block"><g transform="matrix(0.527288,0,0,0.560617,3572.51,-1366.17) matrix(1.10832,-1.98159e-17,1.7038e-17,-1.25875,554.715,3265.43)"><rect width="797.552" height="203.404" x="1700.18" y="0" style="fill:#f0f7fd"/></g><g><text x="111.518" y="2186.94" transform="matrix(0.527288,0,0,0.560617,3572.51,-1366.17) matrix(1.8965,0,0,1.78375,2272.65,-816.777)" style="font-family:'Lato-Regular','Lato',sans-serif;font-size:24px;fill:#7dbaf1">Injecting required services for speciﬁc</text><text x="111.518" y="2222.94" transform="matrix(0.527288,0,0,0.560617,3572.51,-1366.17) matrix(1.8965,0,0,1.78375,2272.65,-816.777)" style="font-family:'Lato-Regular','Lato',sans-serif;font-size:24px;fill:#7dbaf1">domain or shared domain services to</text><text x="111.518" y="2258.94" transform="matrix(0.527288,0,0,0.560617,3572.51,-1366.17) matrix(1.8965,0,0,1.78375,2272.65,-816.777)" style="font-family:'Lato-Regular','Lato',sans-serif;font-size:24px;fill:#7dbaf1">e<tspan x="123.374 134.75 147.326" y="2258.94 2258.94 2258.94">xec</tspan>ute it&apos;s method</text></g></g><g id="App-Services-Info-Block"><g transform="matrix(0.648665,0,0,0.560617,3442.45,268.067) matrix(1.21272,-4.3277e-17,5.09173e-17,-1.5941,377.201,3333.64)"><rect width="797.552" height="203.404" x="1700.18" y="0" style="fill:#fcf4e3"/></g><g><text x="111.518" y="2186.94" transform="matrix(0.648665,0,0,0.560617,3442.45,268.067) matrix(1.54163,0,0,1.78375,2295.8,-813.486)" style="font-family:'Lato-Regular','Lato',sans-serif;font-size:24px;fill:#ecb32d">Service method logic is stored in domain la<tspan x="552.038 564.014 576.59 584.678 589.766" y="2186.94 2186.94 2186.94 2186.94 2186.94">yer. </tspan>In that</text><text x="111.518" y="2222.94" transform="matrix(0.648665,0,0,0.560617,3442.45,268.067) matrix(1.54163,0,0,1.78375,2295.8,-813.486)" style="font-family:'Lato-Regular','Lato',sans-serif;font-size:24px;fill:#ecb32d">case we ha<tspan x="227.87 239.846 252.422" y="2222.94 2222.94 2222.94">ve </tspan>fvacade here, and all required</text><text x="111.518" y="2258.94" transform="matrix(0.648665,0,0,0.560617,3442.45,268.067) matrix(1.54163,0,0,1.78375,2295.8,-813.486)" style="font-family:'Lato-Regular','Lato',sans-serif;font-size:24px;fill:#ecb32d">dependencies to e<tspan x="299.774 311.15 323.726" y="2258.94 2258.94 2258.94">xec</tspan>ute this logic are injected in Core</text><text x="111.518" y="2294.94" transform="matrix(0.648665,0,0,0.560617,3442.45,268.067) matrix(1.54163,0,0,1.78375,2295.8,-813.486)" style="font-family:'Lato-Regular','Lato',sans-serif;font-size:24px;fill:#ecb32d">la<tspan x="129.446 141.422 153.998 162.086 167.174" y="2294.94 2294.94 2294.94 2294.94 2294.94">yer. </tspan>UI La<tspan x="225.446 237.422 249.998" y="2294.94 2294.94 2294.94">yer</tspan> has an access to Core La<tspan x="515.342 527.318 539.894" y="2294.94 2294.94 2294.94">yer</tspan></text></g></g><g id="Infra-Info-Block"><g transform="matrix(1.04276,0,0,0.830338,972.768,-337.606) matrix(1.00765,-2.79196e-17,1.66783e-17,-1.17242,963.545,3247.87)"><rect width="797.552" height="203.404" x="1700.18" y="0" style="fill:#e7ebf5"/></g><g><text x="111.518" y="2186.94" transform="matrix(1.04276,0,0,0.830338,972.768,-337.606) matrix(0.958993,0,0,1.20433,2579.96,414.823)" style="font-family:'Lato-Regular','Lato',sans-serif;font-size:24px;fill:#5f78b2">Speciﬁc user action will e<tspan x="370.67 382.046 394.622" y="2186.94 2186.94 2186.94">xec</tspan>ute one of injected domain services method. Input</text><text x="111.518" y="2222.94" transform="matrix(1.04276,0,0,0.830338,972.768,-337.606) matrix(0.958993,0,0,1.20433,2579.96,414.823)" style="font-family:'Lato-Regular','Lato',sans-serif;font-size:24px;fill:#5f78b2">data will be pro<tspan x="270.878 283.166" y="2222.94 2222.94">vi</tspan>ded through Request Object. Output data will be domain</text><text x="111.518" y="2258.94" transform="matrix(1.04276,0,0,0.830338,972.768,-337.606) matrix(0.958993,0,0,1.20433,2579.96,414.823)" style="font-family:'Lato-Regular','Lato',sans-serif;font-size:24px;fill:#5f78b2">model which can be tr<tspan x="338.534 350.702" y="2258.94 2258.94">an</tspan>slated to UI model if needed. Once y<tspan x="737.99 751.334" y="2258.94 2258.94">ou</tspan> receiv<tspan x="833.462 846.038" y="2258.94 2258.94">e </tspan>output</text><text x="111.518" y="2294.94" transform="matrix(1.04276,0,0,0.830338,972.768,-337.606) matrix(0.958993,0,0,1.20433,2579.96,414.823)" style="font-family:'Lato-Regular','Lato',sans-serif;font-size:24px;fill:#5f78b2">data from domain y<tspan x="313.022 326.366" y="2294.94 2294.94">ou</tspan> can tr<tspan x="403.862 416.03" y="2294.94 2294.94">an</tspan>sform it to an<tspan x="567.014 579.302" y="2294.94 2294.94">y </tspan>structure depending on e<tspan x="844.838 856.934" y="2294.94 2294.94">xt</tspan>ernal</text><text x="111.518" y="2330.94" transform="matrix(1.04276,0,0,0.830338,972.768,-337.606) matrix(0.958993,0,0,1.20433,2579.96,414.823)" style="font-family:'Lato-Regular','Lato',sans-serif;font-size:24px;fill:#5f78b2">user needs.</text></g></g><g id="Infra-Info-Block1"><g transform="matrix(0.57091,0,0,0.432686,435.412,31.0738) matrix(1.00765,-1.61121e-16,9.26692e-17,-1.99116,963.545,3414.4)"><rect width="797.552" height="203.404" x="1700.18" y="0" style="fill:#e7ebf5"/></g><g><text x="111.518" y="2186.94" transform="matrix(0.57091,0,0,0.432686,435.412,31.0738) matrix(1.75159,0,0,2.31115,2516.87,-1951.42)" style="font-family:'Lato-Regular','Lato',sans-serif;font-size:24px;fill:#5f78b2">Depending on protocol of</text><text x="111.518" y="2222.94" transform="matrix(0.57091,0,0,0.432686,435.412,31.0738) matrix(1.75159,0,0,2.31115,2516.87,-1951.42)" style="font-family:'Lato-Regular','Lato',sans-serif;font-size:24px;fill:#5f78b2">communication we are injecting here</text><text x="111.518" y="2258.94" transform="matrix(0.57091,0,0,0.432686,435.412,31.0738) matrix(1.75159,0,0,2.31115,2516.87,-1951.42)" style="font-family:'Lato-Regular','Lato',sans-serif;font-size:24px;fill:#5f78b2">required domain service ( to resolv<tspan x="472.118 484.694" y="2258.94 2258.94">er</tspan>s,</text><text x="111.518" y="2294.94" transform="matrix(0.57091,0,0,0.432686,435.412,31.0738) matrix(1.75159,0,0,2.31115,2516.87,-1951.42)" style="font-family:'Lato-Regular','Lato',sans-serif;font-size:24px;fill:#5f78b2">controllers or an<tspan x="283.742 296.03" y="2294.94 2294.94">y </tspan>other structure )</text></g></g><g id="Infra-Info-Block2"><g transform="matrix(0.57091,0,0,0.432686,708.882,1086.5) matrix(1.00765,-1.61121e-16,9.26692e-17,-1.99116,963.545,3414.4)"><rect width="797.552" height="203.404" x="1700.18" y="0" style="fill:#e7ebf5"/></g><g><text x="111.518" y="2186.94" transform="matrix(0.57091,0,0,0.432686,708.882,1086.5) matrix(1.75159,0,0,2.31115,2516.87,-1951.42)" style="font-family:'Lato-Regular','Lato',sans-serif;font-size:24px;fill:#5f78b2">Sometimes we can reuse domain model</text><text x="111.518" y="2222.94" transform="matrix(0.57091,0,0,0.432686,708.882,1086.5) matrix(1.75159,0,0,2.31115,2516.87,-1951.42)" style="font-family:'Lato-Regular','Lato',sans-serif;font-size:24px;fill:#5f78b2">if response is in the same structure but</text><text x="111.518" y="2258.94" transform="matrix(0.57091,0,0,0.432686,708.882,1086.5) matrix(1.75159,0,0,2.31115,2516.87,-1951.42)" style="font-family:'Lato-Regular','Lato',sans-serif;font-size:24px;fill:#5f78b2">it&apos;s recommended to map domain model</text><text x="111.518" y="2294.94" transform="matrix(0.57091,0,0,0.432686,708.882,1086.5) matrix(1.75159,0,0,2.31115,2516.87,-1951.42)" style="font-family:'Lato-Regular','Lato',sans-serif;font-size:24px;fill:#5f78b2">to ui model and apply tr<tspan x="355.838 368.006" y="2294.94 2294.94">an</tspan>sformations</text></g></g><g id="Infra-Info-Block3"><g transform="matrix(1.04276,0,0,0.635227,-2153.59,-1020.36) matrix(1.00765,-2.79196e-17,1.66783e-17,-1.17242,963.545,3247.87)"><rect width="797.552" height="203.404" x="1700.18" y="0" style="fill:#e7ebf5"/></g><g><text x="111.518" y="2186.94" transform="matrix(1.04276,0,0,0.635227,-2153.59,-1020.36) matrix(0.958993,0,0,1.57424,2579.96,-387.61)" style="font-family:'Lato-Regular','Lato',sans-serif;font-size:24px;fill:#5f78b2">User interface la<tspan x="283.622 295.598 308.174" y="2186.94 2186.94 2186.94">yer</tspan> is just an input la<tspan x="494.846 506.822 519.398" y="2186.94 2186.94 2186.94">yer</tspan> for multiple protocols of</text><text x="111.518" y="2222.94" transform="matrix(1.04276,0,0,0.635227,-2153.59,-1020.36) matrix(0.958993,0,0,1.57424,2579.96,-387.61)" style="font-family:'Lato-Regular','Lato',sans-serif;font-size:24px;fill:#5f78b2">communication or multiple wa<tspan x="426.806 439.094" y="2222.94 2222.94">ys</tspan> of communicating with serv<tspan x="741.806 754.382 762.47 767.558" y="2222.94 2222.94 2222.94 2222.94">er. </tspan>It can be</text><text x="111.518" y="2258.94" transform="matrix(1.04276,0,0,0.635227,-2153.59,-1020.36) matrix(0.958993,0,0,1.57424,2579.96,-387.61)" style="font-family:'Lato-Regular','Lato',sans-serif;font-size:24px;fill:#5f78b2">communication based on W<tspan x="400.118 412.694" y="2258.94 2258.94">eb</tspan> lik<tspan x="454.886 467.462" y="2258.94 2258.94">e </tspan>GrqphQL<tspan x="571.526 576.614" y="2258.94 2258.94">, </tspan>REST or it can be CLI app - from</text><text x="111.518" y="2294.94" transform="matrix(1.04276,0,0,0.635227,-2153.59,-1020.36) matrix(0.958993,0,0,1.57424,2579.96,-387.61)" style="font-family:'Lato-Regular','Lato',sans-serif;font-size:24px;fill:#5f78b2">architectur<tspan x="228.302 240.47" y="2294.94 2294.94">al</tspan> point of view it doesn<tspan x="472.958 478.478" y="2294.94 2294.94">&apos;t</tspan> really matter<tspan x="626.126" y="2294.94">.</tspan></text></g></g></g><g id="DI"><g><g transform="matrix(1,0,0,1,0,5.18545) matrix(1.07009,0,0,1.04863,-30.2996,-184.466)"><rect width="5266.18" height="106.634" x="369.121" y="3793.37" style="fill:#e1e8f4"/></g><g><text x="2856" y="73.742" transform="matrix(1,0,0,1,0,5.18545) matrix(1,0,0,1,-145.969,3793.37)" style="font-family:'Lato-Bold','Lato',sans-serif;font-weight:700;font-size:48px;fill:#48669d">DEPENDENCY INJECTION</text></g></g><g><g transform="matrix(1,0,0,1,0,5.18545) matrix(1,0,0,1.04863,0,-5.18545) matrix(1.07009,0,0,1,-30.2996,-3793.37)"><rect width="5266.18" height="106.634" x="369.121" y="3793.37" style="fill:#e1e8f4"/></g><g><text x="2856" y="73.742" transform="matrix(1,0,0,1,0,5.18545) matrix(1,0,0,1.04863,0,-5.18545) matrix(1,0,0,0.953627,-145.969,-3.36075e-12)" style="font-family:'Lato-Bold','Lato',sans-serif;font-weight:700;font-size:48px;fill:#48669d">DEPENDENCY INJECTION</text></g></g><g transform="matrix(1,0,0,1,0,5.18545) matrix(4.41072e-17,-0.720325,1,6.12323e-17,-3428.67,4059.25)"><rect width="5266.18" height="106.634" x="369.121" y="3793.37" style="fill:#e1e8f4"/></g></g><g id="External-Internal-User" transform="matrix(1,0,0,1.00266,5.68434e-14,-6.12843e-13)"><rect width="364.694" height="3900" x="0" y="0" style="fill:#525a6c"/><g><text x="1418.31" y="885.316" transform="matrix(6.10699e-17,-0.997348,1,6.12323e-17,-667.304,4005.76)" style="font-family:'Lato-Bold','Lato',sans-serif;font-weight:700;font-size:96px;fill:#e8eaee">INTERNAL \ EXTERNAL USER</text></g></g></g></svg>